<?xml version="1.0" encoding="UTF-8"?>
<svg version="1.1" xmlns="http://www.w3.org/2000/svg" width="512" height="512">
<path d="M0 0 C0.80479626 -0.00453111 1.60959252 -0.00906223 2.43877655 -0.01373065 C5.12086982 -0.02633599 7.80275903 -0.0247568 10.48487854 -0.02310181 C12.41379557 -0.02908937 14.3427102 -0.03589544 16.2716217 -0.04345703 C21.50092927 -0.06109846 26.73017135 -0.06581156 31.9595058 -0.0670886 C35.22822991 -0.06851151 38.49693744 -0.07278371 41.76565742 -0.07808304 C53.17354004 -0.09657533 64.58137596 -0.10475442 75.98927307 -0.10317993 C86.61675327 -0.10197791 97.24403058 -0.12309429 107.87145942 -0.15466726 C117.00286991 -0.18082738 126.1342141 -0.19154738 135.26566178 -0.19026911 C140.71641018 -0.18975952 146.16697812 -0.19544192 151.61768913 -0.21662521 C156.7436653 -0.23600369 161.86928872 -0.23613462 166.9952774 -0.22159195 C168.87378264 -0.21950246 170.75230993 -0.22421306 172.63077736 -0.23631287 C175.20071603 -0.25179149 177.76944218 -0.2424406 180.33935547 -0.22705078 C181.44701434 -0.24248147 181.44701434 -0.24248147 182.57705015 -0.25822389 C189.93916185 -0.16119068 196.53204877 3.06630475 201.73316956 8.26742554 C206.34301992 15.21484876 207.86759696 20.75240427 207.83082581 29.09945679 C207.82760315 30.39174194 207.82438049 31.6840271 207.82106018 33.01547241 C207.8127062 34.3702908 207.80424128 35.72510851 207.79566956 37.07992554 C207.79064955 38.45427288 207.78608752 39.82862198 207.78199768 41.20297241 C207.77022623 44.55783477 207.75378239 47.91260775 207.73316956 51.26742554 C208.75079376 51.25632248 209.76841797 51.24521942 210.81687927 51.23377991 C220.43802278 51.1321304 230.0590564 51.05732943 239.68061638 51.00836468 C244.62642285 50.98234437 249.57179352 50.94708551 254.51734924 50.89022827 C259.29603951 50.83563737 264.07431236 50.80594818 268.85329056 50.79303932 C270.67046295 50.78384782 272.4876142 50.76589932 274.30460739 50.73877525 C294.37286599 50.45129076 294.37286599 50.45129076 302.62132263 57.99403381 C309.6534317 65.19201085 310.09933039 73.46013377 309.99684143 82.99008179 C309.97178452 84.41586894 309.94638981 85.8416502 309.92066956 87.26742554 C309.90559696 88.72444297 309.89191311 90.18147547 309.87965393 91.63851929 C309.84684859 95.18180478 309.79520863 98.72451725 309.73316956 102.26742554 C310.74270691 102.2607637 311.75224426 102.25410187 312.79237366 102.24723816 C322.3259085 102.18631173 331.85940363 102.14139762 341.39308929 102.11198902 C346.2939671 102.09636128 351.19468719 102.07517594 356.09547424 102.04110718 C360.82874086 102.00841045 365.56185618 101.99055079 370.29522705 101.98279381 C372.09726339 101.97726878 373.89929184 101.96647982 375.70126343 101.95023537 C378.23356245 101.92832375 380.76524347 101.9254643 383.29762268 101.92684937 C384.03562103 101.91606354 384.77361938 101.90527771 385.53398132 101.89416504 C392.42536096 101.93470956 398.68134886 103.78117813 403.98316956 108.39242554 C404.60707581 108.91062866 405.23098206 109.42883179 405.87379456 109.96273804 C412.35858906 118.00061357 412.30613112 126.50100539 412.24110413 136.45640564 C412.24571775 137.99702812 412.25207375 139.53764619 412.2600131 141.07825512 C412.27666618 145.29538384 412.26847851 149.51214912 412.25606823 153.72927892 C412.24700361 158.28353322 412.26099441 162.83772581 412.27198792 167.39196777 C412.28976223 176.30697148 412.28593812 185.22184039 412.27433735 194.13684935 C412.2652996 201.38247784 412.26408051 208.62806858 412.26843262 215.8737011 C412.26904555 216.90538165 412.26965848 217.9370622 412.27028999 219.00000579 C412.2715689 221.09590715 412.27286575 223.19180849 412.27418035 225.28770982 C412.28558282 244.93458206 412.27247737 264.5813796 412.25097889 284.22823959 C412.23310556 301.08403102 412.23621461 317.93971226 412.25465393 334.79550171 C412.27606194 354.37417236 412.28448701 373.95277759 412.27220488 393.53145832 C412.27093069 395.61929412 412.26967321 397.70712993 412.26843262 399.79496574 C412.26781552 400.82219829 412.26719841 401.84943083 412.26656261 402.90779163 C412.26310971 410.14474148 412.26893673 417.3816498 412.27835083 424.61859322 C412.28957128 433.43790352 412.28652964 442.25707142 412.26522785 451.07636542 C412.25471851 455.57561578 412.25059369 460.07462875 412.26382446 464.57387733 C412.27575641 468.69376122 412.26917277 472.81318798 412.24791425 476.93303048 C412.24345161 478.4221222 412.24570693 479.91125266 412.25541741 481.4003194 C412.31209599 490.81504281 412.00125191 497.45724328 405.54957581 504.72836304 C404.43389221 505.67582397 404.43389221 505.67582397 403.29566956 506.64242554 C402.55445862 507.28953491 401.81324768 507.93664429 401.04957581 508.60336304 C397.15985096 511.3976679 393.67888134 512.51646738 388.90796947 512.52469444 C387.95894762 512.53114334 387.00992577 512.53759223 386.03214568 512.54423654 C384.99771986 512.54113934 383.96329403 512.53804213 382.89752197 512.53485107 C381.79225169 512.53938219 380.6869814 512.5439133 379.54821807 512.54858172 C375.83728399 512.56126204 372.12649598 512.55960298 368.4155426 512.55795288 C365.75786288 512.56393586 363.10019467 512.57068411 360.44252014 512.57830811 C353.96811084 512.59491514 347.49373795 512.60041752 341.01930913 512.60153286 C335.7558567 512.6024835 330.49241629 512.60659459 325.22896767 512.61293411 C310.30255742 512.63054592 295.37617593 512.63977311 280.44975521 512.63827316 C279.64520822 512.63819325 278.84066122 512.63811334 278.01173401 512.63803101 C277.2062034 512.63794924 276.40067278 512.63786748 275.57073215 512.63778324 C262.51725478 512.63697042 249.46389281 512.65610734 236.41044881 512.68430774 C223.00377654 512.71304244 209.59716054 512.7268477 196.19045669 512.72512019 C188.66501448 512.72445647 181.13969325 512.72994046 173.61427879 512.75147629 C167.20666588 512.76969586 160.79922878 512.77402916 154.39160117 512.76045744 C151.12367845 512.75393147 147.85616266 512.75597438 144.58825874 512.77116394 C141.0417936 512.78658056 137.4962139 512.77733064 133.94976807 512.76190186 C132.92203441 512.77218898 131.89430075 512.78247611 130.83542365 512.79307497 C124.50985382 512.73227097 120.09166122 511.65319963 114.73316956 508.26742554 C113.84629456 507.71055054 112.95941956 507.15367554 112.04566956 506.57992554 C106.5960648 501.13032078 103.8887727 494.69425125 103.61964417 487.03768921 C103.62488098 485.84893188 103.6301178 484.66017456 103.63551331 483.43539429 C103.63873596 482.14310913 103.64195862 480.85082397 103.64527893 479.51937866 C103.65363291 478.16456027 103.66209784 476.80974257 103.67066956 475.45492554 C103.67568956 474.08057819 103.68025159 472.70622909 103.68434143 471.33187866 C103.69611288 467.9770163 103.71255672 464.62224332 103.73316956 461.26742554 C102.71554535 461.27852859 101.69792114 461.28963165 100.64945984 461.30107117 C91.02831633 461.40272067 81.40728271 461.47752164 71.78572273 461.5264864 C66.83991626 461.55250671 61.89454559 461.58776556 56.94898987 461.6446228 C52.1702996 461.69921371 47.39202675 461.7289029 42.61304855 461.74181175 C40.79587616 461.75100326 38.97872491 461.76895176 37.16173172 461.79607582 C17.09347312 462.08356032 17.09347312 462.08356032 8.84501648 454.54081726 C1.81290741 447.34284023 1.36700872 439.0747173 1.46949768 429.54476929 C1.49455459 428.11898213 1.51994931 426.69320088 1.54566956 425.26742554 C1.56074215 423.8104081 1.57442601 422.35337561 1.58668518 420.89633179 C1.61949052 417.35304629 1.67113048 413.81033383 1.73316956 410.26742554 C0.7236322 410.27408737 -0.28590515 410.28074921 -1.32603455 410.28761292 C-10.85956939 410.34853934 -20.39306451 410.39345346 -29.92675018 410.42286205 C-34.82762798 410.4384898 -39.72834808 410.45967513 -44.62913513 410.4937439 C-49.36240175 410.52644062 -54.09551706 410.54430029 -58.82888794 410.55205727 C-60.63092428 410.55758229 -62.43295273 410.56837125 -64.23492432 410.58461571 C-66.76722334 410.60652733 -69.29890436 410.60938678 -71.83128357 410.60800171 C-72.9382811 410.62418045 -72.9382811 410.62418045 -74.06764221 410.64068604 C-80.95902185 410.60014152 -87.21500975 408.75367295 -92.51683044 404.14242554 C-93.45268982 403.36512085 -93.45268982 403.36512085 -94.40745544 402.57211304 C-100.24128539 395.34110534 -100.84600636 387.92869367 -100.77476501 378.91468811 C-100.78100498 377.69448292 -100.78724494 376.47427773 -100.79367399 375.21709663 C-100.80681601 371.85120906 -100.80215804 368.48622141 -100.78972912 365.12038958 C-100.78064781 361.48221682 -100.79466375 357.84412051 -100.8056488 354.20596313 C-100.82340749 347.08634512 -100.81960545 339.96689608 -100.80799824 332.84727152 C-100.7989516 327.05762448 -100.79774524 321.26802467 -100.80209351 315.47837257 C-100.80270644 314.65322365 -100.80331937 313.82807472 -100.80395088 312.97792128 C-100.80522983 311.30142085 -100.80652669 309.62492043 -100.80784124 307.94842003 C-100.81923983 292.23769416 -100.80614578 276.52706175 -100.78463978 260.81635121 C-100.76677941 247.35248605 -100.76986552 233.8887589 -100.78831482 220.42489624 C-100.80975151 204.77367708 -100.81813078 189.12253984 -100.80586576 173.47130805 C-100.80459164 171.80018065 -100.80333415 170.12905323 -100.80209351 168.4579258 C-100.8014764 167.63580026 -100.8008593 166.81367473 -100.8002235 165.9666363 C-100.79677824 160.18929737 -100.80258134 154.41201064 -100.81201172 148.63467979 C-100.82326467 141.58607235 -100.82012316 134.53764293 -100.79888874 127.48905572 C-100.78842085 123.89660928 -100.78418278 120.30445898 -100.79748535 116.71201515 C-100.81172142 112.80821622 -100.79465215 108.90489558 -100.77476501 105.00111389 C-100.7836879 103.87881353 -100.79261079 102.75651316 -100.80180407 101.60020369 C-100.56994502 78.04134475 -83.94272029 63.79404535 -68.41136169 48.24398804 C-67.41485019 47.2442479 -66.41840705 46.24443961 -65.42202759 45.24456787 C-63.35747353 43.17410149 -61.29094133 41.10563392 -59.22312927 39.03842163 C-56.5925167 36.40791138 -53.96890155 33.77053651 -51.34691334 31.13143349 C-49.30072333 29.07406715 -47.24994564 27.02132036 -45.19789696 24.96979904 C-44.2287791 23.99951371 -43.26125246 23.027636 -42.29546547 22.05403519 C-35.57440497 15.28360425 -28.86214549 8.7379297 -20.20433044 4.51742554 C-19.42960388 4.13070679 -18.65487732 3.74398804 -17.85667419 3.34555054 C-11.90363445 0.86736205 -6.40985678 -0.02680362 0 0 Z M-3.67488289 20.11040974 C-6.11287686 23.41377956 -6.39063995 26.05632367 -6.39280701 30.03915405 C-6.39661377 31.00768814 -6.40042053 31.97622223 -6.40434265 32.97410583 C-6.40536987 34.0209404 -6.40639709 35.06777496 -6.40745544 36.14633179 C-6.42579277 38.36964925 -6.44536392 40.59295681 -6.46604919 42.81625366 C-6.49493575 46.31617829 -6.51682842 49.81546993 -6.51731873 53.31552124 C-6.52067285 56.69719397 -6.55535016 60.07741334 -6.59495544 63.45883179 C-6.58788574 64.49149673 -6.58081604 65.52416168 -6.5735321 66.58811951 C-6.70153191 74.31235788 -8.50302828 80.94014694 -13.6738739 86.88511658 C-20.77980791 93.27391291 -27.87368738 93.70784478 -36.96604919 93.70883179 C-38.07865616 93.72203964 -39.19126312 93.7352475 -40.33758545 93.74885559 C-43.87652641 93.78961088 -47.41520844 93.81139106 -50.95433044 93.82992554 C-54.50408588 93.85372036 -58.05359782 93.88182211 -61.60321045 93.92170715 C-63.80786646 93.94604583 -66.01265178 93.96091927 -68.21743774 93.96531677 C-69.71468132 93.98059669 -69.71468132 93.98059669 -71.24217224 93.9961853 C-72.5561927 94.00259789 -72.5561927 94.00259789 -73.89675903 94.00914001 C-76.50084435 94.29292789 -78.07207831 94.84880602 -80.26683044 96.26742554 C-82.42725033 99.50805537 -82.51851861 100.38165193 -82.52689266 104.1204052 C-82.53395825 105.12651277 -82.54102384 106.13262035 -82.54830354 107.16921604 C-82.54588846 108.27766002 -82.54347338 109.38610401 -82.54098511 110.52813721 C-82.54622179 111.70323573 -82.55145846 112.87833426 -82.55685383 114.08904183 C-82.56928821 117.35630187 -82.57269663 120.62342897 -82.57225692 123.89070821 C-82.5739028 127.4122765 -82.58696496 130.93380538 -82.59844971 134.45535278 C-82.62131593 142.15774396 -82.62922193 149.86010762 -82.63427615 157.56252813 C-82.63753103 162.37028381 -82.64405221 167.17803147 -82.65127754 171.98578262 C-82.67084493 185.29264252 -82.68724854 198.59949495 -82.69015408 211.90637016 C-82.69034165 212.75817903 -82.69052922 213.6099879 -82.69072247 214.48760916 C-82.69108872 216.21448906 -82.69145242 217.94136897 -82.69181358 219.66824888 C-82.69199639 220.52549378 -82.6921792 221.38273868 -82.69236755 222.26596069 C-82.6925481 223.12424969 -82.69272865 223.98253869 -82.69291467 224.86683644 C-82.69645755 238.77930227 -82.72348639 252.69161342 -82.76086544 266.60402559 C-82.7989199 280.8818597 -82.81831134 295.15961701 -82.81861359 309.43750298 C-82.81919878 317.45642772 -82.82773021 325.47516793 -82.85661125 333.49404526 C-82.88108688 340.32122283 -82.88843401 347.14814857 -82.87336373 353.97535811 C-82.86617916 357.45964116 -82.86711759 360.94342656 -82.88977432 364.42765427 C-82.91007958 368.20312466 -82.89977255 371.97729456 -82.88156128 375.75274658 C-82.89476125 376.85672912 -82.90796121 377.96071167 -82.92156118 379.09814823 C-82.8698977 383.76792699 -82.78334355 386.4650258 -80.21713352 390.45161629 C-76.54859379 392.70947529 -73.62911659 392.93935592 -69.44725037 392.83505249 C-68.29035706 392.83614769 -68.29035706 392.83614769 -67.11009216 392.83726501 C-64.57176822 392.8337935 -62.03530077 392.79495616 -59.49729919 392.75570679 C-57.73325605 392.74637703 -55.96919991 392.73926169 -54.20513916 392.73426819 C-49.57042948 392.71521101 -44.93650786 392.66612163 -40.30210876 392.61074829 C-35.56975464 392.55952795 -30.83727271 392.53674822 -26.10472107 392.51156616 C-16.82507865 392.45800135 -7.54602017 392.37270431 1.73316956 392.26742554 C1.73555791 391.00974711 1.73794626 389.75206869 1.74040699 388.4562788 C1.79781602 358.57489869 1.87058143 328.69359877 1.96215584 298.81230567 C1.97342346 295.13124896 1.984562 291.45019187 1.99562073 287.76913452 C1.99782441 287.0363287 2.00002809 286.30352288 2.00229856 285.54851083 C2.03763267 273.69634353 2.06251871 261.8441763 2.08351658 249.99197593 C2.10530963 237.82277724 2.13839323 225.65364667 2.18187112 213.48450595 C2.20832758 205.98066654 2.22606711 198.47691194 2.2325156 190.97302822 C2.23841284 185.21073838 2.26004898 179.4485889 2.28744507 173.68636513 C2.29621831 171.32860273 2.29994936 168.97081516 2.29817772 166.61303711 C2.29651838 163.38491609 2.31328116 160.15737744 2.33444214 156.92933655 C2.32959456 156.00420452 2.32474699 155.0790725 2.31975251 154.12590617 C2.46111354 140.98891944 6.73536748 129.3290186 15.68263245 119.70614624 C16.16520791 119.18653729 16.64778337 118.66692835 17.14498234 118.13157368 C22.50937524 112.38420372 28.00926549 106.77042001 33.54176331 101.18539429 C34.07935839 100.64247553 34.61695347 100.09955677 35.17083931 99.54018593 C38.00857012 96.67605792 40.84974437 93.81539287 43.69337463 90.9571228 C46.01685789 88.62025242 48.33282302 86.27629669 50.64259338 83.9258728 C53.47099778 81.04775585 56.31185193 78.1824827 59.16168404 75.32558632 C60.2306889 74.24994951 61.29550406 73.17012901 62.35563469 72.08574486 C76.03087717 58.11520123 88.9378134 52.06309153 108.41314411 51.79672527 C111.39874095 51.7744162 114.38422435 51.76479707 117.36988831 51.75570679 C119.4616805 51.73883891 121.55346269 51.72068587 123.64523315 51.7013092 C129.11789319 51.6540321 134.59051264 51.62407895 140.06330872 51.59786987 C145.66102611 51.56795134 151.25860398 51.52146006 156.85621643 51.47640991 C167.81512748 51.39063065 178.77406744 51.32317306 189.73316956 51.26742554 C189.82059756 47.05922408 189.87370597 42.85125778 189.92066956 38.64242554 C189.94580627 37.45262085 189.97094299 36.26281616 189.99684143 35.03695679 C190.18824833 26.64066472 190.18824833 26.64066472 186.73316956 19.26742554 C183.75769799 17.77968975 180.72131663 18.11941334 177.45829773 18.12025452 C176.32065674 18.11473948 176.32065674 18.11473948 175.16003311 18.10911304 C172.60514085 18.09805309 170.05028923 18.09422849 167.49537659 18.09042358 C165.66908132 18.08416077 163.84278733 18.07751414 162.01649475 18.07051086 C157.04543321 18.05308637 152.07438129 18.04254556 147.10329676 18.03430533 C143.99996809 18.02915919 140.89664243 18.02308334 137.79331589 18.0167942 C128.09063243 17.99773972 118.38795661 17.98350806 108.68525803 17.97518224 C97.47190857 17.96540209 86.2587561 17.93906335 75.04547608 17.89868134 C66.38641982 17.86856381 57.72742017 17.85371759 49.06831253 17.85040122 C43.89258652 17.84804611 38.7170709 17.83902572 33.54140091 17.81394005 C28.67405825 17.79072997 23.80706557 17.7863975 18.93968201 17.79670143 C17.15141005 17.7971986 15.36312128 17.79082516 13.57490158 17.77714539 C11.13684675 17.7595351 8.70006283 17.76647793 6.26200867 17.77967834 C5.55130789 17.7687091 4.84060711 17.75773985 4.10836995 17.74643821 C0.76061105 17.79031981 -0.98337593 18.05048583 -3.67488289 20.11040974 Z M-29.41941833 35.2906189 C-30.30025589 36.16830429 -31.18109344 37.04598969 -32.08862305 37.95027161 C-33.05570518 38.9191435 -34.02265661 39.88814588 -34.98948669 40.85726929 C-35.97440171 41.84151129 -36.95946518 42.82560477 -37.94467163 43.80955505 C-40.01177976 45.87518607 -42.07706098 47.94262243 -44.14109802 50.01132202 C-46.79328995 52.66921124 -49.44994472 55.32258708 -52.10797977 57.97463131 C-54.14373261 60.00677891 -56.17710777 62.0412921 -58.20976067 64.07653999 C-59.18868423 65.05613293 -60.16835746 66.03497728 -61.1487751 67.01307487 C-62.51614207 68.37791596 -63.87998341 69.74628649 -65.24363708 71.11483765 C-66.02227615 71.89427231 -66.80091522 72.67370697 -67.60314941 73.47676086 C-69.38027268 74.98215295 -69.38027268 74.98215295 -69.26683044 76.26742554 C-63.66185023 76.39121885 -58.05766923 76.48185572 -52.4516449 76.54208374 C-50.54557938 76.56719553 -48.63960985 76.60129199 -46.73387146 76.6446228 C-43.99071047 76.70542298 -41.24882458 76.73366799 -38.50511169 76.75570679 C-37.23139458 76.79441643 -37.23139458 76.79441643 -35.9319458 76.83390808 C-31.81447663 76.83585071 -29.75898328 76.58290813 -26.21995544 74.31430054 C-23.52819596 70.11515574 -23.63005575 66.91523054 -23.77854919 62.02914429 C-23.7891613 60.7079937 -23.7891613 60.7079937 -23.79998779 59.3601532 C-23.82789197 56.55753269 -23.89062102 53.75693819 -23.95433044 50.95492554 C-23.97941855 49.05065759 -24.00223082 47.14635821 -24.02268982 45.24203491 C-24.07770541 40.58305569 -24.16394894 35.92558365 -24.26683044 31.26742554 C-26.31053261 31.26742554 -28.10234833 33.97489326 -29.41941833 35.2906189 Z M96.73316956 74.26742554 C96.00799367 76.66213255 96.00799367 76.66213255 96.12135315 79.1902771 C96.10641312 80.61766205 96.10641312 80.61766205 96.09117126 82.07388306 C96.10451508 83.09165833 96.11785889 84.10943359 96.13160706 85.15805054 C96.11959763 86.74683014 96.11959763 86.74683014 96.10734558 88.3677063 C96.0842826 91.75133528 96.09372798 95.13376436 96.10816956 98.51742554 C96.11202829 101.88658088 96.10846338 105.25520183 96.08757019 108.6242981 C96.0755704 110.71789414 96.07800112 112.81164017 96.09727478 114.90518188 C96.06570042 123.23298481 94.55677756 130.95370905 89.38160706 137.69711304 C81.45353353 145.24944848 71.31541355 145.39729737 61.04176331 145.40805054 C58.94214297 145.42636608 56.84253327 145.44593521 54.74293518 145.46664429 C51.44888634 145.49567975 48.15552886 145.51742777 44.86134338 145.51791382 C41.67086654 145.52124392 38.48196654 145.55574865 35.29176331 145.59555054 C33.816605 145.58494598 33.816605 145.58494598 32.31164551 145.5741272 C30.9297982 145.59875031 30.9297982 145.59875031 29.52003479 145.62387085 C28.71428513 145.62751648 27.90853546 145.63116211 27.07836914 145.63491821 C23.34969455 146.64055287 22.06221572 148.17554692 19.73316956 151.26742554 C18.97761753 155.08179567 19.0588857 158.85282452 19.09825134 162.73068237 C19.09045139 163.9034062 19.08265144 165.07613002 19.07461512 166.28439093 C19.05812073 169.53601155 19.0640577 172.78669911 19.07954621 176.03829646 C19.09085443 179.54622668 19.07339972 183.05403031 19.05964661 186.56193542 C19.03740383 193.43246702 19.04221989 200.30272563 19.05670981 207.17326796 C19.06799802 212.75665315 19.06953478 218.33996178 19.06409073 223.9233551 C19.06332456 224.71776271 19.0625584 225.51217033 19.06176902 226.3306509 C19.0601704 227.94443359 19.05854934 229.55821627 19.05690606 231.17199892 C19.04264552 246.30738451 19.05904602 261.44261874 19.08590789 276.57797951 C19.10824698 289.56714801 19.10436694 302.5560931 19.08131409 315.54525757 C19.05456142 330.62616801 19.04401884 345.70694575 19.05937541 360.78787661 C19.06096816 362.39574971 19.06254002 364.00362283 19.06409073 365.61149597 C19.06486211 366.40261712 19.06563348 367.19373827 19.06642824 368.00883278 C19.07074685 373.5860448 19.06345524 379.16317271 19.05169296 384.7403717 C19.03767531 391.53642667 19.04145217 398.33219287 19.06809668 405.12821472 C19.08124512 408.5962869 19.08637056 412.06387748 19.06985092 415.53194618 C19.05624243 419.28983824 19.07325765 423.04636433 19.09825134 426.8041687 C19.08709773 427.90289606 19.07594413 429.00162341 19.06445253 430.13364553 C19.12477348 434.79049574 19.22193097 437.47450944 21.78412819 441.4484024 C25.45183254 443.71071013 28.36971551 443.93938505 32.55274963 443.83505249 C33.70964294 443.83614769 33.70964294 443.83614769 34.88990784 443.83726501 C37.42823178 443.8337935 39.96469923 443.79495616 42.50270081 443.75570679 C44.26674395 443.74637703 46.03080009 443.73926169 47.79486084 443.73426819 C52.42957052 443.71521101 57.06349214 443.66612163 61.69789124 443.61074829 C66.43024536 443.55952795 71.16272729 443.53674822 75.89527893 443.51156616 C85.17492135 443.45800135 94.45397983 443.37270431 103.73316956 443.26742554 C103.7364797 442.03643757 103.73978985 440.8054496 103.7432003 439.53715897 C103.82230419 410.28282687 103.91155664 381.02854385 104.01322117 351.77428235 C104.02573928 348.1696207 104.03817217 344.56495876 104.05055237 340.96029663 C104.05425136 339.88391098 104.05425136 339.88391098 104.05802508 338.78578016 C104.09769409 327.18325127 104.13046728 315.58071271 104.16066937 303.97815576 C104.19183896 292.06321812 104.2304717 280.14832133 104.27595961 268.23342967 C104.30128176 261.54508933 104.3229694 254.85677945 104.33651352 248.16840363 C104.34938084 241.86803985 104.37148557 235.56777481 104.40055275 229.26746559 C104.40959205 226.96010979 104.4153102 224.6527381 104.41738319 222.34536552 C104.44833397 193.11768583 110.40238967 178.33251409 130.83082581 157.72836304 C131.77136716 156.77746733 131.77136716 156.77746733 132.73090935 155.8073616 C136.04820924 152.45442651 139.37146326 149.10752785 142.69972229 145.76547241 C146.10499315 142.34366126 149.48877836 138.90140128 152.86808109 135.45396996 C155.4996633 132.77727964 158.14704523 130.11663142 160.79871941 127.45985794 C162.05192542 126.1988397 163.29934025 124.93203461 164.54034615 123.65900803 C176.53282595 111.3776576 188.95463581 103.20688546 206.69139099 102.9551239 C207.51930145 102.95296371 208.34721191 102.95080353 209.20021057 102.94857788 C210.0988533 102.93853226 210.99749603 102.92848663 211.92337036 102.9181366 C214.86126631 102.88751651 217.79907205 102.87032886 220.73707581 102.85336304 C222.78688319 102.83463432 224.836683 102.81505966 226.88647461 102.79467773 C232.25722269 102.74353049 237.62799572 102.70381194 242.99885559 102.66653442 C248.4891315 102.62638522 253.9793052 102.57534286 259.46949768 102.52523804 C270.22398298 102.42868504 280.97852624 102.34421471 291.73316956 102.26742554 C291.8784899 97.70526089 291.96725433 93.14369192 292.04566956 88.57992554 C292.08756409 87.28635132 292.12945862 85.9927771 292.17262268 84.66000366 C292.18873596 83.41283569 292.20484924 82.16566772 292.22145081 80.88070679 C292.24763489 79.73384399 292.27381897 78.5869812 292.30079651 77.40536499 C291.53780265 73.18740366 290.06145246 71.92143987 286.73316956 69.26742554 C283.99380625 68.77361953 281.87450217 68.58908679 279.14222717 68.63250732 C278.00792495 68.62080739 278.00792495 68.62080739 276.85070753 68.6088711 C274.3207959 68.58895229 271.79238878 68.60471404 269.26246643 68.62045288 C267.44719566 68.61367667 265.63193177 68.60477352 263.81668091 68.59390259 C258.88894112 68.57110305 253.96172457 68.57994832 249.0339756 68.59579802 C243.87798778 68.60845358 238.72204487 68.59671785 233.5660553 68.58886719 C224.90732272 68.57976964 216.24880336 68.59176136 207.59010315 68.61557007 C197.57826829 68.6427815 187.56694252 68.63396741 177.55511999 68.60643804 C168.96048801 68.58375103 160.36600931 68.58054491 151.77135706 68.59363139 C146.63756623 68.60142812 141.50401473 68.60246131 136.37023926 68.58594894 C131.54375302 68.57150943 126.71792337 68.58151644 121.8915081 68.61042023 C120.11980212 68.61703381 118.34804093 68.61512869 116.57635689 68.6041069 C114.15819508 68.59044985 111.74213935 68.60756622 109.32411194 68.63250732 C108.271336 68.61577691 108.271336 68.61577691 107.19729185 68.59870851 C102.04829185 68.70178921 99.88142767 70.28626433 96.73316956 74.26742554 Z M73.48878479 86.38241577 C72.58792648 87.28012192 71.68706818 88.17782806 70.75891113 89.10273743 C69.76973428 90.09370405 68.78068812 91.08480115 67.79176331 92.07601929 C66.78442805 93.08268154 65.77694433 94.08919526 64.76931763 95.0955658 C62.65513113 97.20827516 60.54277135 99.32279016 58.43165588 101.43856812 C55.71892999 104.1569913 53.0017407 106.87090167 50.28317165 109.58347988 C48.20109575 111.6619506 46.12139732 113.74278699 44.04242134 115.82435799 C43.04116909 116.82627962 42.03916715 117.82745262 41.03642082 118.82787895 C39.63792088 120.2238531 38.24294647 121.62335651 36.84815979 123.02304077 C35.65355385 124.2188401 35.65355385 124.2188401 34.43481445 125.438797 C32.61963095 126.97312108 32.61963095 126.97312108 32.73316956 128.26742554 C38.03505922 128.34181527 43.33664224 128.39614065 48.63893127 128.43222046 C50.44106847 128.44726793 52.24316929 128.46771083 54.04518127 128.4937439 C56.64178976 128.53030575 59.2379123 128.54719235 61.83473206 128.56039429 C62.63496796 128.57587814 63.43520386 128.591362 64.25968933 128.60731506 C69.13419973 128.60876775 72.56513759 128.07714334 76.73316956 125.26742554 C79.71861367 121.69687289 78.98325696 116.76270531 78.92848206 112.34555054 C78.92423721 111.05557159 78.92423721 111.05557159 78.91990662 109.73953247 C78.90873106 106.99868733 78.88363135 104.25817155 78.85816956 101.51742554 C78.84813636 99.65675318 78.8390111 97.79607569 78.83082581 95.93539429 C78.80880031 91.37927822 78.77428853 86.82340768 78.73316956 82.26742554 C76.6726331 82.26742554 74.81157334 85.06094735 73.48878479 86.38241577 Z M199.73316956 124.26742554 C198.52451177 126.68474112 198.60233066 128.22525061 198.59132385 130.92562866 C198.5842894 131.89423828 198.57725494 132.8628479 198.57000732 133.86080933 C198.56376091 135.4388031 198.56376091 135.4388031 198.55738831 137.04867554 C198.53417329 139.27524732 198.51005529 141.50180983 198.48512268 143.72836304 C198.45013209 147.2391667 198.42073795 150.74963351 198.40724182 154.2605896 C198.39166704 157.64870286 198.35137679 161.03582695 198.30738831 164.42367554 C198.30929672 165.45947754 198.31120514 166.49527954 198.31317139 167.56246948 C198.18359531 175.37137695 196.71338669 182.34272846 191.90895081 188.66976929 C191.29406799 189.17637085 190.67918518 189.68297241 190.04566956 190.20492554 C189.44367737 190.72957397 188.84168518 191.25422241 188.22145081 191.79476929 C180.82056635 196.17488458 173.49590817 196.68874393 165.05738831 196.63851929 C162.82626684 196.65588383 160.59514708 196.67346836 158.36402893 196.69125366 C154.8769384 196.70136403 151.38995196 196.70491061 147.90284729 196.70321655 C144.51654811 196.70677583 141.13104604 196.73405691 137.74488831 196.76351929 C136.70007797 196.75533676 135.65526764 196.74715424 134.57879639 196.73872375 C128.98621928 196.70462048 128.98621928 196.70462048 124.10743713 199.11141968 C121.9617465 202.47766484 121.60742268 205.14153267 121.60174179 209.03952503 C121.59790065 210.02759893 121.5940595 211.01567283 121.59010196 212.03368837 C121.59096844 213.12199549 121.59183492 214.21030262 121.59272766 215.33158875 C121.58975654 216.48556394 121.58678542 217.63953914 121.58372426 218.82848328 C121.57653713 222.03677551 121.57386441 225.24503515 121.57312679 228.45333421 C121.57127711 231.91151237 121.56373022 235.3696789 121.55699158 238.82785034 C121.5434043 246.3918823 121.53738296 253.95590897 121.53298092 261.51995111 C121.53021924 266.24194657 121.52598202 270.96393999 121.52147675 275.68593407 C121.5092837 288.75688835 121.49898437 301.827841 121.49560165 314.89880085 C121.49538209 315.7355201 121.49516252 316.57223935 121.4949363 317.43431373 C121.49471802 318.27304695 121.49449975 319.11178018 121.49427485 319.97592956 C121.49383139 321.67555257 121.49338482 323.37517558 121.49293518 325.07479858 C121.49271375 325.9178722 121.49249232 326.76094581 121.49226418 327.62956711 C121.48831562 341.2923513 121.47086001 354.95508216 121.44757566 368.61784575 C121.42386907 382.64142572 121.41140012 396.66497893 121.41023374 410.68857926 C121.4093166 418.56384731 121.40355457 426.43904589 121.38541412 434.31429482 C121.37002249 441.01989135 121.36488711 447.72539694 121.37315223 454.43100778 C121.37706205 457.85251569 121.37611314 461.27384042 121.36209488 464.69532585 C121.34944912 468.40447996 121.35521249 472.11316105 121.36567688 475.8223114 C121.35762048 476.90392636 121.34956407 477.98554132 121.34126353 479.09993249 C121.37729408 484.54508675 121.55526081 488.61138472 124.73316956 493.26742554 C127.07912984 494.44040568 128.46052806 494.39577103 131.07546043 494.40164661 C132.45193294 494.40833338 132.45193294 494.40833338 133.85621297 494.41515523 C134.87097821 494.41497087 135.88574345 494.41478651 136.93125916 494.41459656 C138.00412001 494.41827325 139.07698087 494.42194993 140.18235266 494.42573804 C143.80134716 494.43680994 147.42031297 494.44062462 151.0393219 494.44442749 C153.62422783 494.45068938 156.20913284 494.45733594 158.79403687 494.46434021 C166.56784845 494.48411309 174.34166136 494.49417125 182.11549181 494.503068 C185.77400799 494.507449 189.43252272 494.51281625 193.09103775 494.51805687 C205.24835853 494.53506894 217.4056784 494.54956439 229.56300926 494.55680561 C232.71868771 494.55871558 235.87436614 494.5606359 239.03004456 494.56259155 C240.20657172 494.56331716 240.20657172 494.56331716 241.4068671 494.56405743 C254.12050696 494.57236253 266.83405288 494.5977076 279.54765169 494.63017223 C292.59259938 494.66321218 305.63749927 494.68125153 318.68248904 494.68444985 C326.01000266 494.68661765 333.33737923 494.69540573 340.66485214 494.72091103 C347.55455606 494.74483686 354.44400913 494.74846302 361.33374596 494.73814964 C363.86701591 494.7376519 366.40029765 494.74404183 368.93353081 494.75770569 C372.38302572 494.77527558 375.83161879 494.76839153 379.28111267 494.75517273 C380.29141647 494.76614198 381.30172026 494.77711122 382.34263933 494.78841287 C383.72693508 494.77554153 383.72693508 494.77554153 385.1391964 494.76241016 C386.33368922 494.76387538 386.33368922 494.76387538 387.55231321 494.76537019 C390.68110815 494.05098718 391.83588226 492.82890824 393.73316956 490.26742554 C394.33268939 487.36600318 394.33268939 487.36600318 394.23932743 484.08886051 C394.25037512 482.81254043 394.26142281 481.53622034 394.27280527 480.22122389 C394.26484767 478.80189435 394.25650996 477.3825669 394.24783325 475.96324158 C394.25315645 474.45779375 394.26022082 472.95235124 394.26888031 471.4469189 C394.28756498 467.30392131 394.28118279 463.16127975 394.27072728 459.01826704 C394.26375169 454.55259197 394.2797207 450.08699127 394.29272461 445.62133789 C394.31439759 436.87042671 394.31422926 428.1196454 394.30609906 419.36871619 C394.29980613 412.2578569 394.3009296 405.14703556 394.30737114 398.03617668 C394.30872362 396.51964476 394.30872362 396.51964476 394.31010343 394.97247584 C394.31195458 392.91876562 394.31381714 390.86505541 394.31569099 388.81134521 C394.33228101 369.54038079 394.3235401 350.26948952 394.30670541 330.99852949 C394.29200802 313.35818009 394.30663529 295.71800102 394.33547557 278.07767356 C394.36485057 259.97583552 394.37584735 241.87407614 394.36629337 223.77221531 C394.36527079 221.72564027 394.36427618 219.67906522 394.36330986 217.63249016 C394.36259528 216.12196505 394.36259528 216.12196505 394.36186625 214.58092429 C394.35969958 207.47736149 394.36951968 200.37387294 394.38408089 193.27032661 C394.40157484 184.61511108 394.40152924 175.96011273 394.37872923 167.30490584 C394.36756011 162.88701923 394.36448458 158.46951568 394.38302994 154.05164528 C394.39978065 150.00934757 394.39355805 145.96776859 394.36881315 141.92551791 C394.36391152 140.46122761 394.36749534 138.99687993 394.38030059 137.53263742 C394.396426 135.54575562 394.37887996 133.55868523 394.35958195 131.5718317 C394.35931226 130.46711523 394.35904257 129.36239876 394.35876471 128.22420603 C393.52251985 124.2718217 391.84564343 122.76054563 388.73316956 120.26742554 C386.0050041 119.77562088 383.90064519 119.59310405 381.18019104 119.63923645 C380.05201415 119.62859487 380.05201415 119.62859487 378.9010458 119.61773831 C376.38492923 119.60015889 373.87035762 119.61826142 371.35426331 119.63632202 C369.5488464 119.63118315 367.74343451 119.62390212 365.93803406 119.61463928 C361.03713558 119.59611292 356.1367806 119.60907167 351.23590469 119.62872958 C346.10795196 119.64510717 340.9800339 119.63630443 335.85206604 119.63121033 C327.24040539 119.62668838 318.62896188 119.64256553 310.01734924 119.67050171 C300.06009849 119.70255403 290.10323937 119.70253818 280.14596081 119.68528694 C270.56870804 119.66942506 260.9915989 119.67615325 251.41435242 119.69322395 C247.33787718 119.70009788 243.26151696 119.69905848 239.18504333 119.691679 C234.38489047 119.6840198 229.58518348 119.69613038 224.78510666 119.72352791 C223.0230784 119.73041666 221.26100853 119.73050446 219.49898148 119.72331238 C217.09420551 119.71462758 214.69080868 119.7305557 212.28614807 119.75276184 C211.23920855 119.74040069 211.23920855 119.74040069 210.17111874 119.72778982 C205.44524482 119.8083836 203.05847948 120.93830634 199.73316956 124.26742554 Z M175.58058167 138.2906189 C174.69974411 139.16830429 173.81890656 140.04598969 172.91137695 140.95027161 C171.94429482 141.9191435 170.97734339 142.88814588 170.01051331 143.85726929 C169.02559829 144.84151129 168.04053482 145.82560477 167.05532837 146.80955505 C164.98822024 148.87518607 162.92293902 150.94262243 160.85890198 153.01132202 C158.20671005 155.66921124 155.55005528 158.32258708 152.89202023 160.97463131 C150.85626739 163.00677891 148.82289223 165.0412921 146.79023933 167.07653999 C145.81131577 168.05613293 144.83164254 169.03497728 143.8512249 170.01307487 C142.48385793 171.37791596 141.12001659 172.74628649 139.75636292 174.11483765 C138.97772385 174.89427231 138.19908478 175.67370697 137.39685059 176.47676086 C135.61972732 177.98215295 135.61972732 177.98215295 135.73316956 179.26742554 C141.05336978 179.34172469 146.37326625 179.396098 151.69386292 179.43222046 C153.50283572 179.44728309 155.31177216 179.4677373 157.12062073 179.4937439 C159.7246347 179.53023873 162.32816476 179.54717711 164.93238831 179.56039429 C165.73778549 179.57587814 166.54318268 179.591362 167.37298584 179.60731506 C171.99031959 179.60869097 174.99338342 179.27588745 178.73316956 176.26742554 C181.35519937 172.33438082 180.98465482 169.00117485 180.92848206 164.44320679 C180.92565216 163.58180588 180.92282227 162.72040497 180.91990662 161.832901 C180.90871193 159.08176785 180.88360877 156.33096029 180.85816956 153.57992554 C180.84813883 151.71469586 180.83901314 149.84946109 180.83082581 147.98422241 C180.80877493 143.41183134 180.77425004 138.83968364 180.73316956 134.26742554 C178.68946739 134.26742554 176.89765167 136.97489326 175.58058167 138.2906189 Z " fill="#000000" transform="translate(100.26683044433594,-0.267425537109375)"/>
<path d="M0 0 C1.0202014 -0.00445668 1.0202014 -0.00445668 2.06101292 -0.0090034 C4.35100558 -0.0177083 6.64094607 -0.01920015 8.93095398 -0.02069092 C10.56843681 -0.02531785 12.20591856 -0.03034234 13.84339905 -0.03573608 C18.30008536 -0.04887464 22.75675659 -0.05530794 27.21345925 -0.05974674 C29.99651751 -0.06267528 32.77957162 -0.06677968 35.56262779 -0.07125092 C44.26632141 -0.08493003 52.97000559 -0.09459451 61.67370921 -0.09845281 C71.72787851 -0.10293394 81.78191188 -0.12048267 91.83603984 -0.1494534 C99.60255123 -0.1710571 107.36902434 -0.18115639 115.13556546 -0.18249393 C119.77640737 -0.18354295 124.41712157 -0.18947131 129.0579319 -0.20731354 C133.42374864 -0.22377144 137.78934139 -0.22596087 142.15517807 -0.21717453 C143.75758018 -0.21640291 145.35999421 -0.22076327 146.9623661 -0.23063278 C149.15030863 -0.24331855 151.3374538 -0.23749451 153.52539062 -0.22705078 C155.36185386 -0.22925062 155.36185386 -0.22925062 157.23541737 -0.2314949 C160.7546747 0.17529242 162.62247032 1.05463424 165.45317078 3.14044189 C167.55418673 5.81446219 167.45164053 7.18328874 167.32817078 10.64044189 C166.3430096 14.58108658 165.63887614 15.70969422 162.45317078 18.14044189 C159.31999302 18.64659977 159.31999302 18.64659977 155.55194092 18.65510559 C154.51080026 18.66552388 154.51080026 18.66552388 153.44862646 18.67615265 C151.12307273 18.69444761 148.79853629 18.68415221 146.47294617 18.67388916 C144.80560542 18.68094644 143.13827109 18.68969065 141.47094727 18.69999695 C136.94196249 18.72252279 132.41332665 18.71954374 127.88430715 18.71067548 C124.10436927 18.70556971 120.3244972 18.71285483 116.54456609 18.72014755 C107.62773077 18.73715685 98.71106653 18.73357052 89.79423523 18.71685791 C80.59300878 18.69993534 71.39225669 18.71577059 62.19108206 18.74808079 C54.29286373 18.77476562 46.39479317 18.7820557 38.49653429 18.77356571 C33.77853809 18.76863325 29.06082734 18.7708692 24.3428669 18.79135323 C19.90626502 18.80969302 15.4703461 18.80377284 11.03378105 18.77915382 C9.40558591 18.77414046 7.77733888 18.77764939 6.14918518 18.79030228 C3.92579792 18.80621388 1.7046649 18.79130435 -0.51861572 18.76863098 C-2.38436705 18.76775152 -2.38436705 18.76775152 -4.28781033 18.76685429 C-8.43684981 17.96937203 -9.92398017 16.37752256 -12.54682922 13.14044189 C-13.45421064 10.11395855 -13.01116055 8.39076119 -12.54682922 5.14044189 C-8.80816207 0.28017459 -5.91540456 0.01438575 0 0 Z " fill="#000000" transform="translate(302.5468292236328,314.85955810546875)"/>
<path d="M0 0 C1.04348064 -0.01064158 1.04348064 -0.01064158 2.1080417 -0.02149814 C4.43306277 -0.03906451 6.75640894 -0.02098269 9.08140564 -0.00291443 C10.75051636 -0.00805378 12.41962166 -0.01533518 14.0887146 -0.02459717 C18.61767259 -0.04311616 23.14604211 -0.03017019 27.67497563 -0.01050687 C32.41368502 0.00587417 37.15235699 -0.00293238 41.89108276 -0.00802612 C49.84784857 -0.01254725 57.80437931 0.00332502 65.76109314 0.03126526 C74.9628842 0.06332827 84.16425153 0.06329725 93.36607271 0.04605049 C102.21611224 0.0301935 111.06599627 0.03691291 119.91602898 0.0539875 C123.68352327 0.06086379 127.45089313 0.05981967 131.2183857 0.05244255 C135.65330469 0.04478806 140.08774069 0.05687822 144.52257729 0.08429146 C146.15118221 0.09118478 147.77983217 0.09126311 149.40843582 0.08407593 C151.62968382 0.075402 153.84943406 0.09129947 156.07055664 0.11352539 C157.31401383 0.11633231 158.55747103 0.11913923 159.83860874 0.12203121 C163.57249631 0.72523242 164.73531351 1.62837461 166.9717865 4.62818909 C168.03613754 8.53080957 168.36918235 10.68698838 166.7842865 14.44068909 C164.82288623 16.80789631 163.8135037 17.54547581 160.9717865 18.62818909 C157.90107822 18.88266468 157.90107822 18.88266468 154.22241211 18.8888855 C153.54465255 18.89271105 152.86689299 18.89653659 152.16859525 18.90047807 C149.89856764 18.91079313 147.62879366 18.90681883 145.35874939 18.90284729 C143.73082241 18.90719459 142.10289747 18.9123778 140.47497559 18.91833496 C136.05350711 18.93173412 131.63212406 18.93230263 127.21063924 18.92977166 C123.52019036 18.9287026 119.82975881 18.93358366 116.13931364 18.93837708 C107.43347437 18.94947539 98.72767825 18.94990782 90.02183533 18.94386292 C81.03884947 18.93782152 72.05602019 18.9501376 63.07306105 18.97143298 C55.36170326 18.98904207 47.65039534 18.99505145 39.93901819 18.99179524 C35.33286848 18.98998117 30.72683045 18.9926309 26.12069893 19.00650978 C21.78931358 19.01907229 17.45817253 19.01715904 13.126791 19.00409889 C11.53729292 19.00173013 9.94777773 19.00447852 8.35829926 19.01272202 C6.18796337 19.02316623 4.01845074 19.01510842 1.84814453 19.00241089 C0.63380769 19.00257863 -0.58052916 19.00274637 -1.83166409 19.0029192 C-6.31569769 18.47725787 -8.8801646 16.77623799 -12.0282135 13.62818909 C-12.66336579 8.09329061 -12.66336579 8.09329061 -12.0282135 5.62818909 C-8.26104226 0.96115394 -5.94274135 0.00280125 0 0 Z " fill="#000000" transform="translate(302.02821350097656,417.37181091308594)"/>
<path d="M0 0 C5.921713 3.41267551 10.65077296 8.30146089 13.08984375 14.80078125 C15.02776717 23.56147639 14.06048702 32.17913778 9.5625 39.9375 C5.25576222 46.17445963 -0.10310281 49.95401311 -6.4375 53.9375 C-7.8889694 54.91711362 -9.32720596 55.91668495 -10.75 56.9375 C-11.36488281 57.370625 -11.97976562 57.80375 -12.61328125 58.25 C-15.05782868 60.51133724 -16.67116502 63.13008017 -18.4375 65.9375 C-17.64577393 65.91131592 -16.85404785 65.88513184 -16.03833008 65.8581543 C-12.44242283 65.75405878 -8.84683269 65.689131 -5.25 65.625 C-4.00412109 65.58310547 -2.75824219 65.54121094 -1.47460938 65.49804688 C8.83364508 65.35986652 8.83364508 65.35986652 11.890625 68.203125 C14.43623287 72.36650237 14.25111643 74.11718501 13.5625 78.9375 C11.69234906 81.36869623 10.28111655 82.57819173 7.5625 83.9375 C4.63148854 84.07332508 1.72544862 84.15026479 -1.20703125 84.17578125 C-2.08018478 84.183853 -2.95333832 84.19192474 -3.85295105 84.20024109 C-5.7031353 84.21408364 -7.55334512 84.22480503 -9.40356445 84.23266602 C-12.22852197 84.2498692 -15.05230621 84.29375166 -17.87695312 84.33789062 C-19.67447056 84.34801847 -21.47199795 84.35653429 -23.26953125 84.36328125 C-24.11240189 84.38078934 -24.95527252 84.39829742 -25.82368469 84.41633606 C-29.89478486 84.40133565 -31.92512076 84.26114949 -35.44799805 82.03588867 C-39.07273315 78.21276949 -38.71736057 75.02231074 -38.64453125 69.9375 C-37.96385273 60.07408303 -33.48090268 50.81913316 -26.3671875 43.93359375 C-21.49825014 40.03320844 -16.17092123 36.8068782 -10.8203125 33.61328125 C-8.38596056 31.90125341 -6.96326841 30.48044735 -5.4375 27.9375 C-4.94351791 23.9856433 -4.8289431 21.85033535 -7.0625 18.5 C-10.17293691 16.45365993 -11.77427666 16.33942272 -15.4375 16.9375 C-18.4121961 18.89644621 -20.45689125 20.96055986 -22.75 23.6875 C-25.50125942 25.99087998 -26.11646882 26.33082344 -29.5 26.5 C-33.4375 25.9375 -33.4375 25.9375 -35.875 24.0625 C-38.49788283 20.49537936 -39.01425216 18.38673097 -38.4375 13.9375 C-34.75390003 7.11400485 -28.77433212 1.66156851 -21.578125 -1.19921875 C-14.35121844 -3.18571919 -6.86326784 -3.15648022 0 0 Z " fill="#000000" transform="translate(174.4375,164.0625)"/>
<path d="M0 0 C1.13824219 -0.01998047 2.27648437 -0.03996094 3.44921875 -0.06054688 C12.02182714 -0.05562575 19.26652012 1.06008786 26.03125 6.62109375 C26.94390625 7.73677734 26.94390625 7.73677734 27.875 8.875 C28.5040625 9.61621094 29.133125 10.35742188 29.78125 11.12109375 C33.75006691 16.88949676 34.9722854 23.73387747 34.09375 30.65234375 C33.33939601 33.92749731 32.2665726 36.63112036 30.625 39.5625 C29.05009921 42.41626884 29.05009921 42.41626884 30.0625 45.5625 C30.79742869 47.1723438 31.55892456 48.77272854 32.41015625 50.32421875 C35.06894624 56.14772232 34.83078166 63.17514095 33.234375 69.26953125 C30.39165412 76.44094074 24.9215533 81.76170172 18.03515625 85.015625 C12.21851018 87.13696668 6.30768492 86.91271543 0.1875 86.875 C-0.97458984 86.89498047 -2.13667969 86.91496094 -3.33398438 86.93554688 C-4.45482422 86.93490234 -5.57566406 86.93425781 -6.73046875 86.93359375 C-7.74262451 86.93544678 -8.75478027 86.9372998 -9.79760742 86.93920898 C-13.37728 86.30401106 -15.04980046 84.95940176 -17.625 82.4375 C-18.93658768 78.66668541 -18.81155908 76.94808275 -17.4375 73.1875 C-15.51552699 70.27140302 -14.78111346 69.6514705 -11.625 68.4375 C-9.21484375 68.16625977 -9.21484375 68.16625977 -6.5625 68.12890625 C-5.60085937 68.10376953 -4.63921875 68.07863281 -3.6484375 68.05273438 C-1.63287683 68.01757925 0.38275573 67.9863289 2.3984375 67.95898438 C3.36007812 67.93255859 4.32171875 67.90613281 5.3125 67.87890625 C6.62541016 67.85872437 6.62541016 67.85872437 7.96484375 67.83813477 C10.85046535 67.35846448 12.24660174 66.41304827 14.375 64.4375 C15.12322019 61.70869694 14.9299302 59.20058995 14.375 56.4375 C12.13694745 53.63993431 9.67310825 53.23648689 6.3125 52.5 C3.69578938 51.89089604 2.4973834 51.53693652 0.375 49.8125 C-1.09712227 46.31620961 -1.38572375 43.11676966 -0.625 39.4375 C2.93457345 34.32061317 6.59863381 33.66852886 12.375 32.4375 C14.95490801 29.85759199 14.69098838 27.93505539 14.8359375 24.41015625 C14.53311919 22.28731028 14.53311919 22.28731028 12.66040039 20.83959961 C9.98732868 19.19966255 8.46046017 19.05664886 5.34765625 19.03125 C4.39052734 19.00933594 3.43339844 18.98742187 2.44726562 18.96484375 C1.45404297 18.95582031 0.46082031 18.94679687 -0.5625 18.9375 C-12.79528539 18.82593062 -12.79528539 18.82593062 -16.625 15.4375 C-18.1652467 11.82126861 -18.87771313 9.54943778 -18 5.6875 C-13.76273697 -1.24620313 -7.2894776 -0.04449737 0 0 Z " fill="#000000" transform="translate(256.625,212.5625)"/>
<path d="M0 0 C2.90379252 3.76313867 3.36923465 6.56859643 3.34057617 11.2590332 C3.34023628 13.12039665 3.34023628 13.12039665 3.33988953 15.0193634 C3.32457212 16.36317307 3.30892417 17.70697901 3.29296875 19.05078125 C3.28736898 20.4336857 3.28310068 21.81659612 3.28010559 23.19950867 C3.26868664 26.82789731 3.2392455 30.45592199 3.20599365 34.08416748 C3.17522872 37.79108762 3.16158659 41.49806694 3.14648438 45.20507812 C3.11437241 52.47021747 3.06321247 59.73505761 3 67 C3.81984375 66.95359375 4.6396875 66.9071875 5.484375 66.859375 C6.56203125 66.82328125 7.6396875 66.7871875 8.75 66.75 C9.81734375 66.70359375 10.8846875 66.6571875 11.984375 66.609375 C15 67 15 67 17.33203125 68.80078125 C19.6669508 71.87937541 19.93274087 74.16622968 20 78 C18.83492224 80.75939469 17.87313508 82.37485272 15.43554688 84.12011719 C11.7552628 85.44968252 8.08288703 85.28470552 4.21875 85.265625 C3.36825073 85.26753845 2.51775146 85.2694519 1.64147949 85.27142334 C-0.15389299 85.27278229 -1.94927539 85.26910614 -3.74462891 85.26074219 C-6.49013373 85.25003846 -9.23498424 85.26064721 -11.98046875 85.2734375 C-13.72656394 85.27211585 -15.47265873 85.26955335 -17.21875 85.265625 C-18.03863403 85.26967346 -18.85851807 85.27372192 -19.70324707 85.27789307 C-27.01451034 85.21784517 -27.01451034 85.21784517 -30 83 C-32.47264309 79.29103536 -32.76100945 76.298449 -32 72 C-30.25 69 -30.25 69 -27 67 C-23.04 67 -19.08 67 -15 67 C-15.33 55.12 -15.66 43.24 -16 31 C-16.99 31.66 -17.98 32.32 -19 33 C-23.90487343 33.55377603 -25.89979388 33.75639171 -30 30.9375 C-32 28 -32 28 -32.75 24.6875 C-31.64978497 19.27810943 -28.84617949 16.82795115 -25 13 C-23.85147328 11.80602429 -22.70446246 10.61058936 -21.55859375 9.4140625 C-20.31138216 8.12876437 -19.0626699 6.84492085 -17.8125 5.5625 C-17.20647949 4.934646 -16.60045898 4.30679199 -15.97607422 3.65991211 C-15.39229004 3.07218018 -14.80850586 2.48444824 -14.20703125 1.87890625 C-13.42549683 1.08335327 -13.42549683 1.08335327 -12.62817383 0.27172852 C-8.44169099 -2.99823536 -4.69254603 -1.87701841 0 0 Z " fill="#000000" transform="translate(66,112)"/>
<path d="M0 0 C0.73397003 -0.01022186 1.46794006 -0.02044373 2.22415161 -0.03097534 C4.64065522 -0.05868558 7.05601306 -0.05686143 9.47265625 -0.05224609 C11.15747499 -0.06002359 12.84228983 -0.06869368 14.52709961 -0.07821655 C18.05432869 -0.09312242 21.58115732 -0.09257174 25.10839844 -0.08203125 C29.62491908 -0.07043217 34.13980188 -0.10433045 38.65605164 -0.1507206 C42.13400831 -0.18020479 45.61157062 -0.18193794 49.08963013 -0.17570114 C50.75460052 -0.17672677 52.41959321 -0.18718782 54.08444214 -0.20732498 C56.41414483 -0.2320505 58.74065958 -0.21848724 61.0703125 -0.1953125 C61.75513702 -0.21059998 62.43996155 -0.22588745 63.14553833 -0.24163818 C65.88580583 -0.18148987 67.95862612 0.06590285 70.09396362 1.85635757 C72.00068885 4.06030322 73.42063819 5.86817252 73.91015625 8.77978516 C73.35824626 11.66006542 72.87320068 14.07298108 71.16015625 16.48681641 C67.43507229 18.92244823 63.88965978 18.68733262 59.57275391 18.71044922 C58.51612801 18.71789658 58.51612801 18.71789658 57.43815613 18.72549438 C55.10850039 18.74009581 52.77891273 18.74691443 50.44921875 18.75244141 C48.82880654 18.7581943 47.20839435 18.76395201 45.58798218 18.76971436 C42.19016198 18.78021844 38.7923654 18.78606505 35.39453125 18.78955078 C31.04436078 18.79503585 26.69450325 18.81906648 22.34443092 18.84752274 C18.99694918 18.86616168 15.64954265 18.87135537 12.3020134 18.87288666 C10.69846256 18.87591062 9.09491296 18.88393055 7.49141312 18.89707184 C5.2461501 18.91415991 3.00164962 18.91224581 0.75634766 18.90576172 C-0.52033783 18.90940735 -1.79702332 18.91305298 -3.11239624 18.91680908 C-6.71547391 18.52184252 -8.59817772 17.72557751 -11.46484375 15.54931641 C-12.60847487 13.26205417 -12.72986307 11.72079214 -12.83984375 9.17431641 C-12.88882812 8.40345703 -12.9378125 7.63259766 -12.98828125 6.83837891 C-11.54491277 0.52633467 -5.51862326 -0.03992828 0 0 Z " fill="#000000" transform="translate(396.46484375,451.45068359375)"/>
<path d="M0 0 C0.68330383 -0.0049649 1.36660767 -0.00992981 2.07061768 -0.01504517 C4.33053598 -0.02964623 6.59038407 -0.03646571 8.8503418 -0.04199219 C10.42351788 -0.04774581 11.99669394 -0.05350352 13.56987 -0.05926514 C16.86933722 -0.0697696 20.16878012 -0.07561574 23.46826172 -0.07910156 C27.68830182 -0.08458187 31.90801855 -0.10860211 36.12795734 -0.13707352 C39.37854438 -0.15573356 42.6290541 -0.16090731 45.87969017 -0.16243744 C47.43496657 -0.16545745 48.99024181 -0.17346396 50.54546547 -0.18662262 C52.7258701 -0.20375241 54.90549216 -0.20178635 57.0859375 -0.1953125 C58.32487259 -0.19895813 59.56380768 -0.20260376 60.84028625 -0.20635986 C65.19158534 0.26440163 68.83460289 1.45379305 71.67456055 4.91113281 C72.52147818 8.29880336 72.07920049 10.79257305 71.23706055 14.16113281 C69.64855957 16.34753418 69.64855957 16.34753418 67.23706055 18.16113281 C64.61059429 18.55614225 62.40212187 18.70909194 59.77807617 18.67871094 C59.0328923 18.68572021 58.28770844 18.69272949 57.51994324 18.69995117 C55.06068479 18.71753323 52.60258036 18.70590855 50.14331055 18.69238281 C48.43224873 18.69507769 46.72118841 18.69896007 45.01013184 18.70397949 C41.4256328 18.70987479 37.84153271 18.7013108 34.25708008 18.68261719 C29.66339615 18.65982732 25.070647 18.67295027 20.47699738 18.69690704 C16.94420331 18.71136433 13.41163071 18.70675942 9.87882996 18.69639587 C8.18515411 18.69372838 6.49145812 18.69699917 4.79780579 18.70631409 C2.43001078 18.71647893 0.06372738 18.70098161 -2.30395508 18.67871094 C-3.00329666 18.68680786 -3.70263824 18.69490479 -4.423172 18.70324707 C-7.79736075 18.64447929 -9.49921084 18.36640209 -12.19592285 16.26745605 C-14.48439741 13.19137686 -14.32251661 11.00272218 -14.1574707 7.28613281 C-13.76293945 5.16113281 -13.76293945 5.16113281 -11.95043945 2.66113281 C-7.99672977 -0.0499824 -4.67775761 0.02582976 0 0 Z " fill="#000000" transform="translate(397.762939453125,348.8388671875)"/>
<path d="M0 0 C1.1177758 -0.01051392 1.1177758 -0.01051392 2.25813293 -0.02124023 C4.71739138 -0.03882229 7.17549581 -0.02719761 9.63476562 -0.01367188 C11.34582744 -0.01636675 13.05688776 -0.02024913 14.76794434 -0.02526855 C18.35244337 -0.03116386 21.93654346 -0.02259986 25.52099609 -0.00390625 C30.11468002 0.01888362 34.70742917 0.00576066 39.3010788 -0.01819611 C42.83387286 -0.03265339 46.36644546 -0.02804848 49.89924622 -0.01768494 C51.59292207 -0.01501744 53.28661805 -0.01828823 54.98027039 -0.02760315 C57.34806539 -0.037768 59.71434879 -0.02227067 62.08203125 0 C62.78137283 -0.00809692 63.48071442 -0.01619385 64.20124817 -0.02453613 C67.51582805 0.03319345 69.27257773 0.3149329 71.9486084 2.33508301 C74.19581264 5.41501897 74.47461215 7.73258016 74.54101562 11.51757812 C73.27724541 14.67700365 72.39381123 16.08024643 69.35595703 17.63812256 C65.98966778 18.68983248 63.15480749 18.77175599 59.62695312 18.77636719 C58.95150452 18.77987183 58.27605591 18.78337646 57.58013916 18.7869873 C55.35865854 18.7957534 53.13749921 18.78997377 50.91601562 18.78320312 C49.36572204 18.78455125 47.81542886 18.78649302 46.26513672 18.78900146 C43.02046675 18.79194578 39.77590711 18.7876774 36.53125 18.77832031 C32.37848121 18.76692614 28.22597098 18.77348932 24.07321167 18.78546524 C20.87327131 18.79270256 17.67339194 18.79038732 14.47344971 18.78520966 C12.94248422 18.78387834 11.41151315 18.7855027 9.8805542 18.79016876 C7.73858025 18.79526486 5.59702128 18.78748089 3.45507812 18.77636719 C2.23771973 18.774776 1.02036133 18.77318481 -0.23388672 18.77154541 C-4.18688968 18.46025765 -7.07805374 17.56007499 -10.24414062 15.16992188 C-11.80995991 13.04020626 -11.89205434 11.70708833 -11.89648438 9.08007812 C-11.91582031 8.31824219 -11.93515625 7.55640625 -11.95507812 6.77148438 C-10.55585782 0.41439686 -5.63590759 -0.06525211 0 0 Z " fill="#000000" transform="translate(395.458984375,383.482421875)"/>
<path d="M0 0 C1.63630371 -0.00717545 1.63630371 -0.00717545 3.30566406 -0.01449585 C5.60873865 -0.01789363 7.91186155 -0.00869993 10.21484375 0.01220703 C13.73807417 0.0389719 17.25811856 0.01245249 20.78125 -0.01953125 C23.02084036 -0.01622713 25.26042874 -0.00982087 27.5 0 C29.0782959 -0.01518173 29.0782959 -0.01518173 30.68847656 -0.03067017 C37.99157047 0.08624209 37.99157047 0.08624209 41.91381836 3.07446289 C44.75197222 7.07716174 44.43822294 8.84650193 43.75 13.6640625 C41.87984906 16.09525873 40.46861655 17.30475423 37.75 18.6640625 C36.2292324 18.76394473 34.70420409 18.802379 33.18017578 18.80932617 C32.23224152 18.81570602 31.28430725 18.82208588 30.30764771 18.82865906 C29.28057709 18.82977188 28.25350647 18.8308847 27.1953125 18.83203125 C25.61567215 18.83702385 25.61567215 18.83702385 24.00411987 18.84211731 C21.77309609 18.84718693 19.5420647 18.84952562 17.31103516 18.84936523 C13.89603164 18.85154905 10.48135245 18.86969721 7.06640625 18.88867188 C4.90104277 18.8916063 2.73567776 18.89359077 0.5703125 18.89453125 C-0.96422073 18.90530952 -0.96422073 18.90530952 -2.52975464 18.91630554 C-3.48399323 18.91322891 -4.43823181 18.91015228 -5.42138672 18.90698242 C-6.25918671 18.90840744 -7.09698669 18.90983246 -7.96017456 18.91130066 C-10.52607288 18.63425422 -12.08353311 18.05709168 -14.25 16.6640625 C-16.36212504 13.49587494 -16.58156464 11.53186998 -16.80859375 7.796875 C-14.6045583 -0.61853308 -7.08895003 -0.06818908 0 0 Z " fill="#000000" transform="translate(323.25,451.3359375)"/>
<path d="M0 0 C0.90458954 -0.00960754 1.80917908 -0.01921509 2.74118042 -0.02911377 C3.71620514 -0.03336365 4.69122986 -0.03761353 5.69580078 -0.04199219 C7.20317307 -0.0505423 7.20317307 -0.0505423 8.74099731 -0.05926514 C10.86768542 -0.06871296 12.99438815 -0.07524825 15.12109375 -0.07910156 C18.37151661 -0.08880866 21.62130755 -0.11983504 24.87158203 -0.15136719 C26.93798453 -0.15789724 29.00439154 -0.16314771 31.07080078 -0.16699219 C32.52726517 -0.18551239 32.52726517 -0.18551239 34.01315308 -0.20440674 C40.327023 -0.18360459 43.9257803 0.57079983 48.51611328 5.16113281 C48.85205078 7.18457031 48.85205078 7.18457031 48.89111328 9.53613281 C48.91947266 10.30699219 48.94783203 11.07785156 48.97705078 11.87207031 C48.33910074 15.04019508 46.98349315 16.12196216 44.51611328 18.16113281 C42.13258362 18.67579651 42.13258362 18.67579651 39.4597168 18.69458008 C38.45509903 18.71041641 37.45048126 18.72625275 36.41542053 18.74256897 C35.3361882 18.7376091 34.25695587 18.73264923 33.14501953 18.72753906 C31.47329933 18.73683693 31.47329933 18.73683693 29.76780701 18.74632263 C27.41170119 18.75342421 25.05554523 18.75024099 22.69946289 18.73754883 C19.09508807 18.72369613 15.49331515 18.75773709 11.88916016 18.79589844 C9.59944598 18.79684974 7.30972855 18.7949902 5.02001953 18.79003906 C3.94281143 18.80329727 2.86560333 18.81655548 1.75575256 18.83021545 C-5.72326883 18.73720275 -5.72326883 18.73720275 -9.66357422 15.75292969 C-12.47901479 11.74424982 -12.17127441 9.97284664 -11.48388672 5.16113281 C-8.30652068 0.88812331 -5.14677136 0.04417941 0 0 Z " fill="#000000" transform="translate(318.48388671875,348.8388671875)"/>
<path d="M0 0 C1.70857178 -0.00361794 1.70857178 -0.00361794 3.45166016 -0.00730896 C5.85908491 -0.00632978 8.26653197 0.00708047 10.67382812 0.03198242 C14.36145419 0.06628026 18.04668359 0.05264571 21.734375 0.03320312 C24.07292688 0.0401016 26.41147257 0.04977398 28.75 0.0625 C29.85424316 0.05754013 30.95848633 0.05258026 32.09619141 0.04747009 C33.63799072 0.07122459 33.63799072 0.07122459 35.2109375 0.09545898 C36.56517822 0.10475685 36.56517822 0.10475685 37.94677734 0.11424255 C41.134807 0.78994794 42.34741953 2.13322919 44.375 4.62890625 C45.10877162 7.69348184 44.94334762 10.53709519 44.375 13.62890625 C42.06865817 16.9236803 40.21986345 17.88103518 36.375 18.62890625 C34.90585603 18.72166521 33.43323238 18.76676432 31.96118164 18.77416992 C30.66447289 18.7837397 30.66447289 18.7837397 29.34156799 18.79350281 C28.41545212 18.79461563 27.48933624 18.79572845 26.53515625 18.796875 C25.09649452 18.8018676 25.09649452 18.8018676 23.62876892 18.80696106 C21.60220824 18.81201904 19.57563925 18.81436973 17.54907227 18.81420898 C14.45249698 18.81639566 11.35627792 18.83456392 8.25976562 18.85351562 C6.28906372 18.85644975 4.31836012 18.85843442 2.34765625 18.859375 C0.96151878 18.87015327 0.96151878 18.87015327 -0.45262146 18.88114929 C-5.85667011 18.86198633 -10.28660488 18.80603275 -14.4375 14.94140625 C-16.14333914 11.61950899 -16.07752566 9.31375807 -15.625 5.62890625 C-12.34209497 -1.14331769 -6.62951428 -0.07959795 0 0 Z " fill="#000000" transform="translate(322.625,383.37109375)"/>
<path d="M0 0 C0.75474609 -0.01095703 1.50949219 -0.02191406 2.28710938 -0.03320312 C5.86321082 0.01405813 8.01483096 0.24482944 10.90625 2.41796875 C12.92522484 5.24556362 13.367991 7.08705013 13.4375 10.5625 C12.30586199 13.65961456 11.50758381 15.84178145 8.7265625 17.71484375 C5.73776317 18.82161756 3.18311074 18.86396031 0 18.875 C-1.66869141 18.90013672 -1.66869141 18.90013672 -3.37109375 18.92578125 C-6.91074621 18.52285875 -8.73449023 17.69223576 -11.5625 15.5625 C-14.06281654 11.81202518 -14.09853554 10.00393734 -13.5625 5.5625 C-9.56812586 0.16617886 -6.26729725 -0.19904721 0 0 Z " fill="#000000" transform="translate(260.5625,417.4375)"/>
<path d="M0 0 C1.06154297 -0.03673828 1.06154297 -0.03673828 2.14453125 -0.07421875 C5.81904602 -0.09474677 7.93325827 0.25497069 11.0703125 2.21875 C13.72133276 5.00080928 14.125 6.5464743 14.125 10.375 C13.00005215 13.45380465 12.19682889 15.64216816 9.4453125 17.5234375 C6.30074307 18.67750507 3.53186915 18.71430769 0.1875 18.75 C-1.62041016 18.79253906 -1.62041016 18.79253906 -3.46484375 18.8359375 C-7.45226303 18.29697361 -9.04832147 17.17565018 -11.875 14.375 C-13.2649408 11.5951184 -13.05988204 9.4563674 -12.875 6.375 C-10.59461914 0.06009916 -5.9965567 0.01080461 0 0 Z " fill="#000000" transform="translate(276.875,451.625)"/>
<path d="M0 0 C1.12148438 -0.02578125 2.24296875 -0.0515625 3.3984375 -0.078125 C6.98133403 0.28623736 8.79900016 1.04805398 11.625 3.25 C13.1652467 6.86623139 13.87771313 9.13806222 13 13 C11.38559633 15.64175147 10.31573675 16.69748414 7.625 18.25 C4.8750581 18.59699582 2.4324848 18.76000906 -0.3125 18.75 C-1.36727539 18.79253906 -1.36727539 18.79253906 -2.44335938 18.8359375 C-6.39874382 18.85076556 -8.1965881 18.38897348 -11.34375 15.9375 C-13.375 13.25 -13.375 13.25 -13.9375 9.75 C-13.29088349 5.72660837 -12.27481674 4.06696483 -9.375 1.25 C-6.07164934 0.14888311 -3.47667863 0.04773472 0 0 Z " fill="#000000" transform="translate(260.375,314.75)"/>
<path d="M0 0 C2.88611628 2.14608646 3.70288659 3.3026804 4.4375 6.8125 C4.29835053 10.22166201 3.88758104 12.17546222 1.9140625 14.96875 C-1.5954983 17.58154605 -4.86427363 17.36047964 -9.0625 17.25 C-9.82175781 17.25708984 -10.58101563 17.26417969 -11.36328125 17.27148438 C-14.60051629 17.23463319 -17.12406167 17.03518782 -20.03125 15.55859375 C-22.40085561 12.85651797 -22.48596863 10.53029671 -22.73046875 7.0390625 C-22.47068874 3.59546697 -21.12331125 2.02725568 -18.5625 -0.1875 C-12.65817064 -2.17686367 -5.83589747 -1.94529916 0 0 Z " fill="#000000" transform="translate(286.5625,350.1875)"/>
<path d="M0 0 C0.75474609 -0.01095703 1.50949219 -0.02191406 2.28710938 -0.03320312 C5.86321082 0.01405813 8.01483096 0.24482944 10.90625 2.41796875 C12.92522484 5.24556362 13.367991 7.08705013 13.4375 10.5625 C12.20833134 14.32231 11.39233693 16.05014848 7.875 17.9375 C0.87873456 19.20954826 -5.43668167 19.69742738 -11.5625 15.5625 C-14.06281654 11.81202518 -14.09853554 10.00393734 -13.5625 5.5625 C-9.56812586 0.16617886 -6.26729725 -0.19904721 0 0 Z " fill="#000000" transform="translate(277.5625,383.4375)"/>
</svg>
