<?xml version="1.0" encoding="UTF-8"?>
<svg version="1.1" xmlns="http://www.w3.org/2000/svg" width="512" height="512">
<path d="M0 0 C5.9415436 4.96124868 7.78878468 8.62425914 10.625 16.1875 C10.625 23.7775 10.625 31.3675 10.625 39.1875 C34.055 39.1875 57.485 39.1875 81.625 39.1875 C81.625 31.9275 81.625 24.6675 81.625 17.1875 C84.61029897 8.23160308 87.20419429 2.59754621 95.3125 -2.25 C101.18818523 -5.02154964 106.39887995 -5.05814503 112.8125 -5.125 C113.72064453 -5.15400391 114.62878906 -5.18300781 115.56445312 -5.21289062 C123.41741518 -5.28596758 129.65618926 -3.25975099 135.9375 1.5 C140.57527349 6.13777349 143.45464763 11.20015559 143.73852539 17.84472656 C143.73328857 18.82924805 143.72805176 19.81376953 143.72265625 20.828125 C143.71943359 21.89804687 143.71621094 22.96796875 143.71289062 24.0703125 C143.70451172 25.18148437 143.69613281 26.29265625 143.6875 27.4375 C143.68298828 28.56414063 143.67847656 29.69078125 143.67382812 30.8515625 C143.66205397 33.63026217 143.6456084 36.40885409 143.625 39.1875 C144.86475586 39.17178955 146.10451172 39.1560791 147.38183594 39.13989258 C152.03362388 39.08510566 156.68538399 39.05097451 161.33740234 39.02270508 C163.34103205 39.00772858 165.34462961 38.98734019 167.34814453 38.96118164 C185.1883275 38.73428655 200.70254194 39.67291262 214.5 52.5 C225.10045248 64.08054298 228.23495063 77.09127171 228.13293457 92.40698242 C228.13755098 93.926569 228.14390884 95.44615111 228.15184355 96.96572399 C228.16845858 101.11553671 228.16032643 105.26497893 228.14789867 109.41479254 C228.13881826 113.9002206 228.1528327 118.38558661 228.16381836 122.8710022 C228.18157631 131.64770585 228.17777575 140.42427243 228.1661678 149.20098138 C228.15712302 156.33593381 228.15591399 163.47084792 228.16026306 170.60580444 C228.16087599 171.62247104 228.16148893 172.63913763 228.16212043 173.68661231 C228.16339937 175.7521484 228.16469623 177.81768448 228.1660108 179.88322055 C228.17740862 199.23785757 228.16431541 218.59241873 228.14280933 237.9470433 C228.12493908 254.54318404 228.12804342 271.13921285 228.14648438 287.73535156 C228.16790518 307.02217736 228.17631006 326.30893671 228.16403532 345.59577274 C228.16276116 347.65358034 228.16150368 349.71138794 228.16026306 351.76919556 C228.15933741 353.28779538 228.15933741 353.28779538 228.15839306 354.83707398 C228.15494379 361.96092813 228.16075937 369.08474004 228.17018127 376.20858765 C228.18141607 384.89381651 228.17833008 393.57890082 228.1570583 402.26411319 C228.14656782 406.692866 228.14239179 411.12137807 228.15565491 415.55012894 C228.16762629 419.60902795 228.16093871 423.66746441 228.1397447 427.72632182 C228.13529864 429.18983526 228.13749974 430.65338827 228.14724785 432.11687601 C228.23597357 446.55132027 224.40253808 459.05689879 214.5 469.875 C201.48904241 481.97090123 186.47914475 483.64357934 169.5456543 483.56845093 C167.83617956 483.5719129 166.12670707 483.57668107 164.41723919 483.58263266 C159.7472057 483.59509822 155.07735731 483.5889926 150.40732336 483.57967401 C145.36021038 483.57286557 140.31312847 483.58337362 135.26602173 483.59161377 C125.38957475 483.60493417 115.51319628 483.6020809 105.63674664 483.59337585 C97.60795357 483.58659305 89.57917965 483.58568516 81.55038452 483.5889473 C80.40647552 483.589407 79.26256652 483.58986669 78.08399361 483.59034032 C75.75996279 483.59129953 73.43593197 483.59227217 71.11190116 483.5932581 C49.3336739 483.60180703 27.55548456 483.59198564 5.77726352 483.575857 C-12.89818445 483.56245428 -31.57357647 483.56478251 -50.24902344 483.57861328 C-71.95080454 483.59467785 -93.65255243 483.60098311 -115.35433865 483.59177649 C-117.66968727 483.59082087 -119.98503589 483.58987776 -122.30038452 483.5889473 C-124.0090544 483.58825306 -124.0090544 483.58825306 -125.75224286 483.58754479 C-133.76880684 483.58495754 -141.7853497 483.5893202 -149.8019104 483.59638596 C-159.57511224 483.60481089 -169.34824181 483.6024999 -179.1214354 483.58654372 C-184.10520163 483.57867442 -189.0888475 483.57554656 -194.07261276 483.58549118 C-198.63968969 483.59446632 -203.20653529 483.58945894 -207.7735914 483.57355852 C-209.42080851 483.57022264 -211.06804538 483.57187778 -212.71524966 483.57918589 C-228.81018465 483.64508551 -243.00153068 481.26203851 -255.25 469.875 C-265.85045248 458.29445702 -268.98495063 445.28372829 -268.88293457 429.96801758 C-268.88755098 428.448431 -268.89390884 426.92884889 -268.90184355 425.40927601 C-268.91845858 421.25946329 -268.91032643 417.11002107 -268.89789867 412.96020746 C-268.88881826 408.4747794 -268.9028327 403.98941339 -268.91381836 399.5039978 C-268.93157631 390.72729415 -268.92777575 381.95072757 -268.9161678 373.17401862 C-268.90712302 366.03906619 -268.90591399 358.90415208 -268.91026306 351.76919556 C-268.91087599 350.75252896 -268.91148893 349.73586237 -268.91212043 348.68838769 C-268.91339937 346.6228516 -268.91469623 344.55731552 -268.9160108 342.49177945 C-268.92740862 323.13714243 -268.91431541 303.78258127 -268.89280933 284.4279567 C-268.87493908 267.83181596 -268.87804342 251.23578715 -268.89648438 234.63964844 C-268.91790518 215.35282264 -268.92631006 196.06606329 -268.91403532 176.77922726 C-268.91276116 174.72141966 -268.91150368 172.66361206 -268.91026306 170.60580444 C-268.90964596 169.59340456 -268.90902886 168.58100468 -268.90839306 167.53792602 C-268.90494379 160.41407187 -268.91075937 153.29025996 -268.92018127 146.16641235 C-268.93141607 137.48118349 -268.92833008 128.79609918 -268.9070583 120.11088681 C-268.89656782 115.682134 -268.89239179 111.25362193 -268.90565491 106.82487106 C-268.91762629 102.76597205 -268.91093871 98.70753559 -268.8897447 94.64867818 C-268.88529864 93.18516474 -268.88749974 91.72161173 -268.89724785 90.25812399 C-268.98597357 75.82367973 -265.15253808 63.31810121 -255.25 52.5 C-240.59237482 38.87324076 -223.93554165 38.75440334 -205.125 39 C-203.10808292 39.01507581 -201.09115493 39.02875909 -199.07421875 39.04101562 C-194.17420572 39.07378759 -189.27472564 39.12540964 -184.375 39.1875 C-184.40118408 38.51283691 -184.42736816 37.83817383 -184.4543457 37.14306641 C-184.55942935 34.0331225 -184.62367417 30.92355352 -184.6875 27.8125 C-184.72939453 26.75160156 -184.77128906 25.69070312 -184.81445312 24.59765625 C-184.94197175 16.28344179 -183.33430272 9.57379184 -177.64770508 3.27392578 C-170.69150623 -3.41336718 -162.67029072 -4.31951451 -153.4375 -4.25 C-152.49970703 -4.26998047 -151.56191406 -4.28996094 -150.59570312 -4.31054688 C-142.80011582 -4.30512951 -136.70333234 -2.535681 -130.625 2.4375 C-120.65454408 14.6236128 -122.375 21.4646019 -122.375 39.1875 C-98.945 39.1875 -75.515 39.1875 -51.375 39.1875 C-51.375 31.5975 -51.375 24.0075 -51.375 16.1875 C-46.85774086 4.89435214 -46.85774086 4.89435214 -42.9375 1.6875 C-41.82568359 0.74390625 -41.82568359 0.74390625 -40.69140625 -0.21875 C-30.20854025 -7.43124465 -10.39974517 -7.46402375 0 0 Z M-33.6875 14.125 C-36.42845046 17.47505056 -36.50628807 20.32189177 -36.53613281 24.49755859 C-36.54574036 25.5823349 -36.5553479 26.66711121 -36.56524658 27.78475952 C-36.56949646 28.95664825 -36.57374634 30.12853699 -36.578125 31.3359375 C-36.58382507 32.54061676 -36.58952515 33.74529602 -36.59539795 34.98648071 C-36.60485005 37.53687664 -36.61138276 40.08728478 -36.61523438 42.63769531 C-36.62494384 46.53992998 -36.65596779 50.4416389 -36.6875 54.34375 C-36.69402965 56.82030937 -36.69928027 59.29687251 -36.703125 61.7734375 C-36.7154718 62.94127777 -36.7278186 64.10911804 -36.74053955 65.31234741 C-36.73753845 66.40342804 -36.73453735 67.49450867 -36.73144531 68.61865234 C-36.73509094 69.57556976 -36.73873657 70.53248718 -36.74249268 71.5184021 C-36.150164 75.82048304 -33.82053351 79.53708961 -30.375 82.1875 C-24.584994 84.117502 -17.10920754 84.17499181 -11.4375 81.875 C-7.42294431 79.66289789 -5.82471497 78.5366449 -4.375 74.1875 C-4.27219815 72.41965222 -4.22652355 70.64823045 -4.21386719 68.87744141 C-4.20425964 67.7926651 -4.1946521 66.70788879 -4.18475342 65.59024048 C-4.1783786 63.83240738 -4.1783786 63.83240738 -4.171875 62.0390625 C-4.16332489 60.23204361 -4.16332489 60.23204361 -4.15460205 58.38851929 C-4.14514995 55.83812336 -4.13861724 53.28771522 -4.13476562 50.73730469 C-4.12505616 46.83507002 -4.09403221 42.9333611 -4.0625 39.03125 C-4.05597035 36.55469063 -4.05071973 34.07812749 -4.046875 31.6015625 C-4.0345282 30.43372223 -4.0221814 29.26588196 -4.00946045 28.06265259 C-4.01246155 26.97157196 -4.01546265 25.88049133 -4.01855469 24.75634766 C-4.01490906 23.79943024 -4.01126343 22.84251282 -4.00750732 21.8565979 C-4.56469239 17.80976488 -6.31002771 15.14941045 -9.3125 12.4375 C-16.33589312 8.18089811 -27.47731272 8.92187011 -33.6875 14.125 Z M98.625 14.1875 C96.85028115 17.75268998 96.3699496 20.65867447 96.3503418 24.61694336 C96.34080978 25.67832016 96.33127777 26.73969696 96.32145691 27.83323669 C96.32236832 28.96979202 96.32327972 30.10634735 96.32421875 31.27734375 C96.31993362 32.4546254 96.3156485 33.63190704 96.31123352 34.84486389 C96.30549618 37.33203489 96.30498555 39.81922266 96.30932617 42.30639648 C96.3124855 46.1075508 96.28902047 49.90792627 96.26367188 53.70898438 C96.26139875 56.12760319 96.26069545 58.54622409 96.26171875 60.96484375 C96.252509 62.09937485 96.24329926 63.23390594 96.23381042 64.40281677 C96.26683256 70.04645196 96.31900387 74.37027707 99.625 79.1875 C103.62120325 82.57000061 107.59019946 82.6461037 112.625 82.5625 C113.32367188 82.57410156 114.02234375 82.58570312 114.7421875 82.59765625 C119.2260822 82.57227571 122.09472397 81.97389644 125.625 79.1875 C128.55413365 75.99495664 129.00282004 73.87304079 129.01318359 69.58032227 C129.02264008 68.45557999 129.03209656 67.33083771 129.0418396 66.17201233 C129.03576691 64.96153732 129.02969421 63.75106232 129.0234375 62.50390625 C129.02774277 60.63242165 129.02774277 60.63242165 129.03213501 58.72312927 C129.03417681 56.0842264 129.03014824 53.44615684 129.01611328 50.80737305 C128.99903869 47.43351414 129.00885432 44.06037215 129.02683067 40.68653965 C129.04031233 37.45896991 129.03085671 34.23148537 129.0234375 31.00390625 C129.02951019 29.79545547 129.03558289 28.5870047 129.0418396 27.3419342 C129.03238312 26.21403976 129.02292664 25.08614532 129.01318359 23.92407227 C129.00960342 22.43992577 129.00960342 22.43992577 129.00595093 20.92579651 C128.41987521 16.71305158 126.70356476 14.06611692 123.43359375 11.40234375 C119.8262049 9.84198501 116.54969643 9.71055324 112.6875 9.75 C111.99720703 9.73001953 111.30691406 9.71003906 110.59570312 9.68945312 C105.46876475 9.69431278 102.47429195 10.83155992 98.625 14.1875 Z M-167.98547363 15.94021606 C-169.73062078 18.76264625 -169.76717875 20.56422928 -169.79492188 23.87060547 C-169.81083374 25.01214081 -169.82674561 26.15367615 -169.84313965 27.32980347 C-169.84334106 28.5590152 -169.84354248 29.78822693 -169.84375 31.0546875 C-169.85136353 32.32216827 -169.85897705 33.58964905 -169.86682129 34.89553833 C-169.8776297 37.57732456 -169.88184077 40.25822967 -169.87597656 42.93994141 C-169.87008709 46.36558516 -169.90064204 49.78980832 -169.94109344 53.21517754 C-169.97326417 56.49498696 -169.96885409 59.7747447 -169.96875 63.0546875 C-169.98514526 64.27985077 -170.00154053 65.50501404 -170.01843262 66.76730347 C-170.09374951 73.82589254 -170.09374951 73.82589254 -167.02539062 79.94580078 C-162.78925332 83.52872384 -158.87681775 83.42772913 -153.5625 83.5 C-152.86318359 83.52900391 -152.16386719 83.55800781 -151.44335938 83.58789062 C-146.32965782 83.65007783 -143.3477485 82.67330474 -139.375 79.1875 C-137.60115494 75.62179159 -137.11995068 72.71654442 -137.1003418 68.75805664 C-137.09080978 67.69667984 -137.08127777 66.63530304 -137.07145691 65.54176331 C-137.07282402 63.83693031 -137.07282402 63.83693031 -137.07421875 62.09765625 C-137.06779106 60.33173378 -137.06779106 60.33173378 -137.06123352 58.53013611 C-137.05549618 56.04296511 -137.05498555 53.55577734 -137.05932617 51.06860352 C-137.0624855 47.2674492 -137.03902047 43.46707373 -137.01367188 39.66601562 C-137.01139875 37.24739681 -137.01069545 34.82877591 -137.01171875 32.41015625 C-137.002509 31.27562515 -136.99329926 30.14109406 -136.98381042 28.97218323 C-137.01683256 23.32854804 -137.06900387 19.00472293 -140.375 14.1875 C-144.37120325 10.80499939 -148.34019946 10.7288963 -153.375 10.8125 C-154.07367188 10.80089844 -154.77234375 10.78929687 -155.4921875 10.77734375 C-160.96330651 10.80831235 -164.28080189 11.90833529 -167.98547363 15.94021606 Z M-247.375 67.1875 C-259.17035952 84.16197139 -253.375 100.46167979 -253.375 123.1875 C-99.595 123.1875 54.185 123.1875 212.625 123.1875 C215.84493223 90.92035728 215.84493223 90.92035728 203.61328125 64.0078125 C195.04105324 56.15976093 187.1287116 53.85914732 175.75390625 53.9921875 C174.831577 53.9950174 173.90924774 53.99784729 172.95896912 54.00076294 C170.03500987 54.01189026 167.11136549 54.03698088 164.1875 54.0625 C162.19596799 54.07253943 160.20443114 54.0816636 158.21289062 54.08984375 C153.3501405 54.11180517 148.4876235 54.14628327 143.625 54.1875 C143.62089111 54.86216309 143.61678223 55.53682617 143.61254883 56.23193359 C143.57928292 59.34296161 143.50860492 62.45211565 143.4375 65.5625 C143.42879883 67.15384766 143.42879883 67.15384766 143.41992188 68.77734375 C143.1947993 76.93178362 141.6864827 84.27782547 135.60668945 90.13037109 C128.53472756 95.86818727 121.65159779 96.5506115 112.8125 96.5625 C111.86568359 96.58699219 110.91886719 96.61148438 109.94335938 96.63671875 C102.03739923 96.66936552 95.96523831 94.93391817 89.8125 89.875 C80.79605261 78.79765035 82.34715656 69.35278785 81.625 54.1875 C58.195 54.1875 34.765 54.1875 10.625 54.1875 C10.295 61.7775 9.965 69.3675 9.625 77.1875 C5.78325578 86.79186055 3.75391197 90.89881553 -4.9375 95.5625 C-15.20977571 98.19641685 -28.93416944 99.16291738 -38.59765625 94 C-44.77210762 89.75290074 -48.56112445 84.44300222 -50.375 77.1875 C-50.705 69.5975 -51.035 62.0075 -51.375 54.1875 C-74.805 54.1875 -98.235 54.1875 -122.375 54.1875 C-122.705 61.4475 -123.035 68.7075 -123.375 76.1875 C-126.37837389 85.19762167 -128.88581821 91.29565419 -137.5 95.6875 C-142.86763427 97.54011953 -148.31288451 97.60520289 -153.9375 97.6875 C-154.8238916 97.70619141 -155.7102832 97.72488281 -156.62353516 97.74414062 C-164.89414433 97.66430553 -172.42526697 95.13723303 -178.375 89.1875 C-182.14587695 83.72931539 -183.44792413 79.08610907 -183.69140625 72.546875 C-183.73330078 71.47695312 -183.77519531 70.40703125 -183.81835938 69.3046875 C-183.85767578 68.19351563 -183.89699219 67.08234375 -183.9375 65.9375 C-183.98068359 64.81085938 -184.02386719 63.68421875 -184.06835938 62.5234375 C-184.17432015 59.74491046 -184.27639142 56.96629609 -184.375 54.1875 C-190.15497948 54.08782535 -195.93444688 54.01565417 -201.71508789 53.96777344 C-203.67709074 53.94779082 -205.63903505 53.92059516 -207.60083008 53.88574219 C-223.88549 53.60390027 -235.92400273 54.27160038 -247.375 67.1875 Z M-253.375 138.1875 C-253.4575 188.14125 -253.54 238.095 -253.625 289.5625 C-253.66141602 305.34239746 -253.69783203 321.12229492 -253.73535156 337.38037109 C-253.74872832 351.51081673 -253.74872832 351.51081673 -253.7567749 365.64126587 C-253.76050532 371.94088712 -253.77517907 378.2403665 -253.79730225 384.53994751 C-253.82278633 391.80730612 -253.83433848 399.07452865 -253.8287798 406.34193227 C-253.82637286 410.05857092 -253.83015578 413.77490551 -253.85186052 417.49148822 C-253.87498664 421.47575281 -253.86695888 425.4596149 -253.85601807 429.44393921 C-253.86766872 430.59732599 -253.87931938 431.75071278 -253.89132309 432.93905067 C-253.81698172 443.01364527 -251.37140214 450.9656033 -244.359375 458.3671875 C-233.56718847 468.26710664 -222.92491571 468.4836029 -208.91506958 468.44819641 C-207.2241222 468.45121864 -205.53317619 468.45510848 -203.84223258 468.45978898 C-199.20494463 468.47006848 -194.567734 468.46788727 -189.93043971 468.46360838 C-184.92556217 468.46114109 -179.92070324 468.47015537 -174.91583252 468.47764587 C-165.11438764 468.49039472 -155.31297015 468.49218634 -145.51151837 468.48984561 C-137.54459064 468.48806252 -129.57767122 468.4898119 -121.61074448 468.49407005 C-120.47681752 468.49466524 -119.34289056 468.49526043 -118.17460217 468.49587366 C-115.87102176 468.49708541 -113.56744134 468.49829954 -111.26386093 468.49951603 C-89.66121837 468.51039226 -68.05859142 468.50822867 -46.45594798 468.50213119 C-26.69502118 468.49696181 -6.93414366 468.5082179 12.82677339 468.52722941 C33.1198423 468.54660315 53.41288789 468.55486463 73.70596611 468.55110615 C85.0979583 468.54919343 96.48990852 468.55168868 107.88189316 468.56582069 C117.57985313 468.57772952 127.27774531 468.57914493 136.9757062 468.56703053 C141.92274567 468.56113842 146.86966112 468.56005167 151.81669235 468.57203293 C156.34804481 468.58287984 160.87916952 468.5798025 165.41051127 468.56577124 C167.04704747 468.56312105 168.68360144 468.56550099 170.3201202 468.57350711 C183.99403513 468.63574259 194.07234319 467.26500921 204.3125 457.59375 C211.98141637 449.46469864 213.21499196 440.23209015 213.10601807 429.44393921 C213.10944214 428.1969928 213.11286621 426.95004639 213.11639404 425.66531372 C213.12183644 422.2229143 213.10939379 418.78143649 213.08929092 415.33914873 C213.07174764 411.56314135 213.07767438 407.78715494 213.08056259 404.01111794 C213.08268404 396.69060105 213.06426565 389.37028139 213.03855728 382.0498151 C213.00969668 373.57721756 213.00657499 365.10473758 213.00341797 356.63208008 C212.98243788 334.27552225 212.92659317 311.91900814 212.875 289.5625 C212.7925 239.60875 212.71 189.655 212.625 138.1875 C58.845 138.1875 -94.935 138.1875 -253.375 138.1875 Z " fill="#000000" transform="translate(276.375,16.8125)"/>
<path d="M0 0 C0.89136154 -0.0071553 1.78272308 -0.01431061 2.70109558 -0.02168274 C4.15675179 -0.02571609 4.15675179 -0.02571609 5.64181519 -0.02983093 C7.18404503 -0.03968773 7.18404503 -0.03968773 8.75743103 -0.04974365 C12.16143875 -0.06945985 15.56540235 -0.08113661 18.9694519 -0.09111023 C20.13378628 -0.09518576 21.29812065 -0.09926128 22.49773788 -0.10346031 C28.66246106 -0.12431556 34.82716203 -0.13861873 40.99191284 -0.147995 C47.34705743 -0.15904813 53.7018508 -0.19343742 60.05687141 -0.23316669 C64.95380283 -0.25936311 69.85065101 -0.26768963 74.74764633 -0.27127647 C77.08950035 -0.27613587 79.43135081 -0.28773127 81.77313614 -0.30631447 C85.05906919 -0.33076568 88.3440995 -0.32972938 91.63009644 -0.32279968 C92.58838852 -0.33560974 93.5466806 -0.3484198 94.53401184 -0.36161804 C102.18965733 -0.30309052 108.8384693 1.49705173 115.1100769 6.00654602 C122.67639823 14.0023965 125.67052626 20.91735469 125.62179565 31.97920227 C125.618573 33.27148743 125.61535034 34.56377258 125.61203003 35.8952179 C125.60367605 37.25003628 125.59521112 38.60485399 125.5866394 39.95967102 C125.5816194 41.33401837 125.57705737 42.70836747 125.57296753 44.0827179 C125.56119608 47.43758026 125.54475224 50.79235323 125.5241394 54.14717102 C127.11282837 54.12360535 127.11282837 54.12360535 128.73361206 54.0995636 C132.68079966 54.0450698 136.6279543 54.01075056 140.57540894 53.9823761 C142.28054403 53.96733364 143.98564073 53.94689449 145.69064331 53.92085266 C148.14825952 53.88426818 150.60536209 53.86739929 153.0632019 53.85420227 C153.81969025 53.83871841 154.57617859 53.82323456 155.35559082 53.80728149 C160.14860451 53.80577369 163.35730208 54.53171638 167.5241394 57.14717102 C171.689728 61.76309351 172.64902296 64.23221756 172.68527222 70.38520813 C172.69487976 71.69674362 172.7044873 73.00827911 172.71438599 74.35955811 C172.7192332 75.79787523 172.72351221 77.23619437 172.7272644 78.67451477 C172.73301522 80.14420576 172.73877296 81.61389671 172.74453735 83.08358765 C172.75504692 86.16622772 172.76089008 89.24884172 172.76437378 92.33149719 C172.76986287 96.283951 172.79389956 100.23606106 172.82234573 104.18840694 C172.84095604 107.22441623 172.84617681 110.26034237 172.84770966 113.29640388 C172.85073965 114.75368189 172.85877988 116.21095832 172.87189484 117.66818047 C172.88892217 119.70529767 172.88523509 121.74255632 172.88058472 123.77973938 C172.88605316 125.51942238 172.88605316 125.51942238 172.89163208 127.29425049 C172.5241394 130.14717102 172.5241394 130.14717102 171.15029907 131.990448 C168.88161186 133.60421495 167.30953279 134.01453324 164.5241394 134.14717102 C161.03779339 132.52561474 159.68111746 131.3826381 157.5241394 128.14717102 C157.28363037 125.54653931 157.28363037 125.54653931 157.29708862 122.39057922 C157.29731522 120.61908257 157.29731522 120.61908257 157.29754639 118.8117981 C157.31303024 116.89919441 157.31303024 116.89919441 157.3288269 114.94795227 C157.3316568 113.64263046 157.33448669 112.33730865 157.33740234 110.99243164 C157.34503193 107.52521587 157.36467447 104.05816814 157.3868103 100.59101868 C157.40728335 97.05181696 157.41651679 93.51258723 157.42648315 89.9733429 C157.44685945 83.03113728 157.48600697 76.08939288 157.5241394 69.14717102 C142.6741394 69.14717102 127.8241394 69.14717102 112.5241394 69.14717102 C112.5241394 87.29717102 112.5241394 105.44717102 112.5241394 124.14717102 C115.4941394 124.64217102 115.4941394 124.64217102 118.5241394 125.14717102 C121.36311325 127.22908517 123.17725835 128.76984918 124.0553894 132.25654602 C124.3048224 134.21043781 124.42411192 136.17996375 124.5241394 138.14717102 C125.31433472 137.93060852 126.10453003 137.71404602 126.91867065 137.49092102 C148.43851031 132.17859489 169.46667588 134.85489875 188.65597534 146.00556946 C207.13101565 157.29533534 219.31033567 174.12656503 224.83273315 194.92842102 C229.22388276 215.370835 226.41332463 236.77762055 215.89523315 254.96357727 C203.29985865 273.63746198 186.09376632 286.3024628 164.1647644 291.46357727 C142.50658712 295.53029511 120.84511702 291.6467651 102.5241394 279.14717102 C84.23760672 266.01072305 73.00215984 247.40660928 69.1491394 225.33467102 C66.83231009 205.61934461 71.19938366 187.0843548 81.5241394 170.14717102 C82.2460144 169.31314758 82.9678894 168.47912415 83.7116394 167.61982727 C86.14861105 164.70250311 86.14861105 164.70250311 86.5241394 158.14717102 C61.7741394 158.14717102 37.0241394 158.14717102 11.5241394 158.14717102 C11.5241394 160.78717102 11.5241394 163.42717102 11.5241394 166.14717102 C10.30054491 170.22581933 9.26156197 172.49636634 6.0632019 175.31904602 C1.27437987 177.79274217 -2.66684118 177.7360249 -7.9758606 177.64717102 C-9.36224731 177.67037415 -9.36224731 177.67037415 -10.77664185 177.69404602 C-16.48370253 177.66138759 -20.02900398 177.07169844 -24.4758606 173.14717102 C-27.69437827 167.56840705 -27.4758606 165.00938824 -27.4758606 158.14717102 C-34.4058606 158.14717102 -41.3358606 158.14717102 -48.4758606 158.14717102 C-48.1458606 186.19717102 -47.8158606 214.24717102 -47.4758606 243.14717102 C-39.22070435 243.17295227 -30.9655481 243.19873352 -22.4602356 243.22529602 C-16.57359107 243.25365421 -10.68700147 243.28451414 -4.80039406 243.31899452 C2.8294319 243.36335163 10.45913805 243.40176268 18.08908081 243.41816711 C24.7741357 243.43256089 31.45878665 243.46764616 38.14369965 243.51548004 C40.69699795 243.53034332 43.25034663 243.53821485 45.80368805 243.53905487 C49.37397619 243.54141131 52.94327826 243.56838605 56.51339722 243.60127258 C57.57435104 243.59624222 58.63530487 243.59121185 59.72840881 243.58602905 C66.85293509 243.68788858 66.85293509 243.68788858 70.17715454 245.96253967 C72.19213363 249.23056933 72.12711015 251.39535306 71.5241394 255.14717102 C69.364395 257.70264593 67.58934638 258.97534617 64.25073814 259.5138855 C61.33567503 259.6698263 58.44603806 259.68737249 55.52682495 259.66474915 C54.41728455 259.67175842 53.30774414 259.6787677 52.1645813 259.68598938 C48.49641899 259.70359486 44.82902834 259.69193435 41.16085815 259.67842102 C38.60883944 259.68111575 36.05682172 259.68499802 33.50480652 259.6900177 C28.15412685 259.69591674 22.80372315 259.68772089 17.45309448 259.6686554 C11.28238009 259.64692049 5.11219509 259.6539145 -1.05850631 259.67596102 C-7.00925012 259.69636475 -12.95983073 259.69412171 -18.91060448 259.68243408 C-21.43550885 259.67977009 -23.96042677 259.68302498 -26.48531532 259.69235229 C-30.0206913 259.70254356 -33.55506121 259.68697732 -37.09036255 259.66474915 C-38.6484388 259.67689453 -38.6484388 259.67689453 -40.23799133 259.68928528 C-47.52108396 259.60471844 -52.99844365 258.21548009 -58.53445435 253.33076477 C-58.98949341 252.75455383 -59.44453247 252.1783429 -59.9133606 251.58467102 C-60.38644653 251.00588196 -60.85953247 250.4270929 -61.34695435 249.83076477 C-64.06293132 245.78029392 -63.57383096 241.52037289 -63.50662231 236.85884094 C-63.49051429 235.10487212 -63.47481725 233.35089949 -63.45947266 231.59692383 C-63.4451652 230.20029794 -63.4451652 230.20029794 -63.4305687 228.77545738 C-63.3788743 222.78835316 -63.38478258 216.8009618 -63.37920952 210.81367016 C-63.37101925 205.56295018 -63.34349603 200.3137193 -63.27371216 195.06343079 C-63.20722385 189.97589519 -63.19535323 184.89072013 -63.21896744 179.80283546 C-63.21836139 177.87449507 -63.19855018 175.94605143 -63.15819931 174.01813316 C-62.93102787 162.57143381 -63.61576555 155.83041557 -71.5142498 147.31388187 C-77.59291842 140.42255611 -76.96340118 132.99637214 -76.7258606 124.21748352 C-76.71800919 122.53031298 -76.71434816 120.84311835 -76.71463013 119.15592957 C-76.70385803 115.646802 -76.65684929 112.14082167 -76.58035278 108.63252258 C-76.48365944 104.15345406 -76.45787871 99.67751895 -76.45645142 95.19751167 C-76.45119114 91.72439146 -76.41938026 88.25193356 -76.37857056 84.77906418 C-76.3602615 83.12782407 -76.34754438 81.47651142 -76.34072876 79.82518387 C-76.23316217 63.98456332 -76.23316217 63.98456332 -71.9229126 58.52416992 C-67.0345409 53.87244873 -62.16107792 53.72758605 -55.7961731 53.85420227 C-54.57702713 53.86056953 -54.57702713 53.86056953 -53.33325195 53.86706543 C-50.75544101 53.88376298 -48.1784324 53.9213974 -45.6008606 53.95967102 C-43.84566361 53.97472944 -42.09045428 53.98841582 -40.3352356 54.00068665 C-36.04847147 54.0336371 -31.76230173 54.08535649 -27.4758606 54.14717102 C-27.49680786 53.22492737 -27.51775513 52.30268372 -27.53933716 51.35249329 C-27.60799741 47.89145171 -27.65789288 44.43114626 -27.69558716 40.96968079 C-27.71555518 39.47900384 -27.7427398 37.98840372 -27.77761841 36.4980011 C-28.05059664 24.52308824 -26.80793124 15.94047632 -18.40945435 6.87373352 C-13.17729423 2.20178449 -6.9527303 0.03846861 0 0 Z M-10.82644653 21.96406555 C-12.73741486 25.65192893 -12.93961446 27.94507746 -12.8664856 32.07685852 C-12.85359497 33.36592102 -12.84070435 34.65498352 -12.8274231 35.98310852 C-12.79400965 37.3294737 -12.76014997 38.67582787 -12.7258606 40.02217102 C-12.70577415 41.39193671 -12.68752715 42.76173068 -12.6711731 44.13154602 C-12.6241412 47.47081088 -12.55841924 50.80862664 -12.4758606 54.14717102 C-8.5158606 54.14717102 -4.5558606 54.14717102 -0.4758606 54.14717102 C-0.43847778 52.83361633 -0.40109497 51.52006165 -0.36257935 50.16670227 C-0.29690403 48.43099738 -0.23045722 46.69532155 -0.1633606 44.95967102 C-0.140802 44.09535461 -0.11824341 43.23103821 -0.09500122 42.3405304 C0.10804467 37.52280513 0.35529132 34.02355288 3.5241394 30.14717102 C8.45994199 26.85663596 13.02926453 27.01668811 18.865448 26.98603821 C19.94695381 26.97859085 19.94695381 26.97859085 21.05030823 26.97099304 C23.42440766 26.95644399 25.79844031 26.94958215 28.1725769 26.94404602 C29.83017985 26.93828929 31.4877828 26.93253162 33.14538574 26.92677307 C36.61701771 26.91628422 40.08862665 26.9104275 43.56027222 26.90693665 C47.99762361 26.90145154 52.43466823 26.87741432 56.87192345 26.84896469 C60.29497149 26.83029679 63.71794616 26.82513054 67.1410408 26.82360077 C68.77643132 26.82058389 70.41182085 26.81258807 72.0471611 26.79941559 C74.3396893 26.78226503 76.63147455 26.78425669 78.92404175 26.79072571 C80.22578339 26.78708008 81.52752502 26.78343445 82.86871338 26.77967834 C87.75395414 27.27080857 91.88839235 28.45689906 95.3991394 32.08467102 C97.84276435 36.56465009 97.81703943 41.39410274 98.0866394 46.39717102 C98.129823 47.14224915 98.17300659 47.88732727 98.21749878 48.65498352 C98.32310665 50.48552002 98.42408142 52.31632278 98.5241394 54.14717102 C102.4841394 54.14717102 106.4441394 54.14717102 110.5241394 54.14717102 C110.63248966 49.81316085 110.71164096 45.48188429 110.7741394 41.14717102 C110.80765503 39.92642883 110.84117065 38.70568665 110.8757019 37.44795227 C111.10578942 27.55408212 111.10578942 27.55408212 106.5241394 19.14717102 C100.73929147 15.11118772 96.42026058 14.5682934 89.46139526 14.6295929 C88.47514664 14.62258362 87.48889801 14.61557434 86.47276306 14.60835266 C83.22787943 14.59081428 79.98387493 14.60238018 76.73898315 14.61592102 C74.47649468 14.61322514 72.21400734 14.60934192 69.95152283 14.60432434 C65.21641986 14.59843509 60.48161927 14.60697491 55.74655151 14.62568665 C49.6813526 14.64848853 43.61686124 14.6353411 37.55168819 14.61139679 C32.88220397 14.5969347 28.2128872 14.60154655 23.5433979 14.61190796 C21.30711343 14.61457341 19.07081368 14.6113119 16.83454704 14.60198975 C13.7084519 14.59181632 10.58349919 14.60733677 7.45748901 14.6295929 C6.53628265 14.62149597 5.61507629 14.61339905 4.66595459 14.60505676 C-2.32044111 14.69707437 -6.23763658 16.46492874 -10.82644653 21.96406555 Z M14.5241394 41.14717102 C14.5241394 45.43717102 14.5241394 49.72717102 14.5241394 54.14717102 C37.2941394 54.14717102 60.0641394 54.14717102 83.5241394 54.14717102 C83.5241394 49.85717102 83.5241394 45.56717102 83.5241394 41.14717102 C60.7541394 41.14717102 37.9841394 41.14717102 14.5241394 41.14717102 Z M-60.4758606 69.14717102 C-60.62136913 81.08656526 -60.62136913 81.08656526 -60.72000122 93.02607727 C-60.74985396 97.89826288 -60.7851114 102.76997723 -60.85305786 107.64179993 C-60.9075141 111.57109605 -60.93730939 115.49988664 -60.95024681 119.4295311 C-60.9594625 120.92625763 -60.97745923 122.4229575 -61.00451088 123.91946793 C-61.51267433 132.94111913 -61.51267433 132.94111913 -58.3586731 141.07685852 C-54.87687875 143.57733414 -53.12077003 143.84977128 -48.86257935 143.73310852 C-47.61541138 143.71377258 -46.36824341 143.69443665 -45.08328247 143.67451477 C-43.78970825 143.62424133 -42.49613403 143.5739679 -41.1633606 143.52217102 C-39.85045044 143.49510071 -38.53754028 143.4680304 -37.18484497 143.44013977 C-33.9468508 143.36949263 -30.71219102 143.27087668 -27.4758606 143.14717102 C-27.35831421 142.3171759 -27.24076782 141.48718079 -27.11965942 140.6320343 C-26.95490112 139.54648254 -26.79014282 138.46093079 -26.62039185 137.34248352 C-26.38219727 135.72624084 -26.38219727 135.72624084 -26.13919067 134.0773468 C-25.24824117 130.14169132 -23.76042207 128.43872554 -20.4758606 126.14717102 C-18.8258606 125.48717102 -17.1758606 124.82717102 -15.4758606 124.14717102 C-15.4758606 105.99717102 -15.4758606 87.84717102 -15.4758606 69.14717102 C-30.3258606 69.14717102 -45.1758606 69.14717102 -60.4758606 69.14717102 Z M-0.4758606 69.14717102 C-0.4758606 87.29717102 -0.4758606 105.44717102 -0.4758606 124.14717102 C3.4841394 126.12717102 3.4841394 126.12717102 7.5241394 128.14717102 C10.60069075 133.30783779 10.74721361 136.93176463 11.5241394 143.14717102 C36.2741394 143.14717102 61.0241394 143.14717102 86.5241394 143.14717102 C86.8541394 139.51717102 87.1841394 135.88717102 87.5241394 132.14717102 C88.6491394 129.14717102 88.6491394 129.14717102 90.5241394 127.14717102 C92.8341394 126.15717102 95.1441394 125.16717102 97.5241394 124.14717102 C97.5241394 105.99717102 97.5241394 87.84717102 97.5241394 69.14717102 C65.1841394 69.14717102 32.8441394 69.14717102 -0.4758606 69.14717102 Z M-12.4758606 139.14717102 C-12.4758606 146.73717102 -12.4758606 154.32717102 -12.4758606 162.14717102 C-9.5058606 162.14717102 -6.5358606 162.14717102 -3.4758606 162.14717102 C-3.4758606 154.55717102 -3.4758606 146.96717102 -3.4758606 139.14717102 C-6.4458606 139.14717102 -9.4158606 139.14717102 -12.4758606 139.14717102 Z M101.5241394 139.14717102 C101.5241394 142.44717102 101.5241394 145.74717102 101.5241394 149.14717102 C104.49607791 148.02265375 106.85854628 146.92423311 109.5241394 145.14717102 C109.7743551 142.06351231 109.7743551 142.06351231 109.5241394 139.14717102 C106.8841394 139.14717102 104.2441394 139.14717102 101.5241394 139.14717102 Z M100.5241394 171.14717102 C99.91699097 171.7324054 99.30984253 172.31763977 98.68429565 172.92060852 C88.32260686 183.74953527 83.54184357 200.50582564 83.5241394 215.14717102 C84.57971264 233.01514705 91.37279911 249.29258235 104.5944519 261.60029602 C119.67437696 273.688657 136.69627561 279.6274582 155.9616394 277.52217102 C172.90997383 274.90807654 187.75277962 266.59056055 198.5241394 253.14717102 C208.49411608 239.18757193 213.78465408 222.30548407 211.22384644 205.13349915 C207.9882325 187.97031896 199.78942613 172.64800708 185.5241394 162.14717102 C157.12977101 143.11003766 124.2464508 147.17738394 100.5241394 171.14717102 Z " fill="#000000" transform="translate(180.47586059570313,173.8528289794922)"/>
<path d="M0 0 C6.44812577 5.17055319 7.98714053 14.07210961 8.875 21.9375 C9.59907992 35.82173241 5.9442363 49.17285435 -3.05859375 59.90625 C-12.80746138 70.42011931 -24.0968344 77.13860272 -38.609375 78.28515625 C-48.88856172 78.52640247 -60.73837886 77.7928885 -69 71 C-70.70646678 66.34599969 -70.70646678 66.34599969 -70 63 C-68.86897278 61.276474 -68.86897278 61.276474 -67.25317383 59.51928711 C-66.29249496 58.47404373 -66.29249496 58.47404373 -65.31240845 57.40768433 C-60.46106168 52.35645232 -55.53121547 47.38851629 -50.57421875 42.44140625 C-49.37817547 41.2446882 -48.18228057 40.04782184 -46.98652649 38.85081482 C-44.49613645 36.35895937 -42.00396881 33.86889957 -39.51049805 31.38012695 C-36.31144734 28.18681023 -33.11695746 24.98897432 -29.92375469 21.78981113 C-27.46266317 19.32511436 -24.9992053 16.86279391 -22.5350132 14.40119743 C-21.3552895 13.22214118 -20.17630919 12.04234063 -18.99808311 10.8617878 C-17.35879085 9.21996561 -15.71634447 7.58136639 -14.07299805 5.94360352 C-13.1392485 5.01064957 -12.20549896 4.07769562 -11.24345398 3.11647034 C-7.54696472 -0.3707908 -5.04546169 -0.43495359 0 0 Z M-11.78540039 25.65600586 C-12.58615494 26.45360825 -13.38690948 27.25121063 -14.21192932 28.07298279 C-15.08171921 28.94479691 -15.95150909 29.81661102 -16.84765625 30.71484375 C-17.7340831 31.60031387 -18.62050995 32.485784 -19.53379822 33.39808655 C-21.41220337 35.27580947 -23.28955518 37.15452123 -25.1652832 39.03491211 C-27.57533937 41.45066557 -29.98985587 43.86190308 -32.40575504 46.27181149 C-34.70131467 48.56289838 -36.9930709 50.85778186 -39.28515625 53.15234375 C-40.15697037 54.02213364 -41.02878448 54.89192352 -41.92701721 55.78807068 C-42.7246196 56.58882523 -43.52222198 57.38957977 -44.34399414 58.21459961 C-45.05157364 58.9229747 -45.75915314 59.63134979 -46.48817444 60.3611908 C-48.11300949 61.75089424 -48.11300949 61.75089424 -48 63 C-36.4953666 63.80109633 -27.16532296 61.00598981 -18.26171875 53.54296875 C-12.61566787 48.38051966 -9.40379691 42.21139074 -7 35 C-6.93062938 32.77181559 -6.91542916 30.54165476 -6.9375 28.3125 C-6.94652344 27.13300781 -6.95554687 25.95351563 -6.96484375 24.73828125 C-6.97644531 23.83464844 -6.98804688 22.93101562 -7 22 C-8.97149604 22 -10.49528153 24.36733597 -11.78540039 25.65600586 Z " fill="#000000" transform="translate(371,361)"/>
<path d="M0 0 C1.30859375 1.5703125 1.30859375 1.5703125 1.93359375 4.7578125 C0.38081745 14.22974795 -11.16373744 22.20627705 -17.828125 28.875 C-18.99688232 30.04697673 -20.16556696 31.21902594 -21.33418274 32.3911438 C-23.76895637 34.83186829 -26.20575018 37.27055496 -28.64379883 39.70800781 C-31.76591558 42.83002233 -34.88105846 45.95889859 -37.99454021 49.08952141 C-40.39918453 51.50527532 -42.80835102 53.91647966 -45.21882057 56.32641983 C-46.36986814 57.47864595 -47.51929798 58.63249054 -48.66705894 59.78799057 C-50.26771715 61.39844205 -51.87458173 63.0024394 -53.4831543 64.60498047 C-54.85046944 65.97443314 -54.85046944 65.97443314 -56.2454071 67.37155151 C-58.39632191 69.30505487 -59.99352703 70.5900718 -62.69140625 71.5703125 C-65.71002841 71.3854989 -67.84696348 71.2488446 -70.2421875 69.32421875 C-71.97763281 67.22390892 -72.83610022 65.23484544 -73.81640625 62.6953125 C-74.14898437 61.85226562 -74.4815625 61.00921875 -74.82421875 60.140625 C-79.22590368 47.09418948 -77.07833665 32.80952568 -71.56640625 20.5078125 C-64.71144033 7.55954354 -53.40805205 -0.94701378 -39.69140625 -5.4296875 C-27.40684843 -8.69834034 -10.24746529 -8.66182978 0 0 Z M-49.37890625 16.2578125 C-57.51690606 24.39581231 -61.81989428 33.17322448 -61.87890625 44.6953125 C-61.83162676 46.32082654 -61.77477072 47.9462492 -61.69140625 49.5703125 C-56.3807182 45.13614578 -51.44304008 40.45514564 -46.5703125 35.546875 C-45.82555161 34.80069916 -45.08079071 34.05452332 -44.3134613 33.28573608 C-41.95789798 30.92461861 -39.60585409 28.56003088 -37.25390625 26.1953125 C-35.64801862 24.58440394 -34.04190109 22.97372454 -32.43554688 21.36328125 C-28.51817112 17.43493737 -24.60367138 13.50374576 -20.69140625 9.5703125 C-30.15407059 4.68635671 -41.15550058 11.09427871 -49.37890625 16.2578125 Z " fill="#000000" transform="translate(353.69140625,343.4296875)"/>
</svg>
