<?xml version="1.0" encoding="UTF-8"?>
<svg version="1.1" xmlns="http://www.w3.org/2000/svg" width="512" height="512">
<path d="M0 0 C1.57322021 0.01135986 1.57322021 0.01135986 3.17822266 0.02294922 C17.96465655 0.33580504 30.17321849 4.46651306 41 14.8125 C53.01140544 27.50060434 56.76980111 43.7252928 56.4375 60.921875 C54.93704731 82.02199102 47.64321619 101.52695898 32.1875 116.4375 C26.23941874 121.4375 26.23941874 121.4375 23.1875 121.4375 C23.1875 122.0975 23.1875 122.7575 23.1875 123.4375 C25.07855469 123.38529297 25.07855469 123.38529297 27.0078125 123.33203125 C32.48008408 123.33737318 37.68840558 124.15079974 43.0625 125.125 C44.06482666 125.30579102 45.06715332 125.48658203 46.09985352 125.67285156 C64.70013711 129.13049275 83.65814846 133.44293911 98.1875 146.4375 C99.10402344 147.25154297 99.10402344 147.25154297 100.0390625 148.08203125 C107.74535427 155.34562115 113.08309931 164.38200206 113.57518005 175.14845276 C113.59574045 176.84437675 113.60040895 178.54054677 113.59155273 180.23657227 C113.59841599 181.17113251 113.60527924 182.10569275 113.61235046 183.068573 C113.63051986 186.13050915 113.62679595 189.19192824 113.62109375 192.25390625 C113.6256594 194.39664373 113.63096611 196.53937974 113.63697815 198.68211365 C113.64588922 203.16142751 113.64350788 207.64056288 113.63354492 212.11987305 C113.62204206 217.848504 113.64229753 223.57651974 113.67146206 229.30506992 C113.68983882 233.72584416 113.68952889 238.14647124 113.68382454 242.56727409 C113.68367159 244.67910565 113.68969389 246.79094735 113.70211601 248.90274239 C113.71705659 251.85815839 113.70632706 254.81244082 113.68920898 257.76782227 C113.70371094 259.0640023 113.70371094 259.0640023 113.71850586 260.3863678 C113.63756978 267.0870299 111.83476119 272.22927156 107.546875 277.42578125 C107.01578125 277.86277344 106.4846875 278.29976563 105.9375 278.75 C105.15632813 279.42482422 105.15632813 279.42482422 104.359375 280.11328125 C98.50818051 283.68082609 92.93066682 284.88323574 86.1555481 284.82518005 C85.38806051 284.83056559 84.62057293 284.83595113 83.82982814 284.84149987 C81.27977686 284.85571081 78.73024974 284.84869292 76.18017578 284.84155273 C74.34302354 284.84725994 72.50587483 284.85422555 70.66873169 284.86235046 C65.6934347 284.88025918 60.7183143 284.87911766 55.74299479 284.87340808 C51.58308361 284.87031263 47.42320619 284.87641271 43.26329982 284.88244683 C33.44584959 284.89648322 23.62848639 284.89493839 13.81103516 284.88354492 C3.69763225 284.87206703 -6.41550537 284.88613592 -16.52887332 284.9129414 C-25.22552855 284.93512513 -33.92210066 284.94172967 -42.61878216 284.93586498 C-47.80688209 284.93250032 -52.99481201 284.93487781 -58.18288803 284.95211601 C-63.06349398 284.96762546 -67.94370816 284.96358526 -72.82429886 284.94481087 C-74.6100431 284.94113592 -76.39581663 284.94420138 -78.18153381 284.95469666 C-98.07474994 285.06264147 -98.07474994 285.06264147 -106.25 278.47265625 C-106.765625 277.82167969 -107.28125 277.17070312 -107.8125 276.5 C-108.34875 275.85160156 -108.885 275.20320313 -109.4375 274.53515625 C-112.97468678 269.13893664 -113.10954423 264.40818982 -113.10302734 258.14013672 C-113.10974457 257.21097946 -113.11646179 256.2818222 -113.12338257 255.32450867 C-113.14236502 252.25534702 -113.14628747 249.18640419 -113.1484375 246.1171875 C-113.15486725 243.97592073 -113.16159575 241.83465483 -113.16860962 239.69338989 C-113.18058444 235.20279913 -113.18429043 230.71228529 -113.18310547 226.22167969 C-113.18290273 220.48877209 -113.21015746 214.75636272 -113.24464989 209.02357292 C-113.26697738 204.59839652 -113.27094115 200.17333867 -113.26988602 195.74811172 C-113.27223499 193.63596003 -113.28101854 191.52380472 -113.29655075 189.41170883 C-113.39433381 174.73605366 -112.9467751 162.92143323 -102.8125 151.4375 C-102.26078125 150.78136719 -101.7090625 150.12523437 -101.140625 149.44921875 C-82.61063049 129.05830599 -49.5673823 125.43173346 -23.8125 122.4375 C-24.50214844 121.91542969 -25.19179687 121.39335938 -25.90234375 120.85546875 C-43.26197208 107.25828387 -52.15745509 90.00163658 -55.5625 68.375 C-56.77614047 49.26016255 -54.78199294 31.22824088 -41.8125 16.4375 C-41.28914063 15.8084375 -40.76578125 15.179375 -40.2265625 14.53125 C-30.14481177 3.31837602 -14.48620248 -0.14746013 0 0 Z M-27.9765625 26.29296875 C-36.7290054 35.62270044 -39.348055 47.9149026 -39.0625 60.42578125 C-37.68834421 76.98006434 -32.46241173 92.25850824 -19.8125 103.4375 C-12.47855088 108.99688298 -5.30209877 112.71942825 4.1875 111.4375 C15.25711698 108.96096407 23.47713164 101.83295799 29.8828125 92.640625 C39.07763072 77.11404573 41.30301407 59.20018385 37.2265625 41.80859375 C34.42867033 32.73122178 29.29985751 26.19703558 21.26953125 21.2578125 C5.895641 13.35453684 -14.76017413 14.96122782 -27.9765625 26.29296875 Z M-89.8125 162.4375 C-96.12572595 170.2761705 -96.95818428 178.6207911 -96.97363281 188.48071289 C-96.97859772 189.25238297 -96.98356262 190.02405304 -96.98867798 190.81910706 C-97.00317941 193.34946611 -97.01007898 195.87976263 -97.015625 198.41015625 C-97.01845238 199.27885283 -97.02127975 200.1475494 -97.02419281 201.04257011 C-97.0391315 205.63360774 -97.04839636 210.22461433 -97.05273438 214.81567383 C-97.05823197 219.54900196 -97.08230218 224.28204433 -97.11070633 229.01528263 C-97.12934635 232.6656121 -97.13453889 236.31587261 -97.13607025 239.96624565 C-97.13909082 241.711314 -97.14709919 243.4563813 -97.16025543 245.20140266 C-97.17735566 247.64238384 -97.17542698 250.08266448 -97.16894531 252.52368164 C-97.1781601 253.23917175 -97.18737488 253.95466187 -97.1968689 254.6918335 C-97.15842849 259.32515351 -96.26601501 262.50647076 -93.8125 266.4375 C-91.09848706 267.79450647 -88.96403684 267.5498861 -85.9296875 267.53515625 C-84.76308594 267.53193359 -83.59648438 267.52871094 -82.39453125 267.52539062 C-81.17121094 267.51701172 -79.94789062 267.50863281 -78.6875 267.5 C-76.84091797 267.49323242 -76.84091797 267.49323242 -74.95703125 267.48632812 C-71.90880608 267.4745133 -68.86067686 267.45804028 -65.8125 267.4375 C-65.80663376 266.59447327 -65.80076752 265.75144653 -65.79472351 264.88287354 C-65.73681415 256.93721447 -65.66474767 248.99183703 -65.57678509 241.04645157 C-65.53206188 236.96165185 -65.49281024 232.87695231 -65.46606445 228.79199219 C-65.44005064 224.84958213 -65.39966239 220.90755719 -65.34931374 216.96538544 C-65.33263191 215.46155336 -65.3211258 213.95765464 -65.31488609 212.45374298 C-65.30525888 210.34668122 -65.27721877 208.24060761 -65.24487305 206.13378906 C-65.23376999 204.93465881 -65.22266693 203.73552856 -65.21122742 202.50006104 C-64.77819554 199.17401296 -64.18029785 197.77606902 -61.8125 195.4375 C-57.83550587 194.31356688 -54.78889598 194.38492459 -50.8125 195.4375 C-49.67646815 198.84559554 -49.65301047 201.51746451 -49.60717773 205.11206055 C-49.59714501 205.79636296 -49.58711229 206.48066538 -49.57677555 207.18570423 C-49.54541927 209.39850809 -49.52063133 211.61132987 -49.49609375 213.82421875 C-49.47768765 215.19129008 -49.45885082 216.55835569 -49.4395752 217.92541504 C-49.37116119 222.99187553 -49.31108684 228.05844586 -49.25 233.125 C-49.105625 244.448125 -48.96125 255.77125 -48.8125 267.4375 C-16.4725 267.4375 15.8675 267.4375 49.1875 267.4375 C49.47677548 244.86468874 49.47677548 244.86468874 49.75561523 222.29174805 C49.8145752 217.92541504 49.8145752 217.92541504 49.84339905 215.88117981 C49.86261667 214.45383428 49.87993966 213.02646247 49.89576721 211.59907532 C49.92011336 209.4366515 49.95047535 207.27438735 49.98217773 205.11206055 C49.99772202 203.89294479 50.0132663 202.67382904 50.02928162 201.41777039 C50.1875 198.4375 50.1875 198.4375 51.1875 195.4375 C58.4113041 194.09068907 58.4113041 194.09068907 62.125 195.75 C64.1875 197.4375 64.1875 197.4375 65.1875 199.4375 C65.30827053 201.59161574 65.36496022 203.74941961 65.39282227 205.90673828 C65.40272186 206.57027313 65.41262146 207.23380798 65.42282104 207.91744995 C65.45444916 210.11420097 65.47919854 212.31097363 65.50390625 214.5078125 C65.52447466 216.02953661 65.5454711 217.551255 65.56687927 219.07296753 C65.62211171 223.0809465 65.67151578 227.08897713 65.71972656 231.0970459 C65.76993305 235.18583787 65.82562356 239.27455468 65.88085938 243.36328125 C65.98845528 251.38795732 66.08989704 259.4126962 66.1875 267.4375 C70.43727046 267.55361395 74.68663337 267.62472349 78.9375 267.6875 C80.74734375 267.73777344 80.74734375 267.73777344 82.59375 267.7890625 C83.75390625 267.80195313 84.9140625 267.81484375 86.109375 267.828125 C87.17768555 267.84907227 88.24599609 267.87001953 89.34667969 267.89160156 C92.89210849 267.32486922 94.0103354 266.23635061 96.1875 263.4375 C97.3771804 259.86845881 97.33509644 256.62610014 97.33276367 252.91186523 C97.33612228 252.14720444 97.3394809 251.38254364 97.34294128 250.5947113 C97.35245341 248.06182231 97.35439504 245.52899951 97.35546875 242.99609375 C97.35868298 241.2307177 97.36204717 239.46534192 97.36555481 237.69996643 C97.37154802 233.99357487 97.3733947 230.28720662 97.37280273 226.58081055 C97.37270152 221.85230846 97.38631071 217.1239579 97.40357494 212.3954916 C97.41474932 208.74499336 97.41672022 205.094531 97.41619301 201.44401741 C97.4173666 199.70226587 97.42175317 197.96051321 97.42952538 196.21877861 C97.74085133 177.50279148 97.74085133 177.50279148 89.1875 161.4375 C66.73400128 140.1002364 24.96420008 137.56361222 -4.40625 138.25390625 C-31.52577017 139.25533807 -70.0027378 141.19224779 -89.8125 162.4375 Z " fill="#000000" transform="translate(112.8125,-0.4375)"/>
<path d="M0 0 C11.5446276 11.00085891 16.4478136 25.86111227 17.375 41.46875 C17.78619872 62.64548427 12.23931094 83.37872596 -2.49609375 99.01171875 C-10.89455128 107.35352564 -10.89455128 107.35352564 -14.8125 109.3125 C-14.16563232 109.43004639 -13.51876465 109.54759277 -12.85229492 109.66870117 C-10.91887527 110.02012266 -8.98553263 110.37196799 -7.05224609 110.72412109 C-4.9436341 111.10707173 -2.83460342 111.48772645 -0.72509766 111.86572266 C52.60348093 121.4636953 52.60348093 121.4636953 68.65234375 144.3671875 C69.15894531 145.33914063 69.66554688 146.31109375 70.1875 147.3125 C70.68558922 148.2629142 70.68558922 148.2629142 71.19374084 149.23252869 C75.57885695 159.14547888 74.76601106 169.70856533 74.71875 180.32421875 C74.7214487 182.46409786 74.72533426 184.60397577 74.73034668 186.74385071 C74.73622009 191.21127082 74.7277459 195.67836942 74.70898438 200.14575195 C74.68615476 205.85865852 74.69935737 211.57081494 74.72327423 217.28369427 C74.73775509 221.69590367 74.73311638 226.1079363 74.72276306 230.52015114 C74.72010427 232.62639265 74.72333554 234.73265046 74.73268127 236.83887291 C74.74288913 239.78453272 74.72728814 242.72898987 74.70507812 245.67456055 C74.71317505 246.53553848 74.72127197 247.39651642 74.72961426 248.28358459 C74.63645329 254.98427037 72.85491246 260.22140457 68.44140625 265.3359375 C67.88324219 265.78195312 67.32507813 266.22796875 66.75 266.6875 C66.19441406 267.14898437 65.63882813 267.61046875 65.06640625 268.0859375 C60.28204685 271.20919914 55.87241415 271.60351778 50.27507019 271.57992554 C49.48423343 271.58445665 48.69339668 271.58898776 47.87859517 271.59365618 C45.23174799 271.60630447 42.58510646 271.60467954 39.93823242 271.60302734 C38.03916662 271.60901235 36.14010326 271.61581783 34.24104309 271.62338257 C29.08392869 271.64105313 23.92688066 271.64573841 18.76973891 271.64701414 C15.54692313 271.64843576 12.32412423 271.65270556 9.10131264 271.65800858 C-2.14446458 271.67651269 -13.39019439 271.68467875 -24.63598633 271.68310547 C-35.11460033 271.68190412 -45.59300834 271.70300419 -56.07157022 271.7345928 C-65.0713068 271.7607554 -74.0709761 271.77147276 -83.07075042 271.77019465 C-88.44439954 271.76968499 -93.81786561 271.77537034 -99.19147682 271.79655075 C-104.24684134 271.81593264 -109.3018482 271.81605782 -114.35722542 271.80151749 C-116.20992811 271.7994282 -118.06265318 271.80413739 -119.91531754 271.8162384 C-122.45033623 271.83172046 -124.98412622 271.82236387 -127.51911926 271.80697632 C-128.2472499 271.81726344 -128.97538054 271.82755057 -129.72557575 271.83814943 C-135.97302559 271.75470546 -141.09470607 269.65777778 -145.8359375 265.56640625 C-146.28195312 265.00824219 -146.72796875 264.45007813 -147.1875 263.875 C-147.64898437 263.31941406 -148.11046875 262.76382812 -148.5859375 262.19140625 C-152.0378563 256.90359432 -152.10939561 252.1402392 -152.10302734 246.01513672 C-152.10974457 245.08597946 -152.11646179 244.1568222 -152.12338257 243.19950867 C-152.14236502 240.13034702 -152.14628747 237.06140419 -152.1484375 233.9921875 C-152.15486725 231.85092073 -152.16159575 229.70965483 -152.16860962 227.56838989 C-152.18058444 223.07779913 -152.18429043 218.58728529 -152.18310547 214.09667969 C-152.18290273 208.36377209 -152.21015746 202.63136272 -152.24464989 196.89857292 C-152.26697738 192.47339652 -152.27094115 188.04833867 -152.26988602 183.62311172 C-152.27223499 181.51096003 -152.28101854 179.39880472 -152.29655075 177.28670883 C-152.40795831 160.56623699 -150.79786296 148.2178627 -139.07421875 135.4140625 C-120.76635845 118.08628037 -92.70720269 113.37692855 -68.578125 110.671875 C-65.73080791 110.39157144 -65.73080791 110.39157144 -62.8125 109.3125 C-63.28558594 108.98378906 -63.75867188 108.65507812 -64.24609375 108.31640625 C-81.44711871 95.94373917 -90.48393294 79.44130523 -94.125 58.75 C-96.4465644 40.46768035 -94.44456247 20.99495377 -83 5.9375 C-62.93898287 -17.54856884 -23.50155532 -19.3402344 0 0 Z M-69.625 17 C-77.2864254 26.27903494 -78.60030187 38.69242248 -77.8125 50.3125 C-75.52165128 67.19066484 -70.62225563 81.40133314 -57.11328125 92.6171875 C-49.23579299 98.42165253 -41.53437919 99.69677634 -31.8125 98.3125 C-20.7382031 94.7044651 -12.86903526 87.30333819 -7.1953125 77.2890625 C0.94384806 59.76917451 2.46406552 41.63696217 -3.8125 23.3125 C-5.45297271 20.17810977 -7.3032747 17.79149367 -9.8125 15.3125 C-10.33714844 14.76335937 -10.86179687 14.21421875 -11.40234375 13.6484375 C-19.71803848 5.70450324 -30.49169282 3.96403894 -41.58984375 4.1015625 C-53.00161604 4.84851487 -61.69920379 8.80553273 -69.625 17 Z M-129.34375 150.39453125 C-135.27368537 158.13814366 -135.95880832 166.88911232 -135.97363281 176.37158203 C-135.97859772 177.1448584 -135.98356262 177.91813477 -135.98867798 178.71484375 C-136.00317794 181.2500093 -136.01007824 183.78511246 -136.015625 186.3203125 C-136.01845238 187.19025723 -136.02127975 188.06020195 -136.02419281 188.95650864 C-136.03912983 193.55287729 -136.04839612 198.14921496 -136.05273438 202.74560547 C-136.05823599 207.48799972 -136.08231501 212.23010933 -136.11070633 216.97241402 C-136.12932973 220.62699215 -136.13453797 224.28150132 -136.13607025 227.93612289 C-136.13909389 229.68480881 -136.14711267 231.43349359 -136.16025543 233.18213272 C-136.177323 235.62571287 -136.17543511 238.06859136 -136.16894531 240.51220703 C-136.1781601 241.23129242 -136.18737488 241.95037781 -136.1968689 242.69125366 C-136.16049874 247.06606394 -135.58326909 249.88459458 -132.8125 253.3125 C-129.67465591 255.53604412 -126.95177911 255.54802425 -123.171875 255.5078125 C-121.56699219 255.49814453 -121.56699219 255.49814453 -119.9296875 255.48828125 C-118.81851563 255.47152344 -117.70734375 255.45476562 -116.5625 255.4375 C-115.43585938 255.42847656 -114.30921875 255.41945313 -113.1484375 255.41015625 C-110.36957635 255.38660658 -107.5911461 255.3537168 -104.8125 255.3125 C-104.81107498 254.47169388 -104.80964996 253.63088776 -104.80818176 252.76460266 C-104.79033915 244.83388143 -104.74868871 236.90371747 -104.68040943 228.97326374 C-104.64614397 224.89624514 -104.62103024 220.81960105 -104.61694336 216.74243164 C-104.6126593 212.80633916 -104.58418924 208.87109144 -104.53906822 204.93526268 C-104.52609639 203.43504955 -104.52178449 201.93473531 -104.52634621 200.43447304 C-104.53125518 198.32949685 -104.50515525 196.22698702 -104.47192383 194.12231445 C-104.46526199 192.92540482 -104.45860016 191.72849518 -104.45173645 190.49531555 C-103.62736781 186.39071022 -102.0476393 184.88765844 -98.8125 182.3125 C-95.75 181.75 -95.75 181.75 -92.8125 182.3125 C-89.84975052 184.53290058 -88.91135652 185.72190701 -88.29351807 189.4130249 C-88.2801944 191.23836761 -88.2801944 191.23836761 -88.26660156 193.10058594 C-88.25620724 193.78500889 -88.24581291 194.46943184 -88.23510361 195.17459488 C-88.20604226 197.38227506 -88.20403666 199.5890227 -88.203125 201.796875 C-88.18912549 203.16294267 -88.17334759 204.52899332 -88.15576172 205.89501953 C-88.10312819 210.95066796 -88.08488931 216.00662718 -88.0625 221.0625 C-87.98 232.365 -87.8975 243.6675 -87.8125 255.3125 C-55.4725 255.3125 -23.1325 255.3125 10.1875 255.3125 C10.35798344 232.78479438 10.35798344 232.78479438 10.48535156 210.25683594 C10.53076172 205.89501953 10.53076172 205.89501953 10.55706787 203.85162354 C10.5716604 202.42768858 10.57845253 201.00366048 10.57904053 199.57965088 C10.5814589 197.41934025 10.60879713 195.26062065 10.64160156 193.10058594 C10.65048401 191.8836908 10.65936646 190.66679565 10.66851807 189.4130249 C11.28635652 185.72190701 12.22475052 184.53290058 15.1875 182.3125 C18.125 181.75 18.125 181.75 21.1875 182.3125 C24.4226393 184.88765844 26.00236781 186.39071022 26.82673645 190.49531555 C26.8367292 192.29068001 26.8367292 192.29068001 26.84692383 194.12231445 C26.85740753 194.78628738 26.86789124 195.45026031 26.87869263 196.13435364 C26.90735045 198.31531032 26.90116317 200.49467074 26.89453125 202.67578125 C26.90765213 204.19323202 26.92295757 205.71066534 26.94035339 207.22807312 C26.98017167 211.21148915 26.99039169 215.19444799 26.99438477 219.17803955 C27.00372234 223.24708904 27.04113968 227.31587058 27.07617188 231.38476562 C27.14071522 239.36068206 27.1739818 247.33633463 27.1875 255.3125 C31.08319135 255.39982726 34.97862982 255.45300185 38.875 255.5 C39.97779297 255.52513672 41.08058594 255.55027344 42.21679688 255.57617188 C43.28349609 255.58583984 44.35019531 255.59550781 45.44921875 255.60546875 C46.42850342 255.6211792 47.40778809 255.63688965 48.41674805 255.65307617 C51.7368849 255.24497053 53.53738275 254.33741454 56.1875 252.3125 C58.82525472 248.83289677 58.46990399 244.861288 58.44628906 240.67333984 C58.4497937 239.90853302 58.45329834 239.1437262 58.45690918 238.35574341 C58.46570752 235.82821558 58.45988058 233.30096817 58.453125 230.7734375 C58.45447303 229.00949042 58.45641471 227.24554371 58.45892334 225.4815979 C58.46187273 221.78115305 58.45758599 218.08080472 58.44824219 214.38037109 C58.4368979 209.65972812 58.44337626 204.93931385 58.45538712 200.21867943 C58.46265365 196.5724621 58.46029504 192.92629792 58.45513153 189.28007889 C58.45380564 187.54112343 58.45540521 185.802163 58.46009064 184.06321335 C58.6437291 164.65187076 58.6437291 164.65187076 49.31640625 148.25 C34.87985587 134.26376404 13.24111627 131.33455709 -5.8125 128.3125 C-6.55564453 128.19100586 -7.29878906 128.06951172 -8.06445312 127.94433594 C-43.22346527 122.40422819 -102.98082731 122.22848413 -129.34375 150.39453125 Z " fill="#000000" transform="translate(437.8125,240.6875)"/>
<path d="M0 0 C4.08034683 2.07726748 6.33340914 3.75377481 8 8 C8.22705078 10.38183594 8.22705078 10.38183594 8.1953125 12.984375 C8.18886719 13.91894531 8.18242188 14.85351562 8.17578125 15.81640625 C8.15064453 17.26853516 8.15064453 17.26853516 8.125 18.75 C8.11597656 19.73355469 8.10695313 20.71710938 8.09765625 21.73046875 C8.07412785 24.15389407 8.04125368 26.57682222 8 29 C8.58107293 28.99723462 9.16214586 28.99446924 9.76082706 28.99162006 C23.91671086 28.92529145 38.07257128 28.87568602 52.22857761 28.84456348 C59.07439832 28.82911179 65.92011513 28.80805494 72.76586914 28.77368164 C79.3729472 28.74052265 85.97994574 28.72314404 92.58711052 28.71536827 C95.10727576 28.70982718 97.62743512 28.69900685 100.1475544 28.68280983 C103.67865872 28.66101864 107.20931772 28.65803387 110.74047852 28.65942383 C112.30170441 28.64324509 112.30170441 28.64324509 113.89447021 28.6267395 C120.52017014 28.65494276 125.74848219 29.20835822 130.9609375 33.68359375 C131.66089844 34.55177734 131.66089844 34.55177734 132.375 35.4375 C133.09816406 36.30181641 133.09816406 36.30181641 133.8359375 37.18359375 C135.97346 40.51898959 136.12885142 43.85962142 136.16113281 47.74926758 C136.17074036 48.68736771 136.1803479 49.62546783 136.19024658 50.59199524 C136.1966214 52.10300056 136.1966214 52.10300056 136.203125 53.64453125 C136.20882507 54.6876799 136.21452515 55.73082855 136.22039795 56.80558777 C136.22983874 59.0120645 136.23637827 61.21855527 136.24023438 63.42504883 C136.24993363 66.7894773 136.28096368 70.15329312 136.3125 73.51757812 C136.31903111 75.66405888 136.32428116 77.810544 136.328125 79.95703125 C136.3404718 80.95829544 136.3528186 81.95955963 136.36553955 82.99116516 C136.34467409 89.57915424 135.7651509 94.779337 131.31640625 99.9609375 C130.73761719 100.42757812 130.15882813 100.89421875 129.5625 101.375 C128.98628906 101.85710937 128.41007813 102.33921875 127.81640625 102.8359375 C124.45104569 104.99266319 121.11411046 105.12457501 117.19110107 105.12025452 C116.22638885 105.12162918 115.26167664 105.12300385 114.26773071 105.12442017 C112.69032608 105.11902725 112.69032608 105.11902725 111.08105469 105.11352539 C109.96856354 105.11367142 108.85607239 105.11381744 107.70986938 105.1139679 C104.03051813 105.1132709 100.35121742 105.10548839 96.671875 105.09765625 C94.12168404 105.09579132 91.57149272 105.09436777 89.02130127 105.09336853 C82.99362671 105.08993972 76.96597386 105.08205717 70.938308 105.07201904 C64.0749868 105.06083762 57.21166474 105.05534234 50.3483367 105.05032361 C36.23221441 105.03987401 22.1161082 105.02228721 8 105 C8.01571045 105.60996826 8.0314209 106.21993652 8.04760742 106.84838867 C8.11019813 109.6279971 8.14906622 112.40745692 8.1875 115.1875 C8.21263672 116.14720703 8.23777344 117.10691406 8.26367188 118.09570312 C8.35598969 126.98898582 8.35598969 126.98898582 5 131 C1.37944528 134.0881202 -2.06236226 134.66209626 -6.6953125 134.45703125 C-11.06308805 133.59087915 -13.74464211 130.90210537 -17 128 C-18.0382712 127.11472643 -19.07882003 126.23212021 -20.12109375 125.3515625 C-23.1437441 122.78960871 -26.14457271 120.2034014 -29.14013672 117.60986328 C-32.15036349 115.00426662 -35.16736177 112.40659862 -38.1875 109.8125 C-38.77297607 109.30952393 -39.35845215 108.80654785 -39.96166992 108.28833008 C-43.41523976 105.3305482 -46.90500329 102.42612159 -50.4375 99.5625 C-56.84677545 94.35555539 -63.06806234 88.93673736 -69.28320312 83.50097656 C-70.82686957 82.15136602 -72.37414698 80.80588832 -73.921875 79.4609375 C-74.73140625 78.75195312 -75.5409375 78.04296875 -76.375 77.3125 C-77.40753906 76.40951172 -77.40753906 76.40951172 -78.4609375 75.48828125 C-81.04208691 72.99229667 -81.28410839 70.86164954 -81.5 67.375 C-81.40289269 62.15361486 -80.00335966 59.75675496 -76.3671875 56.11328125 C-71.91371483 52.13749129 -67.38159531 48.27865221 -62.77783203 44.47949219 C-59.77756596 41.98270389 -56.82980252 39.42525183 -53.875 36.875 C-49.81431984 33.38117169 -45.7247849 29.93549235 -41.5625 26.5625 C-37.10399964 22.94572242 -32.76260435 19.2113233 -28.4375 15.4375 C-9.40512085 -1.15390558 -9.40512085 -1.15390558 0 0 Z M-30.44750977 40.19775391 C-34.94333723 44.10870726 -39.51705462 47.906369 -44.1484375 51.65625 C-49.84738899 56.34031972 -55.41486337 61.18129088 -61 66 C-59.50282382 69.71398952 -57.44574726 71.49740759 -54.3125 73.9375 C-49.65210185 77.64754245 -45.11226491 81.45743668 -40.625 85.375 C-25.54314828 100.99065141 -25.54314828 100.99065141 -9 111 C-8.96132812 109.12054688 -8.96132812 109.12054688 -8.921875 107.203125 C-8.86558831 105.55204877 -8.8082411 103.90100845 -8.75 102.25 C-8.73582031 101.425 -8.72164062 100.6 -8.70703125 99.75 C-8.67480469 98.95078125 -8.64257812 98.1515625 -8.609375 97.328125 C-8.58842773 96.5949707 -8.56748047 95.86181641 -8.54589844 95.10644531 C-7.77311331 92.12451771 -6.35073466 90.95307849 -4 89 C-1.5868721 88.49219131 -1.5868721 88.49219131 1.15057373 88.48101807 C2.19101334 88.46710526 3.23145294 88.45319244 4.30342102 88.43885803 C6.00706062 88.44640358 6.00706062 88.44640358 7.74511719 88.45410156 C9.54552711 88.43859505 9.54552711 88.43859505 11.38230896 88.42277527 C14.66930905 88.39834124 17.95578109 88.39151056 21.24285412 88.39249516 C24.67958694 88.38936606 28.11615029 88.36374802 31.55279541 88.34051514 C38.05857314 88.29995109 44.56425063 88.27961356 51.07013535 88.26654124 C58.47767406 88.25067249 65.88504215 88.21225748 73.2924819 88.17194796 C88.52829664 88.08954342 103.76400124 88.03843124 119 88 C119 74.14 119 60.28 119 46 C115.29491211 45.9906543 111.58982422 45.98130859 107.77246094 45.97167969 C95.54674287 45.93795036 83.32120316 45.88262596 71.09562302 45.81609726 C63.68142074 45.77628051 56.26732502 45.74390151 48.85302734 45.72900391 C42.39103204 45.71600093 35.9292709 45.68907132 29.46740746 45.64538693 C26.04554204 45.62274115 22.62396575 45.60709115 19.20201874 45.60811615 C15.3826912 45.60576053 11.56428646 45.57879206 7.74511719 45.54589844 C6.04147758 45.55344398 6.04147758 45.55344398 4.30342102 45.56114197 C3.26298141 45.54722916 2.22254181 45.53331635 1.15057373 45.51898193 C-0.20446196 45.51345118 -0.20446196 45.51345118 -1.5868721 45.50780869 C-4.7648461 44.83904894 -5.97554727 43.48203782 -8 41 C-8.54589844 38.89355469 -8.54589844 38.89355469 -8.609375 36.671875 C-8.64160156 35.87265625 -8.67382812 35.0734375 -8.70703125 34.25 C-8.72121094 33.425 -8.73539063 32.6 -8.75 31.75 C-8.77964844 30.90953125 -8.80929688 30.0690625 -8.83984375 29.203125 C-8.91031636 27.1359285 -8.95744939 25.06795967 -9 23 C-14.6346935 23 -25.9904089 36.31224815 -30.44750977 40.19775391 Z " fill="#000000" transform="translate(111,329)"/>
<path d="M0 0 C2.3697692 1.92652813 4.66751203 3.90830306 6.92871094 5.9609375 C9.08721284 7.90400087 11.30247869 9.77741475 13.515625 11.65771484 C17.11811997 14.72203221 20.69409168 17.81737126 24.27636719 20.90527344 C30.10320288 25.92536498 35.92719023 30.93748649 41.90234375 35.78125 C46.44864215 39.47638407 50.9072468 43.26371508 55.33984375 47.09375 C56.28621704 47.90863892 56.28621704 47.90863892 57.25170898 48.73999023 C68.16950383 58.2131469 68.16950383 58.2131469 68.77734375 64.65625 C68.04436897 73.30535241 60.69101735 78.06120328 54.46484375 83.34375 C51.82714635 85.52045166 49.17430688 87.67711222 46.515625 89.828125 C42.94427876 92.77299949 39.45269888 95.80091976 35.96484375 98.84375 C30.83956907 103.3132203 25.64917358 107.67455393 20.359375 111.94921875 C16.08402302 115.48604839 11.9183104 119.14831268 7.765625 122.828125 C-2.82307174 132.1216378 -2.82307174 132.1216378 -11.125 131.80859375 C-15.0789337 131.04600362 -16.8211886 129.26648439 -19.53515625 126.34375 C-20.78764127 123.83877996 -20.64890031 122.13521726 -20.6328125 119.3359375 C-20.62797852 117.85673828 -20.62797852 117.85673828 -20.62304688 116.34765625 C-20.61047852 114.79884766 -20.61047852 114.79884766 -20.59765625 113.21875 C-20.59314453 112.17847656 -20.58863281 111.13820313 -20.58398438 110.06640625 C-20.57217577 107.49213038 -20.555707 104.91796854 -20.53515625 102.34375 C-21.42360953 102.34789807 -21.42360953 102.34789807 -22.33001137 102.35212994 C-36.75258892 102.41842876 -51.17515286 102.46804953 -65.59784889 102.49918652 C-72.57261254 102.51464499 -79.54727437 102.53571486 -86.52197266 102.57006836 C-93.25225602 102.60320215 -99.98241173 102.6206009 -106.71278 102.62838173 C-109.28121989 102.63392711 -111.84965397 102.64475575 -114.41804886 102.66094017 C-118.01401559 102.68269963 -121.60954449 102.68571746 -125.20556641 102.68432617 C-126.80023743 102.70050491 -126.80023743 102.70050491 -128.42712402 102.7170105 C-134.65876619 102.69090107 -139.36728893 102.23320618 -144.1796875 97.84375 C-147.48791812 93.59505248 -148.65231129 90.7692902 -148.7121582 85.44848633 C-148.72499344 84.4534761 -148.73782867 83.45846588 -148.75105286 82.43330383 C-148.75843979 81.35832138 -148.76582672 80.28333893 -148.7734375 79.17578125 C-148.78150925 78.06700119 -148.78958099 76.95822113 -148.79789734 75.81584167 C-148.81173576 73.466355 -148.82245899 71.11684825 -148.83032227 68.76733398 C-148.84750578 65.18759625 -148.89139216 61.60878906 -148.93554688 58.02929688 C-148.9456766 55.74479845 -148.95419183 53.46029218 -148.9609375 51.17578125 C-148.98719963 49.5784893 -148.98719963 49.5784893 -149.01399231 47.94892883 C-148.99646216 41.89233928 -148.74954224 36.05238265 -144.53515625 31.34375 C-138.49786474 26.82873612 -133.3778458 26.7903865 -126.00024414 26.88964844 C-124.8580542 26.88906433 -123.71586426 26.88848022 -122.5390625 26.88787842 C-118.77833254 26.89065649 -115.01840335 26.9217372 -111.2578125 26.953125 C-108.64465264 26.96058833 -106.03148717 26.96628083 -103.4183197 26.97027588 C-97.25249589 26.98267989 -91.08695771 27.01546611 -84.92125934 27.05567384 C-77.89829648 27.10047221 -70.87531957 27.12239877 -63.85224926 27.14245558 C-49.41307131 27.1842014 -34.97411778 27.25450291 -20.53515625 27.34375 C-20.56657715 26.39121338 -20.56657715 26.39121338 -20.59863281 25.41943359 C-20.68220206 22.51936924 -20.73394399 19.61955884 -20.78515625 16.71875 C-20.81867188 15.71972656 -20.8521875 14.72070312 -20.88671875 13.69140625 C-20.96789631 7.56250051 -20.67368978 3.9853097 -16.53515625 -0.65625 C-11.29796731 -4.0978313 -5.07827391 -3.31770129 0 0 Z M-3.53515625 20.34375 C-3.60863281 21.98923828 -3.60863281 21.98923828 -3.68359375 23.66796875 C-3.75866216 25.12241925 -3.83420822 26.57684516 -3.91015625 28.03125 C-3.94109375 28.75248047 -3.97203125 29.47371094 -4.00390625 30.21679688 C-4.42217498 37.85020121 -4.42217498 37.85020121 -6.53515625 41.34375 C-10.00635721 43.05712432 -12.84477839 43.59805129 -16.6920929 43.6222229 C-17.7086647 43.63338638 -18.72523651 43.64454987 -19.77261353 43.65605164 C-21.42878189 43.65929192 -21.42878189 43.65929192 -23.1184082 43.66259766 C-24.8751461 43.67766609 -24.8751461 43.67766609 -26.66737366 43.69303894 C-30.53605664 43.72391434 -34.40467028 43.74091849 -38.2734375 43.7578125 C-40.95673128 43.77652064 -43.64000843 43.79599738 -46.32328796 43.8164978 C-52.66254597 43.86324393 -59.00182083 43.90000813 -65.34116286 43.93317068 C-72.56006001 43.97142157 -79.77886743 44.02082393 -86.99768889 44.07115483 C-101.84344946 44.1744127 -116.6892585 44.26222102 -131.53515625 44.34375 C-131.53515625 57.87375 -131.53515625 71.40375 -131.53515625 85.34375 C-126.02296387 85.36562378 -126.02296387 85.36562378 -120.39941406 85.38793945 C-108.27349652 85.43822059 -96.14771835 85.50465309 -84.02193069 85.57946491 C-76.66828087 85.62443827 -69.31467964 85.6638493 -61.9609375 85.69018555 C-55.55171013 85.71315326 -49.14263635 85.74653734 -42.73353076 85.79245156 C-39.33965697 85.8164006 -35.94593545 85.83511825 -32.55197906 85.84136391 C-28.76391327 85.85095235 -24.97640592 85.87894973 -21.18847656 85.91137695 C-20.06206757 85.90994186 -18.93565857 85.90850677 -17.77511597 85.9070282 C-16.74309052 85.91956635 -15.71106506 85.93210449 -14.64776611 85.94502258 C-13.75178333 85.94963155 -12.85580055 85.95424051 -11.93266678 85.95898914 C-9.05075356 86.42148863 -7.66911513 87.38743935 -5.53515625 89.34375 C-4.00755867 92.9832721 -4.19803922 97.18464858 -3.97265625 101.09375 C-3.92947266 101.79113281 -3.88628906 102.48851562 -3.84179688 103.20703125 C-3.73626029 104.91906922 -3.63525715 106.63138561 -3.53515625 108.34375 C0.964368 105.88559781 4.5878865 102.78386154 8.40234375 99.40625 C9.73929457 98.23534729 11.07654106 97.0647821 12.4140625 95.89453125 C13.08872559 95.30236816 13.76338867 94.71020508 14.45849609 94.10009766 C17.52818048 91.41290984 20.61826452 88.74986753 23.71484375 86.09375 C24.57819336 85.35306274 24.57819336 85.35306274 25.45898438 84.59741211 C29.93261852 80.77225087 34.4738735 77.03491888 39.04296875 73.32421875 C42.23113025 70.71712539 45.35272045 68.04092352 48.46484375 65.34375 C44.78696204 60.39763322 40.49484707 56.80371222 35.69140625 52.96484375 C32.030545 50.02222384 28.50091715 46.93423521 24.96484375 43.84375 C19.71538246 39.26370086 14.39847995 34.80170441 8.98046875 30.421875 C5.61130912 27.63865617 2.37170981 24.72314909 -0.85546875 21.77734375 C-2.29387945 20.23555208 -2.29387945 20.23555208 -3.53515625 20.34375 Z " fill="#000000" transform="translate(404.53515625,50.65625)"/>
</svg>
