<?xml version="1.0" encoding="UTF-8"?>
<svg version="1.1" xmlns="http://www.w3.org/2000/svg" width="512" height="512">
<path d="M0 0 C0.90265266 -0.00538554 1.80530532 -0.01077108 2.73531109 -0.01631981 C5.75459341 -0.03060706 8.77343779 -0.02349371 11.79273987 -0.01637268 C13.95958305 -0.02207583 16.12642323 -0.02903987 18.29325867 -0.03717041 C24.17546046 -0.05512274 30.05751325 -0.05392952 35.93973422 -0.04822803 C40.85039504 -0.04513926 45.76102711 -0.05122515 50.67168385 -0.05726677 C62.25616822 -0.07131714 73.84057885 -0.06974635 85.42506409 -0.05836487 C97.376638 -0.04688221 109.32798755 -0.06096078 121.2795319 -0.08776134 C131.54126454 -0.10991115 141.80292673 -0.11655735 152.06468159 -0.11068493 C158.19335716 -0.10731257 164.32188889 -0.10974919 170.45054436 -0.12693596 C176.21342807 -0.14239147 181.97597914 -0.13846473 187.73884964 -0.11963081 C189.85320153 -0.11594115 191.967578 -0.11906435 194.08190727 -0.1295166 C196.96970262 -0.14270201 199.85639278 -0.13120037 202.74414062 -0.11352539 C203.57955759 -0.1231304 204.41497455 -0.1327354 205.27570719 -0.14263147 C211.72583567 -0.06148025 215.8221747 1.69642227 220.77041626 5.97375488 C221.44783119 6.73757729 221.44783119 6.73757729 222.13893127 7.51683044 C222.66836838 8.10113327 223.19780548 8.6854361 223.74328613 9.28744507 C224.5674276 10.22071373 224.5674276 10.22071373 225.40821838 11.1728363 C226.63513618 12.52415095 227.8645518 13.87320112 229.09620667 15.22019958 C229.72682007 15.91075439 230.35743347 16.6013092 231.00715637 17.31278992 C234.12771115 20.67038636 237.36637865 23.90485469 240.61915588 27.1337738 C241.25696991 27.76820404 241.89478394 28.40263428 242.55192566 29.05628967 C244.49021111 30.98137849 246.43117177 32.90372808 248.37306213 34.82518005 C262.90572627 49.20778349 262.90572627 49.20778349 268.09010315 55.32835388 C270.61110796 58.14151377 273.29057563 60.77789853 275.98243713 63.42674255 C276.52497635 63.9614064 277.06751556 64.49607025 277.62649536 65.04693604 C279.88358091 67.2675232 282.14343291 69.48511183 284.41261292 71.69334412 C286.08857395 73.32682138 287.75480374 74.96973886 289.41993713 76.61424255 C289.92933838 77.10502289 290.43873962 77.59580322 290.96357727 78.10145569 C295.99757136 83.09904846 298.08476986 87.14291828 298.29632568 94.23432922 C298.30500873 96.64335007 298.29707877 99.05246504 298.27613831 101.46141052 C298.27657639 102.77901871 298.27701447 104.09662689 298.27746582 105.4541626 C298.27832442 109.05505592 298.26072093 112.65564773 298.23974395 116.25647116 C298.22095437 120.02407891 298.21922491 123.79169405 298.21566772 127.55934143 C298.20635394 134.68844229 298.18174925 141.81740467 298.15161926 148.94644463 C298.11805444 157.06491034 298.10158401 165.18338277 298.08653295 173.30190063 C298.05519904 189.99724142 298.0024516 206.69244305 297.93556213 223.38768005 C299.0283548 223.376577 300.12114746 223.36547394 301.24705505 223.35403442 C311.57458076 223.25242249 321.90200428 223.17760168 332.22991753 223.12861919 C337.538913 223.10258957 342.84750306 223.06731301 348.15626526 223.01048279 C353.28508075 222.95592608 358.41350769 222.92620967 363.54259109 222.91329384 C365.49373104 222.90409632 367.4448511 222.88613591 369.39582443 222.85902977 C388.83562127 222.5998229 388.83562127 222.5998229 396.93556213 228.38768005 C397.84306213 228.94455505 398.75056213 229.50143005 399.68556213 230.07518005 C404.69981209 235.22871473 409.04842007 242.06786014 409.07257652 249.39897251 C409.08018834 250.62657869 409.08018834 250.62657869 409.08795393 251.87898499 C409.08845168 252.77779812 409.08894944 253.67661124 409.08946228 254.60266113 C409.09384453 255.55780355 409.09822679 256.51294598 409.10274184 257.49703211 C409.11614421 260.71196685 409.12231198 263.92687417 409.12843323 267.14183044 C409.13633315 269.44129053 409.14460203 271.74074938 409.1532135 274.04020691 C409.17944951 281.60523797 409.1947442 289.17027461 409.20899963 296.7353363 C409.21435894 299.3387903 409.21973645 301.94224425 409.22513199 304.54569817 C409.24676434 315.37597353 409.26565191 326.20624657 409.27675438 337.03653812 C409.27968398 339.84686347 409.28264565 342.65718878 409.28565979 345.46751404 C409.28640584 346.1659889 409.28715189 346.86446376 409.28792055 347.58410453 C409.30056499 358.89042325 409.33377586 370.19658439 409.37546162 381.5028295 C409.41793155 393.1172442 409.44104804 404.73156999 409.44667494 416.34606165 C409.45032803 422.86449934 409.46234519 429.38267 409.49477768 435.9010334 C409.52486679 442.03652713 409.53116673 448.17159238 409.51939392 454.30714417 C409.51917325 456.55570511 409.5274727 458.80428598 409.54504776 461.05277824 C409.56778791 464.13030261 409.55942101 467.20627968 409.54356384 470.28381348 C409.55744593 471.16701155 409.57132802 472.05020963 409.58563077 472.96017128 C409.48582057 480.85910283 406.30583905 486.52500655 402.24806213 493.13768005 C395.77576382 499.43505139 388.7794742 502.50341517 379.84655762 502.5415802 C378.75686238 502.54815358 378.75686238 502.54815358 377.64515311 502.55485976 C375.2041117 502.56824369 372.76310639 502.57442577 370.32203674 502.58055115 C368.57429339 502.58845261 366.82655166 502.59672159 365.07881165 502.60533142 C359.33185891 502.63155257 353.58489889 502.64686197 347.83790588 502.66111755 C345.85851601 502.66647773 343.87912618 502.67185524 341.8997364 502.67724991 C333.66355871 502.69888128 325.42738296 502.71761636 317.19118404 502.7288723 C305.39513761 502.74509985 293.59942119 502.77824574 281.80349916 502.83527315 C273.50611111 502.87401571 265.20881116 502.89351027 256.91133505 502.89879286 C251.95781904 502.9024412 247.00465501 502.91440698 242.05123711 502.9468956 C237.38653488 502.97705113 232.72239619 502.98326145 228.05761719 502.97151184 C226.35087034 502.97129171 224.64409678 502.97954629 222.93744087 502.99716568 C211.25768372 503.11112579 201.74093211 501.89953769 192.93556213 493.38768005 C192.93556213 492.72768005 192.93556213 492.06768005 192.93556213 491.38768005 C192.37922447 491.38919894 191.8228868 491.39071782 191.24969041 491.39228272 C158.28175979 491.48178134 125.31385961 491.55041933 92.34583475 491.59194137 C88.38795071 491.59694424 84.43006691 491.60212153 80.47218323 491.60740662 C79.29026057 491.60898048 79.29026057 491.60898048 78.08446069 491.61058614 C65.3235526 491.62799472 52.56271655 491.6595349 39.8018512 491.69629124 C26.70950305 491.73368806 13.61719264 491.75591324 0.52479327 491.76403403 C-7.55493839 491.76952443 -15.63446646 491.78686967 -23.71413545 491.81934592 C-29.90806604 491.84297529 -36.10184119 491.84550307 -42.2958107 491.84011078 C-44.83791865 491.84121312 -47.38003415 491.84919486 -49.92209625 491.86450195 C-53.38849974 491.88435483 -56.85402676 491.87963549 -60.32044983 491.86869812 C-61.33018313 491.88034949 -62.33991643 491.89200085 -63.38024771 491.90400529 C-69.1275143 491.85487028 -72.53836266 491.29326615 -77.06443787 487.38768005 C-81.32673613 482.54939553 -82.18943286 480.15767492 -82.20145226 473.74239826 C-82.20410408 473.04826616 -82.20675591 472.35413407 -82.20948809 471.63896766 C-82.21720867 469.28967355 -82.21774131 466.94043147 -82.21833801 464.59112549 C-82.22235082 462.89909425 -82.22678874 461.20706397 -82.23161757 459.51503485 C-82.2436092 454.84702171 -82.2492375 450.17901891 -82.25379872 445.51099336 C-82.25974503 440.48357421 -82.27135729 435.45616749 -82.28208923 430.42875671 C-82.30663559 418.27817635 -82.32124368 406.12759185 -82.3341493 393.97699431 C-82.33785961 390.54677787 -82.34183297 387.11656184 -82.34590197 383.68634582 C-82.37113687 362.39852313 -82.39319639 341.11069983 -82.40563011 319.82286549 C-82.40855995 314.88963633 -82.4115216 309.9564072 -82.41453552 305.0231781 C-82.41528157 303.79700261 -82.41602762 302.57082711 -82.41679628 301.30749478 C-82.42945399 281.43743809 -82.46268129 261.5674708 -82.50433736 241.69745592 C-82.54672717 221.31080447 -82.57032174 200.92419883 -82.57555068 180.53750342 C-82.57896815 169.08566935 -82.59076294 157.63397499 -82.62365341 146.18218422 C-82.65161451 136.43053873 -82.66267058 126.67906157 -82.65145795 116.92737911 C-82.64626121 111.95028359 -82.64922396 106.97354079 -82.67392349 101.9964962 C-82.69634322 97.44088618 -82.69573298 92.88588372 -82.67671962 88.33026358 C-82.67390936 86.68148003 -82.67957491 85.03265591 -82.69453256 83.38393781 C-82.81257129 69.52665688 -82.81257129 69.52665688 -79.69684792 64.98107433 C-75.56128755 60.9068084 -72.30976352 59.27252382 -66.54100037 59.0947113 C-64.92355105 59.1144363 -63.30622573 59.14989718 -61.68943787 59.20018005 C-60.85799255 59.21371521 -60.02654724 59.22725037 -59.16990662 59.24119568 C-57.13446721 59.27628946 -55.09936496 59.33008778 -53.06443787 59.38768005 C-53.11084412 58.38607849 -53.15725037 57.38447693 -53.20506287 56.3525238 C-53.65643295 42.68613592 -53.65643295 42.68613592 -49.06443787 37.38768005 C-42.98686301 32.91839961 -38.01860501 32.88760413 -30.62693787 33.13768005 C-29.60922302 33.15572693 -28.59150818 33.1737738 -27.54295349 33.19236755 C-25.04912131 33.23920008 -22.5572874 33.30476578 -20.06443787 33.38768005 C-20.09062195 32.72759949 -20.11680603 32.06751892 -20.14378357 31.38743591 C-20.2483772 28.36693071 -20.31295907 25.34680742 -20.37693787 22.32518005 C-20.4188324 21.28684021 -20.46072693 20.24850037 -20.50389099 19.17869568 C-20.59542871 13.41181948 -20.31264317 9.4276826 -16.73313904 4.79222107 C-11.4657002 0.35863283 -6.56066692 -0.04707218 0 0 Z M-7.06443787 14.38768005 C-8.19986139 17.79395062 -8.19097837 20.38386289 -8.19307232 23.97698116 C-8.19482536 24.65290541 -8.19657839 25.32882966 -8.19838455 26.02523646 C-8.20306322 28.30654784 -8.20057428 30.587796 -8.19815063 32.86911011 C-8.20001767 34.51464438 -8.20231793 36.16017821 -8.20501596 37.80571133 C-8.21115365 42.34044382 -8.21099806 46.87515793 -8.20982158 51.40989363 C-8.20961807 56.29544653 -8.21513153 61.18099345 -8.21987915 66.06654358 C-8.22819687 75.64273057 -8.23093449 85.2189114 -8.23149153 94.79510169 C-8.23196613 102.57579483 -8.23401804 110.35648593 -8.23719215 118.13717842 C-8.24600151 140.17886619 -8.25061105 162.22054908 -8.24986168 184.26223861 C-8.24982172 185.45130275 -8.24978177 186.64036688 -8.2497406 187.86546326 C-8.24969972 189.0559728 -8.24965884 190.24648235 -8.24961672 191.47306795 C-8.24921009 210.77599807 -8.25878317 230.0789087 -8.27287897 249.38183319 C-8.28722588 269.18428618 -8.29415009 288.98672965 -8.29328519 308.78918797 C-8.29295265 319.91389448 -8.2957245 331.03858055 -8.30646324 342.16328239 C-8.31554608 351.63351762 -8.31776179 361.10372315 -8.31095382 370.57396083 C-8.30767746 375.4088092 -8.30767194 380.24360051 -8.31630707 385.07844353 C-8.32412391 389.50046219 -8.32279038 393.92237809 -8.31402294 398.3443941 C-8.31247726 399.94799935 -8.31434386 401.55161209 -8.31988301 403.15520852 C-8.32689316 405.32777773 -8.32168919 407.49998144 -8.31332684 409.6725378 C-8.3135442 410.88146 -8.31376157 412.09038219 -8.31398553 413.33593839 C-8.07290573 416.28412581 -7.70666436 417.95596241 -6.06443787 420.38768005 C-3.04323914 421.89827942 0.07593189 421.52109291 3.38920593 421.50793457 C4.16678973 421.508789 4.94437353 421.50964342 5.74552047 421.51052374 C8.36504308 421.51217789 10.9845024 421.50665822 13.60401917 421.50120544 C15.47621153 421.50092353 17.34840401 421.50108138 19.22059631 421.50164795 C24.31536634 421.50193577 29.41011299 421.49604154 34.50487757 421.48907399 C39.82469725 421.48283788 45.14451743 421.48223645 50.46434021 421.48104858 C60.54366309 421.47793603 70.62297516 421.46972366 80.70229328 421.45969909 C92.17491315 421.44853561 103.64753353 421.44302691 115.12015748 421.43800366 C138.72529974 421.42754099 162.33042718 421.40919644 185.93556213 421.38768005 C185.93556213 403.56768005 185.93556213 385.74768005 185.93556213 367.38768005 C170.75556213 367.05768005 155.57556213 366.72768005 139.93556213 366.38768005 C138.56603541 363.6486266 138.80934852 361.41680673 138.93556213 358.38768005 C139.26556213 357.72768005 139.59556213 357.06768005 139.93556213 356.38768005 C155.11556213 356.05768005 170.29556213 355.72768005 185.93556213 355.38768005 C185.93556213 342.18768005 185.93556213 328.98768005 185.93556213 315.38768005 C175.82339479 315.46681965 175.82339479 315.46681965 165.71144104 315.56785583 C163.83077942 315.57534851 163.83077942 315.57534851 161.91212463 315.58299255 C160.6238678 315.59346619 159.33561096 315.60393982 158.00831604 315.61473083 C154.93556213 315.38768005 154.93556213 315.38768005 152.93556213 313.38768005 C152.68556213 310.38768005 152.68556213 310.38768005 152.93556213 307.38768005 C154.93556213 305.38768005 154.93556213 305.38768005 158.00831604 305.16062927 C159.29657288 305.17110291 160.58482971 305.18157654 161.91212463 305.19236755 C162.93999588 305.1966124 162.93999588 305.1966124 163.9886322 305.20094299 C166.1794524 305.21214724 168.36986529 305.23725147 170.56056213 305.26268005 C172.04493123 305.27270957 173.52930674 305.28183547 175.01368713 305.2900238 C178.65444474 305.31208711 182.2949637 305.3466183 185.93556213 305.38768005 C185.93698715 304.6582016 185.93841217 303.92872314 185.93988037 303.17713928 C185.95779582 296.2633894 185.99966054 289.35014256 186.0676527 282.43671608 C186.10177554 278.88334023 186.12700944 275.33038757 186.13111877 271.77684021 C186.13626179 267.6804668 186.18152277 263.58535115 186.22853088 259.48924255 C186.22459824 258.22842865 186.22066559 256.96761475 186.21661377 255.66859436 C186.36837012 246.39399029 188.32573996 239.77800432 194.24806213 232.57518005 C201.10063337 226.99750579 206.5282368 224.25375527 215.43629456 224.18235779 C216.20980664 224.17232507 216.98331873 224.16229235 217.78027058 224.1519556 C220.28382689 224.12057634 222.78739904 224.09580181 225.29103088 224.0712738 C226.8368125 224.05286983 228.38258902 224.03403312 229.92835999 224.01475525 C235.65986711 223.94631554 241.39147183 223.88625765 247.12306213 223.82518005 C266.33524963 223.60861755 266.33524963 223.60861755 285.93556213 223.38768005 C285.93556213 181.47768005 285.93556213 139.56768005 285.93556213 96.38768005 C261.18556213 95.89268005 261.18556213 95.89268005 235.93556213 95.38768005 C221.27031248 90.054862 212.60798927 83.67338946 205.88087463 69.68455505 C204.28961286 65.81818347 203.80259599 62.42791961 203.73023987 58.25193787 C203.71029465 57.23118164 203.69034943 56.21042542 203.6697998 55.15873718 C203.64473106 53.51636078 203.64473106 53.51636078 203.61915588 51.84080505 C203.59837479 50.71446655 203.57759369 49.58812805 203.55618286 48.42765808 C203.49081881 44.83106056 203.43186328 41.23439028 203.37306213 37.63768005 C203.32986443 35.19887046 203.28624974 32.76006821 203.24220276 30.3212738 C203.13515083 24.34348605 203.03335996 18.36562598 202.93556213 12.38768005 C176.14558908 12.34099719 149.35562211 12.30570944 122.56561661 12.28405571 C110.12706901 12.2737351 97.68854666 12.25965978 85.25001526 12.23680115 C74.41091163 12.2168913 63.57182628 12.20396933 52.73270488 12.19950306 C46.9913944 12.19689161 41.25013622 12.19073725 35.50884247 12.17621994 C30.10810551 12.16267402 24.70744255 12.15845135 19.30669022 12.16146469 C17.32169569 12.16091319 15.33669877 12.156918 13.3517189 12.1492691 C10.6467665 12.13935468 7.94209542 12.14169836 5.23713684 12.14717102 C4.44725286 12.14134534 3.65736887 12.13551965 2.84354901 12.12951744 C-2.4490131 12.11131305 -2.4490131 12.11131305 -7.06443787 14.38768005 Z M214.93556213 20.38768005 C214.88555136 24.88595674 214.84955837 29.3840795 214.82569885 33.8825531 C214.81573614 35.40797246 214.80216104 36.93337321 214.78468323 38.45872498 C214.62802893 52.49771496 214.75548266 64.04326337 224.24806213 75.07518005 C235.56108862 84.80964471 247.25608451 84.68104277 261.56056213 84.51268005 C263.05664987 84.50262614 264.55274417 84.49350457 266.04884338 84.4853363 C269.6778884 84.46352313 273.30668198 84.42912746 276.93556213 84.38768005 C271.36868375 77.66592252 265.22704853 71.62058065 259.01173401 65.50291443 C255.42951386 61.95500126 251.89942446 58.42071835 248.62696838 54.58299255 C243.52399743 48.63855453 237.8676913 43.21477198 232.31056213 37.70018005 C231.18011833 36.57476549 230.04990841 35.44911594 228.91993713 34.32322693 C226.84373975 32.25512259 224.76619624 30.18839213 222.68702698 28.12327576 C220.09834763 25.54952668 217.51545968 22.97022275 214.93556213 20.38768005 Z M-40.06443787 47.38768005 C-41.19601815 50.78242091 -41.19451045 53.36238132 -41.20145226 56.94295311 C-41.20410408 57.61520101 -41.20675591 58.28744892 -41.20948809 58.98006797 C-41.21719138 61.248877 -41.21774066 63.517632 -41.21833801 65.78645325 C-41.22235193 67.42302576 -41.22679004 69.05959727 -41.23161757 70.69616759 C-41.24359633 75.20616056 -41.24923451 79.71614283 -41.25379872 84.22614861 C-41.2597497 89.08513976 -41.27136061 93.94411808 -41.28208923 98.80310059 C-41.30662191 110.54242194 -41.32124016 122.28174754 -41.3341493 134.02108663 C-41.33786012 137.33500139 -41.34183342 140.64891573 -41.34590197 143.96283007 C-41.37113357 164.52925926 -41.3931928 185.0956891 -41.40563011 205.66213036 C-41.40855993 210.42676674 -41.41152158 215.1914031 -41.41453552 219.95603943 C-41.41528157 221.14030544 -41.41602762 222.32457144 -41.41679628 223.5447243 C-41.42945905 242.74355128 -41.46269434 261.94228584 -41.50433736 281.14106958 C-41.5467128 300.83843548 -41.57031992 320.535754 -41.57555068 340.23316538 C-41.57896941 351.29815475 -41.59077921 362.36299959 -41.62365341 373.42794418 C-41.65159456 382.84804805 -41.66267933 392.26797778 -41.65145795 401.68811987 C-41.64625639 406.49688207 -41.64925493 411.30527924 -41.67392349 416.11398888 C-41.69630475 420.51340931 -41.6957635 424.91220016 -41.67671962 429.3116308 C-41.67390393 430.90584077 -41.67960464 432.50009243 -41.69453256 434.09423499 C-41.71355356 436.2571711 -41.701912 438.41784226 -41.68247032 440.58072472 C-41.68382685 441.78319167 -41.68518338 442.98565861 -41.68658102 444.22456396 C-40.87562035 448.34767089 -39.34463945 449.83620492 -36.06443787 452.38768005 C-34.05110965 453.10838836 -34.05110965 453.10838836 -31.98214245 453.0029192 C-31.19887339 453.01287444 -30.41560433 453.02282968 -29.60859984 453.0330866 C-28.75937353 453.01852239 -27.91014721 453.00395818 -27.03518677 452.98895264 C-26.12436602 452.99322476 -25.21354527 452.99749689 -24.27512389 453.00189847 C-21.22221766 453.01013628 -18.17068437 452.98262996 -15.11790466 452.95530701 C-12.93000318 452.95389671 -10.74209933 452.95468815 -8.55419922 452.95751953 C-2.61232923 452.95895579 3.32903745 452.92953137 9.27079034 452.89464974 C15.47943088 452.8634216 21.68808259 452.86045829 27.89678955 452.85452271 C38.98619164 452.83985812 50.07538522 452.80373858 61.16469213 452.75630911 C71.23031245 452.71348618 81.29589566 452.68226217 91.36158752 452.66233826 C92.35428663 452.66036783 92.35428663 452.66036783 93.36704025 452.6583576 C96.68715059 452.65183233 100.00726129 452.64552508 103.32737219 452.63929808 C130.8635686 452.58701641 158.39954259 452.49804817 185.93556213 452.38768005 C185.93556213 446.11768005 185.93556213 439.84768005 185.93556213 433.38768005 C183.49338287 433.38403442 181.05120361 433.38038879 178.53501892 433.37663269 C155.55018577 433.340428 132.56548351 433.2822573 109.58075523 433.20377731 C97.76331223 433.16395715 85.9459361 433.13157976 74.12843323 433.11668396 C63.82906301 433.10368291 53.52983977 433.07675774 43.23055232 433.03306699 C37.77643923 433.01041748 32.32250765 432.99477147 26.86834335 432.9957962 C21.73502405 432.99654075 16.60210652 432.97867257 11.46889114 432.94651222 C9.58473797 432.93799152 7.70053985 432.93627798 5.81637573 432.94187737 C3.24311567 432.94850616 0.67113813 432.93062429 -1.9019928 432.90666199 C-3.01971602 432.91830261 -3.01971602 432.91830261 -4.16001952 432.9301784 C-9.26195326 432.84610538 -12.19059621 431.68669391 -16.06443787 428.38768005 C-18.94400244 424.47108443 -19.4412135 421.69055499 -19.44919872 416.86907482 C-19.45434863 416.22510035 -19.45949854 415.58112587 -19.4648045 414.91763702 C-19.47843474 412.75691841 -19.47073556 410.59680637 -19.46316528 408.43606567 C-19.46860388 406.8725709 -19.47535507 405.30908024 -19.48330718 403.74559623 C-19.50136485 399.44705028 -19.50077148 395.1486768 -19.49717772 390.85010183 C-19.49655484 386.21548939 -19.51316483 381.58093531 -19.5276947 376.9463501 C-19.55050635 368.91588601 -19.56237024 360.88546537 -19.56682396 352.85497093 C-19.5732791 341.24419819 -19.59620527 329.63350408 -19.62316725 318.02276299 C-19.66646195 299.18567283 -19.69641338 280.34858597 -19.71800232 261.51145935 C-19.73900397 243.21163813 -19.76627196 224.91184397 -19.80198669 206.61204529 C-19.80528493 204.92038922 -19.80528493 204.92038922 -19.8086498 203.19455829 C-19.81971925 197.53693232 -19.8309121 191.8793066 -19.8421663 186.221681 C-19.93538938 139.27703789 -20.00696975 92.33237963 -20.06443787 45.38768005 C-22.64805305 45.33360439 -25.23053041 45.29397305 -27.81443787 45.26268005 C-28.54404724 45.24592224 -29.27365662 45.22916443 -30.02537537 45.2118988 C-35.38994147 45.10305377 -35.38994147 45.10305377 -40.06443787 47.38768005 Z M-69.06443787 73.38768005 C-70.19745924 76.78674417 -70.19451878 79.37325699 -70.20145226 82.95857048 C-70.20410408 83.63250676 -70.20675591 84.30644303 -70.20948809 85.00080162 C-70.2171915 87.27535402 -70.21774066 89.54985253 -70.21833801 91.82441711 C-70.22235192 93.46511442 -70.22679003 95.10581074 -70.23161757 96.74650586 C-70.24359642 101.26790041 -70.24923453 105.78928428 -70.25379872 110.3106916 C-70.25974966 115.18195278 -70.27136059 120.05320117 -70.28208923 124.92445374 C-70.30662199 136.69343795 -70.32124017 148.46242641 -70.3341493 160.23142833 C-70.33786011 163.55371213 -70.34183342 166.87599552 -70.34590197 170.1982789 C-70.37113357 190.81660897 -70.39319282 211.43493968 -70.40563011 232.05328178 C-70.40855994 236.82994972 -70.41152158 241.60661764 -70.41453552 246.38328552 C-70.41528157 247.57054214 -70.41602762 248.75779877 -70.41679628 249.98103286 C-70.42945906 269.22835868 -70.46269436 288.4755923 -70.50433736 307.72287498 C-70.5467127 327.46996143 -70.57031991 347.21700062 -70.57555068 366.96413243 C-70.57896942 378.05706731 -70.59077936 389.14985804 -70.62365341 400.24274826 C-70.65159443 409.68664058 -70.66267939 419.13035921 -70.65145795 428.57428966 C-70.64625635 433.39520311 -70.64925516 438.21575245 -70.67392349 443.03661346 C-70.69630447 447.44713592 -70.69576371 451.85703037 -70.67671962 456.267563 C-70.67390389 457.8658106 -70.67960485 459.46409979 -70.69453256 461.06228016 C-70.71355302 463.2306602 -70.70191231 465.39678085 -70.68247032 467.56510735 C-70.68382685 468.77061206 -70.68518338 469.97611677 -70.68658102 471.21815193 C-69.87411493 475.35728635 -68.37310849 476.84177805 -65.06443787 479.38768005 C-62.84984227 480.11266726 -62.84984227 480.11266726 -60.5292387 480.0029192 C-59.64495117 480.01287444 -58.76066364 480.02282968 -57.84957951 480.0330866 C-56.8875157 480.01852239 -55.92545188 480.00395818 -54.93423462 479.98895264 C-53.90499085 479.99322476 -52.87574709 479.99749689 -51.81531411 480.00189847 C-48.36170041 480.0101434 -44.90929736 479.98261705 -41.45579529 479.95530701 C-38.98218311 479.95389687 -36.50856884 479.95468784 -34.03495789 479.95751953 C-28.70701681 479.95865863 -23.37945358 479.94446493 -18.05161095 479.91633034 C-10.34853192 479.87567939 -2.6456009 479.86267153 5.05757376 479.85639038 C17.55564278 479.84544966 30.05354854 479.8121816 42.55152893 479.76487732 C54.69149458 479.71897591 66.83141588 479.68358688 78.97145081 479.66233826 C79.71987308 479.66102464 80.46829535 479.65971102 81.23939709 479.6583576 C84.99404552 479.65183237 88.74869427 479.64551384 92.50334322 479.63929808 C123.6475349 479.58747201 154.79152372 479.49904099 185.93556213 479.38768005 C185.93556213 474.43768005 185.93556213 469.48768005 185.93556213 464.38768005 C184.76604193 464.38621349 183.59652172 464.38474693 182.39156151 464.38323593 C154.62910696 464.34753345 126.86675587 464.2912916 99.10439648 464.2097591 C95.68727895 464.19974165 92.27016094 464.18989752 88.8530426 464.18016052 C88.1727563 464.17821915 87.49246999 464.17627778 86.79156895 464.17427757 C75.77666613 464.14325701 64.76178415 464.12627678 53.74684589 464.11448583 C42.44437594 464.10207454 31.14201466 464.07427629 19.83960688 464.03306699 C13.49123818 464.01040852 7.14302561 463.99477201 0.79461288 463.9957962 C-5.17915734 463.99654021 -11.15258185 463.97869338 -17.12626266 463.94651222 C-19.32002944 463.9379848 -21.51383487 463.93628247 -23.70761108 463.94187737 C-26.70119651 463.94849582 -29.69367509 463.93064764 -32.68714905 463.90666199 C-33.99163779 463.91830261 -33.99163779 463.91830261 -35.32247984 463.9301784 C-40.70163712 463.85379363 -43.87632372 463.07057064 -48.06443787 459.38768005 C-51.47936997 455.02470341 -52.56500363 452.20628319 -52.57224655 446.68355751 C-52.58170218 445.70573479 -52.58170218 445.70573479 -52.59134883 444.70815808 C-52.60759653 442.52639511 -52.59545168 440.34573229 -52.5834198 438.16395569 C-52.58929595 436.58309638 -52.59692346 435.00224277 -52.60615087 433.42139947 C-52.62642737 429.07945417 -52.62185301 424.73783529 -52.61324334 420.39586425 C-52.60830323 415.71286179 -52.62637752 411.02994181 -52.6416626 406.3469696 C-52.66499004 398.234113 -52.67372246 390.12134581 -52.67255402 382.00845718 C-52.67088572 370.27859047 -52.69120995 358.54884307 -52.71690932 346.81900816 C-52.75800675 327.78835643 -52.78130741 308.75772613 -52.79344177 289.72703552 C-52.80526752 271.24003539 -52.82545898 252.75307563 -52.85691833 234.26609802 C-52.85885444 233.12664205 -52.86079054 231.98718608 -52.86278531 230.81320114 C-52.87254979 225.09690949 -52.88247891 219.38061813 -52.89248991 213.66432691 C-52.97533365 166.23879776 -53.02930575 118.81326689 -53.06443787 71.38768005 C-55.16832356 71.33365731 -57.272605 71.2948775 -59.37693787 71.26268005 C-60.54869568 71.23947693 -61.72045349 71.2162738 -62.92771912 71.19236755 C-66.22837447 71.13447387 -66.22837447 71.13447387 -69.06443787 73.38768005 Z M204.56056213 240.76268005 C203.91345276 241.34791443 203.26634338 241.9331488 202.59962463 242.53611755 C190.31926311 256.20018178 197.93556213 301.97538097 197.93556213 304.38768005 C263.93556213 304.38768005 329.93556213 304.38768005 397.93556213 304.38768005 C401.56549766 274.18064771 401.56549766 274.18064771 391.93556213 240.38768005 C386.01012938 235.97182183 380.40580138 235.26414049 373.20001221 235.25396729 C372.53576557 235.25170173 371.87151894 235.24943617 371.18714362 235.24710196 C368.9687438 235.24078869 366.75040548 235.24158961 364.53199768 235.24241638 C362.93834861 235.2394232 361.34470026 235.23602031 359.75105286 235.23223877 C355.42656566 235.22341026 351.10209825 235.22106112 346.77760291 235.22042298 C344.07407218 235.21971177 341.37054647 235.2175761 338.66701698 235.21492577 C329.23024298 235.20567583 319.7934831 235.2015904 310.35670471 235.20237732 C301.56862989 235.20297787 292.7806165 235.19242952 283.99255723 235.17663366 C276.44079859 235.16354501 268.88906 235.15819399 261.33729011 235.15883273 C256.83000867 235.15908735 252.32278182 235.1562562 247.8155117 235.14565468 C243.57443756 235.13595154 239.33346994 235.13590969 235.09239197 235.14317131 C233.53962867 235.14421443 231.98685865 235.1418705 230.43410683 235.13581085 C216.50463012 234.6225422 216.50463012 234.6225422 204.56056213 240.76268005 Z M197.93556213 316.38768005 C197.89431213 341.79768005 197.85306213 367.20768005 197.81056213 393.38768005 C197.79235413 401.40693787 197.77414612 409.42619568 197.75538635 417.6884613 C197.74869692 424.88535986 197.74869692 424.88535986 197.74467468 432.08226013 C197.7428136 435.28443684 197.73532737 438.48654704 197.72441101 441.68870544 C197.71065556 445.77807263 197.70658674 449.86734362 197.70941758 453.9567318 C197.70882595 455.45452094 197.70488216 456.95231357 197.69713187 458.45008278 C197.22847159 472.09062108 197.22847159 472.09062108 203.31056213 483.76268005 C203.89579651 484.40978943 204.48103088 485.0568988 205.08399963 485.72361755 C210.42571575 490.52440039 216.88224524 490.51079217 223.78463745 490.52812195 C224.44903294 490.53109307 225.11342843 490.53406419 225.79795712 490.53712535 C228.01091203 490.54575538 230.22381248 490.54731573 232.43678284 490.54881287 C234.02895726 490.55344502 235.62113057 490.55847021 237.21330261 490.56385803 C241.52952925 490.57694435 245.84574036 490.58341942 250.16198373 490.58786869 C252.86133993 490.59080505 255.56069193 490.59491088 258.26004601 490.59937286 C266.71385214 490.61303685 275.16764862 490.62270931 283.62146503 490.62657475 C293.36539325 490.63105523 303.10918117 490.64860724 312.85306674 490.67757535 C320.39551939 490.69921716 327.93793264 490.70928034 335.480416 490.71061587 C339.98048155 490.71166196 344.48041503 490.71752804 348.98044777 490.73543549 C353.21500783 490.75195984 357.44933711 490.7540506 361.683918 490.74529648 C363.23304171 490.74452848 364.78217806 490.74883739 366.33127022 490.75875473 C375.61260814 490.81466317 383.77164155 490.6431952 391.81056213 485.57518005 C397.56756739 479.64885111 398.06222108 472.68482034 398.05581665 464.78175354 C398.05719415 463.47202639 398.05857164 462.16229923 398.05999088 460.81288338 C398.05644468 459.36792606 398.05280679 457.92296897 398.04908752 456.47801208 C398.048781 454.92537374 398.04891501 453.37273525 398.04945278 451.82009697 C398.0496781 447.67048851 398.04389144 443.52090901 398.03684235 439.37130737 C398.03113818 435.4743389 398.03087872 431.57737739 398.03016663 427.68040466 C398.02492387 416.29115931 398.01096268 404.90191931 397.99806213 393.51268005 C397.97743713 368.06143005 397.95681213 342.61018005 397.93556213 316.38768005 C331.93556213 316.38768005 265.93556213 316.38768005 197.93556213 316.38768005 Z " fill="#000000" transform="translate(92.06443786621094,4.6123199462890625)"/>
<path d="M0 0 C17.85859751 15.14582864 28.93108359 37.28860328 30.9453125 60.578125 C30.9865625 61.26519531 31.0278125 61.95226562 31.0703125 62.66015625 C31.1115625 63.31628906 31.1528125 63.97242188 31.1953125 64.6484375 C31.93810654 89.2999148 22.78978868 112.31627901 6.26171875 130.40234375 C-8.59350477 145.94333271 -29.80194948 156.17762038 -51.38671875 156.8984375 C-79.77579663 157.39994802 -101.56589179 150.32207958 -122.5546875 130.53515625 C-140.20189682 112.25132321 -147.47107261 90.22034055 -147.3515625 65.05786133 C-146.81782965 41.69124774 -137.5006435 21.18553427 -121.5625 4.13671875 C-87.49081845 -27.91290454 -36.08543777 -29.40661093 0 0 Z M-95.9296875 1.66015625 C-94.56701595 5.39265498 -92.86537285 8.50265418 -90.65625 11.80078125 C-90.00197021 12.78087158 -89.34769043 13.76096191 -88.67358398 14.77075195 C-87.97434814 15.80675537 -87.2751123 16.84275879 -86.5546875 17.91015625 C-85.47973022 19.51346802 -85.47973022 19.51346802 -84.38305664 21.14916992 C-79.65379182 28.17747805 -74.82614478 35.12815403 -69.90380859 42.0222168 C-66.04145525 47.44662061 -62.41232909 52.98246943 -58.9296875 58.66015625 C-52.96850453 53.72018364 -47.51482448 48.37485763 -42.05859375 42.88671875 C-41.1362645 41.96297455 -40.21393524 41.03923035 -39.26365662 40.0874939 C-36.83334936 37.65340194 -34.40606254 35.21632028 -31.97943115 32.77856445 C-29.49399386 30.28282515 -27.00565818 27.78997917 -24.51757812 25.296875 C-19.65213654 20.42076765 -14.78988552 15.54148994 -9.9296875 10.66015625 C-21.53601876 -1.13955381 -37.5737785 -7.14929231 -53.9296875 -8.33984375 C-54.90615234 -8.42105469 -54.90615234 -8.42105469 -55.90234375 -8.50390625 C-70.27867672 -9.11330765 -83.24659054 -4.57043647 -95.9296875 1.66015625 Z M-115.9296875 17.66015625 C-130.97676655 35.64636751 -135.81703933 56.74652546 -133.9296875 79.66015625 C-131.50884304 98.92184053 -120.15690684 116.65958558 -105.1171875 128.53515625 C-86.30884619 141.74462276 -65.40705918 146.92460912 -42.68359375 143.03515625 C-23.63962252 138.52102974 -5.62462041 127.29168327 5.0703125 110.66015625 C11.62871844 99.19504624 15.73919655 88.97131573 17.0703125 75.66015625 C-9.6596875 75.33015625 -36.3896875 75.00015625 -63.9296875 74.66015625 C-64.9196875 72.18515625 -64.9196875 72.18515625 -65.9296875 69.66015625 C-67.43112097 67.42475066 -68.95409928 65.25858541 -70.5546875 63.09765625 C-71.47151397 61.83699938 -72.3868612 60.57526548 -73.30078125 59.3125 C-73.75179199 58.68972168 -74.20280273 58.06694336 -74.66748047 57.42529297 C-76.37340862 55.03963328 -78.00108404 52.60739863 -79.6171875 50.16015625 C-92.65336969 29.96414373 -92.65336969 29.96414373 -106.9296875 10.66015625 C-110.06905296 10.66015625 -113.85599495 15.60130229 -115.9296875 17.66015625 Z M-4.99047852 23.59155273 C-5.85129532 24.44921738 -6.71211212 25.30688202 -7.59901428 26.1905365 C-8.54400169 27.13731367 -9.48885839 28.08422132 -10.43359375 29.03125 C-11.39608852 29.99307176 -12.35873175 30.95474498 -13.32151794 31.91627502 C-15.34154771 33.93482769 -17.35975036 35.9551854 -19.37670898 37.97680664 C-21.96836695 40.5741619 -24.56448718 43.16700319 -27.16198826 45.75851345 C-29.15141803 47.74433792 -31.13846991 49.73252793 -33.12479973 51.72145271 C-34.08139461 52.67871695 -35.03873912 53.63523265 -35.99682808 54.59100151 C-37.33306208 55.92470953 -38.66577035 57.26194718 -39.99829102 58.59936523 C-40.75916519 59.361035 -41.52003937 60.12270477 -42.30397034 60.90745544 C-44.04302896 62.38391921 -44.04302896 62.38391921 -43.9296875 63.66015625 C-23.7996875 63.66015625 -3.6696875 63.66015625 17.0703125 63.66015625 C17.0703125 47.22529862 11.1048425 31.92696879 0.0703125 19.66015625 C-1.95607506 19.66015625 -3.67952858 22.28197213 -4.99047852 23.59155273 Z " fill="#000000" transform="translate(288.9296875,85.33984375)"/>
<path d="M0 0 C0.66591675 -0.00311998 1.33183351 -0.00623996 2.01792955 -0.00945449 C4.2597225 -0.01746154 6.5012468 -0.01110048 8.74304199 -0.00482178 C10.34598449 -0.00753044 11.94892574 -0.01109067 13.55186462 -0.01544189 C17.9133425 -0.02458299 22.27472608 -0.02101459 26.63620567 -0.01468372 C31.19301998 -0.00963261 35.74982602 -0.01431269 40.30664062 -0.01745605 C47.96009781 -0.0210983 55.61351644 -0.01628984 63.26696777 -0.0067749 C72.12497373 0.00411015 80.98288763 0.00058475 89.84089136 -0.01042771 C97.43581256 -0.01949324 105.03070599 -0.02078947 112.62563086 -0.01555037 C117.16629388 -0.01242662 121.70691358 -0.0120324 126.24757385 -0.01862335 C130.5156849 -0.02438554 134.78367685 -0.02042071 139.05177498 -0.00883484 C140.62156539 -0.00618219 142.19136577 -0.00696359 143.76115227 -0.01136017 C145.8974644 -0.0167934 148.03339047 -0.01000902 150.16967773 0 C151.36725456 0.00075405 152.56483139 0.0015081 153.79869843 0.002285 C156.58483887 0.25396729 156.58483887 0.25396729 158.58483887 2.25396729 C158.83880615 4.11346436 158.83880615 4.11346436 158.84362793 6.39654541 C158.84993225 7.2508313 158.85623657 8.10511719 158.86273193 8.98529053 C158.85665924 10.37125427 158.85665924 10.37125427 158.85046387 11.78521729 C158.85237732 12.73207397 158.85429077 13.67893066 158.85626221 14.65447998 C158.85762459 16.658511 158.85392443 18.66255083 158.84558105 20.66656494 C158.83488234 23.74147282 158.84547458 26.81579642 158.85827637 29.89068604 C158.85695478 31.83469775 158.85439241 33.77870909 158.85046387 35.72271729 C158.85451233 36.64669312 158.85856079 37.57066895 158.86273193 38.52264404 C158.85327545 39.80407288 158.85327545 39.80407288 158.84362793 41.11138916 C158.84203674 41.86480591 158.84044556 42.61822266 158.83880615 43.39447021 C158.58483887 45.25396729 158.58483887 45.25396729 156.58483887 47.25396729 C153.79869843 47.50564957 153.79869843 47.50564957 150.16967773 47.50793457 C149.50376098 47.51105455 148.83784423 47.51417453 148.15174818 47.51738906 C145.90995523 47.52539611 143.66843093 47.51903505 141.42663574 47.51275635 C139.82369324 47.51546501 138.22075199 47.51902524 136.61781311 47.52337646 C132.25633523 47.53251756 127.89495165 47.52894916 123.53347206 47.52261829 C118.97665776 47.51756718 114.41985172 47.52224726 109.86303711 47.52539062 C102.20957993 47.52903287 94.5561613 47.52422441 86.90270996 47.51470947 C78.044704 47.50382442 69.1867901 47.50734982 60.32878637 47.51836228 C52.73386517 47.52742781 45.13897174 47.52872404 37.54404688 47.52348495 C33.00338386 47.52036119 28.46276415 47.51996697 23.92210388 47.52655792 C19.65399284 47.53232011 15.38600089 47.52835528 11.11790276 47.51676941 C9.54811234 47.51411676 7.97831197 47.51489816 6.40852547 47.51929474 C4.27221334 47.52472797 2.13628727 47.51794359 0 47.50793457 C-1.19757683 47.50718052 -2.39515366 47.50642647 -3.62902069 47.50564957 C-6.41516113 47.25396729 -6.41516113 47.25396729 -8.41516113 45.25396729 C-8.66912842 43.39447021 -8.66912842 43.39447021 -8.6739502 41.11138916 C-8.68025452 40.25710327 -8.68655884 39.40281738 -8.6930542 38.52264404 C-8.68900574 37.59866821 -8.68495728 36.67469238 -8.68078613 35.72271729 C-8.68269958 34.7758606 -8.68461304 33.82900391 -8.68658447 32.85345459 C-8.68794686 30.84942357 -8.68424669 28.84538374 -8.67590332 26.84136963 C-8.66520461 23.76646175 -8.67579685 20.69213815 -8.68859863 17.61724854 C-8.68727705 15.67323682 -8.68471468 13.72922548 -8.68078613 11.78521729 C-8.68685883 10.39925354 -8.68685883 10.39925354 -8.6930542 8.98529053 C-8.68674988 8.13100464 -8.68044556 7.27671875 -8.6739502 6.39654541 C-8.67235901 5.64312866 -8.67076782 4.88971191 -8.66912842 4.11346436 C-7.998721 -0.79512311 -3.96812133 0.00249852 0 0 Z M3.58483887 12.25396729 C3.58483887 19.84396729 3.58483887 27.43396729 3.58483887 35.25396729 C50.44483887 35.25396729 97.30483887 35.25396729 145.58483887 35.25396729 C145.58483887 27.66396729 145.58483887 20.07396729 145.58483887 12.25396729 C98.72483887 12.25396729 51.86483887 12.25396729 3.58483887 12.25396729 Z " fill="#000000" transform="translate(315.4151611328125,252.74603271484375)"/>
<path d="M0 0 C5.02584878 3.43922134 8.88082326 7.99773202 11.640625 13.40234375 C13.00747682 21.77431116 12.57701317 29.03763209 8.140625 36.46484375 C3.23365355 42.24030573 -2.52189519 45.68989205 -10.01171875 46.77734375 C-16.99356651 47.169996 -23.61186435 45.27366628 -28.94140625 40.6640625 C-34.88604626 34.21882122 -37.49230399 28.03414208 -37.203125 19.23828125 C-36.32055879 12.1175766 -33.0219325 6.70597147 -27.765625 1.90625 C-19.78779392 -4.12616735 -8.82994474 -4.46261596 0 0 Z M-20.859375 13.46484375 C-23.22068566 16.84938903 -24.12042173 19.45808583 -23.859375 23.52734375 C-23.08218931 27.79777461 -21.46070796 29.93624827 -17.859375 32.46484375 C-13.98011453 33.72658301 -10.85206375 33.90603875 -7.046875 32.21484375 C-2.49209495 28.57345975 -2.49209495 28.57345975 -0.984375 23.08984375 C-0.74303859 19.9926931 -0.82966206 18.54077682 -1.984375 15.58984375 C-5.17182657 11.97739864 -7.53056465 10.60721629 -12.359375 10.08984375 C-16.17115179 10.49824841 -17.92729271 11.02144184 -20.859375 13.46484375 Z " fill="#000000" transform="translate(402.859375,383.53515625)"/>
<path d="M0 0 C5.02584878 3.43922134 8.88082326 7.99773202 11.640625 13.40234375 C13.00747682 21.77431116 12.57701317 29.03763209 8.140625 36.46484375 C3.23365355 42.24030573 -2.52189519 45.68989205 -10.01171875 46.77734375 C-16.99356651 47.169996 -23.61186435 45.27366628 -28.94140625 40.6640625 C-34.88604626 34.21882122 -37.49230399 28.03414208 -37.203125 19.23828125 C-36.32055879 12.1175766 -33.0219325 6.70597147 -27.765625 1.90625 C-19.78779392 -4.12616735 -8.82994474 -4.46261596 0 0 Z M-20.859375 13.46484375 C-23.14794833 16.30583134 -23.82025863 18.23014554 -24.421875 21.83984375 C-23.66432057 26.72186119 -21.80236713 29.49717949 -17.859375 32.46484375 C-13.99634508 33.94077721 -10.87826483 33.91768368 -7.046875 32.21484375 C-6.325 31.63734375 -5.603125 31.05984375 -4.859375 30.46484375 C-4.281875 30.07296875 -3.704375 29.68109375 -3.109375 29.27734375 C-1.03737992 26.27295088 -0.75161163 23.0210351 -0.859375 19.46484375 C-2.0845823 15.85728891 -3.19002309 14.02263701 -6.109375 11.58984375 C-11.60918212 9.33992265 -16.21877823 9.72658524 -20.859375 13.46484375 Z " fill="#000000" transform="translate(459.859375,436.53515625)"/>
<path d="M0 0 C5.02584878 3.43922134 8.88082326 7.99773202 11.640625 13.40234375 C13.00747682 21.77431116 12.57701317 29.03763209 8.140625 36.46484375 C3.23365355 42.24030573 -2.52189519 45.68989205 -10.01171875 46.77734375 C-16.99356651 47.169996 -23.61186435 45.27366628 -28.94140625 40.6640625 C-34.88604626 34.21882122 -37.49230399 28.03414208 -37.203125 19.23828125 C-36.32055879 12.1175766 -33.0219325 6.70597147 -27.765625 1.90625 C-19.78779392 -4.12616735 -8.82994474 -4.46261596 0 0 Z M-20.859375 13.46484375 C-23.22068566 16.84938903 -24.12042173 19.45808583 -23.859375 23.52734375 C-23.08218931 27.79777461 -21.46070796 29.93624827 -17.859375 32.46484375 C-13.98011453 33.72658301 -10.85206375 33.90603875 -7.046875 32.21484375 C-2.51063511 28.5887239 -2.51063511 28.5887239 -0.921875 23.15234375 C-0.62691355 19.53021713 -0.86898319 18.44527152 -2.546875 15.02734375 C-5.85301307 11.36378534 -7.38234543 10.59911917 -12.296875 10.15234375 C-16.17713166 10.49271714 -17.88420972 10.98553935 -20.859375 13.46484375 Z " fill="#000000" transform="translate(402.859375,436.53515625)"/>
<path d="M0 0 C5.86957584 3.95365769 10.0834039 9.61566661 12.0703125 16.39453125 C13.05218045 23.64808073 11.83399095 30.09354148 8.0703125 36.39453125 C3.16334105 42.16999323 -2.59220769 45.61957955 -10.08203125 46.70703125 C-17.28462558 47.11209807 -23.82751266 45.12382364 -29.26953125 40.3359375 C-35.47098776 33.68591271 -37.44717673 28.25935866 -37.23828125 19.203125 C-36.45404299 12.06556414 -33.08569686 6.62967963 -27.8359375 1.8359375 C-19.8002568 -4.2402227 -8.87050659 -4.49884116 0 0 Z M-20.9296875 13.39453125 C-23.21826083 16.23551884 -23.89057113 18.15983304 -24.4921875 21.76953125 C-23.73463307 26.65154869 -21.87267963 29.42686699 -17.9296875 32.39453125 C-14.06665758 33.87046471 -10.94857733 33.84737118 -7.1171875 32.14453125 C-6.3953125 31.56703125 -5.6734375 30.98953125 -4.9296875 30.39453125 C-4.3521875 30.00265625 -3.7746875 29.61078125 -3.1796875 29.20703125 C-1.10769242 26.20263838 -0.82192413 22.9507226 -0.9296875 19.39453125 C-2.1548948 15.78697641 -3.26033559 13.95232451 -6.1796875 11.51953125 C-11.67949462 9.26961015 -16.28909073 9.65627274 -20.9296875 13.39453125 Z " fill="#000000" transform="translate(459.9296875,383.60546875)"/>
<path d="M0 0 C5.86957584 3.95365769 10.0834039 9.61566661 12.0703125 16.39453125 C13.05218045 23.64808073 11.83399095 30.09354148 8.0703125 36.39453125 C3.16334105 42.16999323 -2.59220769 45.61957955 -10.08203125 46.70703125 C-17.28462558 47.11209807 -23.82751266 45.12382364 -29.26953125 40.3359375 C-35.47098776 33.68591271 -37.44717673 28.25935866 -37.23828125 19.203125 C-36.45404299 12.06556414 -33.08569686 6.62967963 -27.8359375 1.8359375 C-19.8002568 -4.2402227 -8.87050659 -4.49884116 0 0 Z M-20.9296875 13.39453125 C-23.21826083 16.23551884 -23.89057113 18.15983304 -24.4921875 21.76953125 C-23.73463307 26.65154869 -21.87267963 29.42686699 -17.9296875 32.39453125 C-14.06665758 33.87046471 -10.94857733 33.84737118 -7.1171875 32.14453125 C-6.3953125 31.56703125 -5.6734375 30.98953125 -4.9296875 30.39453125 C-4.3521875 30.00265625 -3.7746875 29.61078125 -3.1796875 29.20703125 C-1.10769242 26.20263838 -0.82192413 22.9507226 -0.9296875 19.39453125 C-2.1548948 15.78697641 -3.26033559 13.95232451 -6.1796875 11.51953125 C-11.67949462 9.26961015 -16.28909073 9.65627274 -20.9296875 13.39453125 Z " fill="#000000" transform="translate(459.9296875,330.60546875)"/>
<path d="M0 0 C6.4303762 5.84277285 9.91220961 10.99781695 10.375 19.75 C10.19757511 26.30486415 8.52570289 32.02727005 4.234375 37.078125 C-1.23581235 42.20373361 -6.86452523 45.01511829 -14.375 45.4375 C-21.73435923 45.12028624 -27.92200653 42.62535081 -32.9375 37.1875 C-38.40770216 30.16912741 -40.06626983 23.79052689 -39 15 C-37.13854584 7.29357978 -32.30395476 2.53929137 -26 -2 C-17.97672252 -6.18605781 -7.36871758 -5.04246185 0 0 Z M-23 12 C-25.36131066 15.38454528 -26.26104673 17.99324208 -26 22.0625 C-25.22281431 26.33293086 -23.60133296 28.47140452 -20 31 C-16.12073953 32.26173926 -12.99268875 32.441195 -9.1875 30.75 C-4.63271995 27.108616 -4.63271995 27.108616 -3.125 21.625 C-2.88366359 18.52784935 -2.97028706 17.07593307 -4.125 14.125 C-7.31245157 10.51255489 -9.67118965 9.14237254 -14.5 8.625 C-18.31177679 9.03340466 -20.06791771 9.55659809 -23 12 Z " fill="#000000" transform="translate(405,332)"/>
<path d="M0 0 C6.33171041 4.78770726 10.1929991 10.80017344 11.4140625 18.66796875 C11.8362096 26.54434489 9.57371295 32.88849529 4.390625 38.8515625 C-0.70901908 43.60031364 -6.41995336 46.05791119 -13.375 46.4375 C-20.70093397 46.12172698 -26.90762679 43.62931703 -31.9375 38.25 C-36.53159258 32.38819791 -38.59781789 26.69611321 -38.27734375 19.22265625 C-37.3324032 11.6498228 -33.69764565 6.010381 -28 1 C-19.77870185 -4.52223046 -8.59958003 -5.11966523 0 0 Z M-22 13 C-24.36131066 16.38454528 -25.26104673 18.99324208 -25 23.0625 C-24.22281431 27.33293086 -22.60133296 29.47140452 -19 32 C-15.18721062 33.24011937 -12.03147481 33.42196697 -8.25 31.875 C-4.43747541 28.69789618 -2.23343806 26.60488664 -1.5 21.5625 C-2.17421328 16.75873035 -3.91551962 13.58132994 -7.8125 10.625 C-13.18997852 9.08857757 -17.65993952 9.38328293 -22 13 Z " fill="#000000" transform="translate(347,437)"/>
<path d="M0 0 C5.00928976 3.42788989 8.84346844 7.97862702 11.640625 13.33984375 C12.97758497 21.69584355 12.99154301 29.24297144 8.140625 36.46484375 C3.11505327 42.17976382 -2.46641129 45.68183631 -10.01171875 46.77734375 C-16.99955172 47.1703326 -23.56934616 45.25488696 -28.94140625 40.69921875 C-34.10945274 35.17212903 -36.90899027 29.55281571 -37.234375 21.96484375 C-36.90673132 14.32419303 -34.08426264 8.77497539 -28.8671875 3.23046875 C-20.75688838 -3.90154527 -9.57280556 -4.83805461 0 0 Z M-20.859375 13.46484375 C-23.22068566 16.84938903 -24.12042173 19.45808583 -23.859375 23.52734375 C-23.08218931 27.79777461 -21.46070796 29.93624827 -17.859375 32.46484375 C-13.69680591 33.84380182 -10.696851 33.74926956 -6.546875 32.33984375 C-3.51324326 30.22335649 -2.25810719 28.88396688 -0.859375 25.46484375 C-0.32588702 20.48562262 -0.68982303 17.39945999 -3.859375 13.46484375 C-9.25511546 9.11827505 -15.49805754 8.9970792 -20.859375 13.46484375 Z " fill="#000000" transform="translate(345.859375,330.53515625)"/>
<path d="M0 0 C5.00928976 3.42788989 8.84346844 7.97862702 11.640625 13.33984375 C13.11471397 22.55289981 12.57725498 29.6393915 7.140625 37.46484375 C2.51335284 42.78845299 -3.05650233 45.76007439 -10.015625 46.78125 C-17.00428696 47.16267345 -23.5676308 45.25634164 -28.94140625 40.69921875 C-34.10945274 35.17212903 -36.90899027 29.55281571 -37.234375 21.96484375 C-36.90673132 14.32419303 -34.08426264 8.77497539 -28.8671875 3.23046875 C-20.75688838 -3.90154527 -9.57280556 -4.83805461 0 0 Z M-20.859375 13.46484375 C-23.22068566 16.84938903 -24.12042173 19.45808583 -23.859375 23.52734375 C-23.08218931 27.79777461 -21.46070796 29.93624827 -17.859375 32.46484375 C-13.69680591 33.84380182 -10.696851 33.74926956 -6.546875 32.33984375 C-3.51324326 30.22335649 -2.25810719 28.88396688 -0.859375 25.46484375 C-0.30980125 21.14676429 -0.5652635 19.02155481 -2.609375 15.15234375 C-5.81838252 11.31936254 -7.33536002 10.60339057 -12.296875 10.15234375 C-16.17713166 10.49271714 -17.88420972 10.98553935 -20.859375 13.46484375 Z " fill="#000000" transform="translate(345.859375,383.53515625)"/>
<path d="M0 0 C2.96639746 2.96639746 2.30309823 6.18800108 2.30639648 10.16577148 C2.31472 11.0098053 2.32304352 11.85383911 2.33161926 12.72344971 C2.35577997 15.52271084 2.3644983 18.32173931 2.37109375 21.12109375 C2.38005477 23.06161064 2.38917651 25.0021268 2.39845276 26.94264221 C2.41496134 31.0139433 2.42264639 35.08516196 2.42553711 39.15649414 C2.43092588 44.38034461 2.46861825 49.60342359 2.51428127 54.82705593 C2.54398242 58.83586984 2.55125913 62.84449632 2.55226326 66.85341072 C2.55647865 68.77960815 2.56896542 70.70580549 2.58978081 72.63189507 C2.61655481 75.32345665 2.61191252 78.0132085 2.59936523 80.70483398 C2.61419952 81.50442032 2.62903381 82.30400665 2.64431763 83.12782288 C2.61473083 85.34983826 2.61473083 85.34983826 2 89 C-0.33433533 91.06532288 -0.33433533 91.06532288 -3 92 C-8.2 90.8 -8.2 90.8 -10 89 C-10.11643077 86.30785991 -10.16800804 83.64102731 -10.17700195 80.94775391 C-10.18357315 80.10386612 -10.19014435 79.25997833 -10.19691467 78.39051819 C-10.21669542 75.58586551 -10.22832017 72.78126645 -10.23828125 69.9765625 C-10.24235678 69.02139111 -10.2464323 68.06621971 -10.25063133 67.08210373 C-10.2715114 62.02771977 -10.28580531 56.97336312 -10.29516602 51.91894531 C-10.30624106 46.68735753 -10.34064802 41.45619387 -10.38033772 36.22475624 C-10.40643064 32.21167182 -10.41485126 28.1986896 -10.41844749 24.1855278 C-10.42333161 22.25654609 -10.4349971 20.32756949 -10.45348549 18.3986702 C-10.47772419 15.7024459 -10.47694029 13.00733407 -10.4699707 10.31103516 C-10.48278076 9.50987778 -10.49559082 8.7087204 -10.50878906 7.88328552 C-10.45797912 2.50719596 -10.45797912 2.50719596 -8.16593933 -0.03115845 C-5.10886439 -1.39861191 -3.17187692 -0.8964 0 0 Z " fill="#000000" transform="translate(111,73)"/>
<path d="M0 0 C0.67836914 -0.00846954 1.35673828 -0.01693909 2.05566406 -0.02566528 C4.29771677 -0.04906221 6.53908446 -0.05005699 8.78125 -0.04882812 C10.33919551 -0.05592739 11.8971384 -0.06362604 13.45507812 -0.07189941 C16.72012604 -0.08534982 19.98493212 -0.08691025 23.25 -0.08105469 C27.43702465 -0.07515346 31.62289179 -0.10576333 35.80969238 -0.14617157 C39.02675645 -0.17200127 42.24353989 -0.17493045 45.46069336 -0.17127991 C47.00450555 -0.17297518 48.54833014 -0.18265684 50.09204102 -0.20042419 C52.2496529 -0.2225268 54.40489724 -0.21296154 56.5625 -0.1953125 C58.40424805 -0.19839417 58.40424805 -0.19839417 60.28320312 -0.20153809 C63.28125 0.41992188 63.28125 0.41992188 65.24804688 2.75524902 C66.28125 5.41992188 66.28125 5.41992188 65.53125 8.66992188 C64.28125 11.41992188 64.28125 11.41992188 63.28125 12.41992188 C61.11948564 12.53002092 58.95408378 12.56906105 56.78955078 12.58105469 C56.11147369 12.58601959 55.43339661 12.5909845 54.73477173 12.59609985 C52.48202515 12.61075574 50.229349 12.61752933 47.9765625 12.62304688 C46.41576128 12.6287958 44.85496009 12.63455356 43.29415894 12.64031982 C40.0172289 12.65083976 36.74032347 12.65667582 33.46337891 12.66015625 C29.26092138 12.66564116 25.05878785 12.68966466 20.85643196 12.7181282 C17.6308395 12.73673772 14.4053253 12.74195929 11.17968369 12.74349213 C9.63030095 12.74652335 8.08091974 12.75456766 6.53158951 12.76767731 C4.36472082 12.78470226 2.19864641 12.78286673 0.03173828 12.77636719 C-1.20212616 12.78001282 -2.4359906 12.78365845 -3.70724487 12.78741455 C-6.71875 12.41992188 -6.71875 12.41992188 -8.61721802 11.08514404 C-10.34336373 8.47567274 -10.09872655 6.45973427 -9.71875 3.41992188 C-7.21486138 -0.34948302 -4.26394929 0.02923771 0 0 Z " fill="#000000" transform="translate(162.71875,308.580078125)"/>
<path d="M0 0 C0.87648193 -0.00524185 1.75296387 -0.0104837 2.65600586 -0.0158844 C4.50861553 -0.02230619 6.36126596 -0.02096555 8.21386719 -0.01245117 C11.05216841 -0.00393724 13.88846001 -0.03270536 16.7265625 -0.06445312 C18.52604106 -0.06606509 20.3255232 -0.06548769 22.125 -0.0625 C23.40008423 -0.07935097 23.40008423 -0.07935097 24.70092773 -0.09654236 C30.54275192 -0.02725363 30.54275192 -0.02725363 33.1328125 2.26928711 C34.44538328 5.3249436 33.95341818 7.28111402 33.0625 10.43359375 C30.41007978 13.08601397 28.4240268 12.69363638 24.81422424 12.73713684 C23.95900681 12.73622543 23.10378937 12.73531403 22.22265625 12.734375 C20.90581093 12.74080269 20.90581093 12.74080269 19.56236267 12.74736023 C17.70377465 12.75310875 15.84516413 12.75359996 13.98657227 12.74926758 C11.13974668 12.74611011 8.29396243 12.76955112 5.44726562 12.79492188 C3.64323048 12.79719503 1.83919254 12.79789829 0.03515625 12.796875 C-0.81803696 12.80608475 -1.67123016 12.81529449 -2.55027771 12.82478333 C-8.49241644 12.77817699 -8.49241644 12.77817699 -10.66285706 11.0978241 C-12.62892459 8.53083915 -12.32856406 6.56210627 -11.9375 3.43359375 C-8.79440247 -0.66209543 -4.77908892 -0.01650441 0 0 Z " fill="#000000" transform="translate(185.9375,359.56640625)"/>
<path d="M0 0 C0.74472061 -0.00902847 1.48944122 -0.01805695 2.25672913 -0.02735901 C3.83281424 -0.04187416 5.40895979 -0.0507514 6.98510742 -0.05444336 C9.39800345 -0.0663463 11.80834685 -0.115517 14.22070312 -0.16601562 C15.75128958 -0.17547908 17.28189177 -0.18271449 18.8125 -0.1875 C19.53445053 -0.20703232 20.25640106 -0.22656464 21.00022888 -0.24668884 C23.04272461 -0.22827148 23.04272461 -0.22827148 26.47265625 0.37109375 C28.49829102 2.70288086 28.49829102 2.70288086 29.47265625 5.37109375 C28.27265625 10.57109375 28.27265625 10.57109375 26.47265625 12.37109375 C23.97511484 12.48436741 21.50625635 12.53526566 19.0078125 12.5390625 C17.88505165 12.5440551 17.88505165 12.5440551 16.73960876 12.54914856 C15.15331641 12.55422068 13.56701335 12.5565568 11.98071289 12.55639648 C9.54881256 12.55858148 7.11736676 12.57672956 4.68554688 12.59570312 C3.14713697 12.59863724 1.60872491 12.60062192 0.0703125 12.6015625 C-1.02506081 12.61234077 -1.02506081 12.61234077 -2.14256287 12.62333679 C-7.29852068 12.59991682 -7.29852068 12.59991682 -9.52734375 10.37109375 C-9.79296875 8.49609375 -9.79296875 8.49609375 -9.77734375 6.37109375 C-9.7825 5.66984375 -9.78765625 4.96859375 -9.79296875 4.24609375 C-9.05604553 -0.95571722 -4.09620495 0.03034184 0 0 Z " fill="#000000" transform="translate(134.52734375,359.62890625)"/>
<path d="M0 0 C1.24652344 -0.03996094 2.49304688 -0.07992188 3.77734375 -0.12109375 C7.0625 0.4375 7.0625 0.4375 9.05078125 2.76171875 C10.0625 5.4375 10.0625 5.4375 9.3125 8.6875 C8.0625 11.4375 8.0625 11.4375 7.0625 12.4375 C4.75256618 12.56307162 2.43831464 12.61325729 0.125 12.625 C-1.14214844 12.63917969 -2.40929687 12.65335937 -3.71484375 12.66796875 C-6.9375 12.4375 -6.9375 12.4375 -8.9375 10.4375 C-9.203125 8.5625 -9.203125 8.5625 -9.1875 6.4375 C-9.19265625 5.73625 -9.1978125 5.035 -9.203125 4.3125 C-8.48977043 -0.722944 -4.07878343 0.0715576 0 0 Z " fill="#000000" transform="translate(133.9375,308.5625)"/>
<path d="M0 0 C2.50063147 2.50063147 2.32420142 3.47811698 2.375 6.9375 C2.40335938 7.81277344 2.43171875 8.68804687 2.4609375 9.58984375 C2 12 2 12 0.171875 13.828125 C-2.88625818 15.47819686 -4.72330986 14.92602113 -8 14 C-10.50063147 11.49936853 -10.32420142 10.52188302 -10.375 7.0625 C-10.40335937 6.18722656 -10.43171875 5.31195313 -10.4609375 4.41015625 C-10 2 -10 2 -8.171875 0.171875 C-5.11374182 -1.47819686 -3.27669014 -0.92602113 0 0 Z " fill="#000000" transform="translate(111,47)"/>
</svg>
