<?xml version="1.0" encoding="UTF-8"?>
<svg version="1.1" xmlns="http://www.w3.org/2000/svg" width="512" height="512">
<path d="M0 0 C21.03416131 18.36163076 35.44723657 41.20762499 38.60253906 69.39892578 C39.88239904 91.10099595 35.95745137 110.09936781 28.60253906 130.39892578 C29.34375 130.66189453 30.08496094 130.92486328 30.84863281 131.19580078 C38.21876654 134.41566062 43.52732525 140.81161105 46.79003906 148.02392578 C49.85852294 160.76993572 48.60899257 171.92091221 42.42675781 183.47705078 C37.02719179 192.12560622 29.13417103 200.27029073 19.5637207 204.24584961 C17.1388478 205.67155292 16.8098782 206.58019955 15.96191406 209.22314453 C15.70047607 209.99698486 15.43903809 210.7708252 15.16967773 211.56811523 C14.90002197 212.39915771 14.63036621 213.2302002 14.35253906 214.08642578 C10.15924065 226.14144868 4.9063769 236.50429037 -2.83496094 246.64892578 C-7.19250495 252.36261544 -8.89927649 257.16687814 -8.39746094 264.39892578 C-7.33168823 264.80159668 -7.33168823 264.80159668 -6.24438477 265.21240234 C-3.31680581 266.43254073 -0.61902765 267.84360267 2.15332031 269.38330078 C3.23170166 269.98142578 4.31008301 270.57955078 5.42114258 271.19580078 C6.58592407 271.84657524 7.75055229 272.4976241 8.91503906 273.14892578 C9.51178436 273.48150391 10.10852966 273.81408203 10.72335815 274.15673828 C21.07463409 279.9269281 31.33106826 285.85070442 41.54785156 291.85595703 C45.77709974 294.339548 50.02307781 296.79118903 54.28222656 299.22314453 C98.42955832 324.43110877 98.42955832 324.43110877 103.60253906 342.39892578 C104.46247164 348.31283191 104.2845807 354.31347785 104.23144531 360.27392578 C104.23227572 361.97355298 104.23474157 363.67318007 104.23875427 365.37280273 C104.24159345 368.90959249 104.22708457 372.44574225 104.19946289 375.98242188 C104.16517266 380.51313369 104.17148503 385.04271842 104.19012547 389.57348633 C104.20068672 393.07197481 104.19176923 396.57020053 104.17674065 400.06866455 C104.17156595 401.74000265 104.17203199 403.41136823 104.1782856 405.08270264 C104.18373579 407.41137034 104.16337986 409.73841226 104.13598633 412.06689453 C104.14251221 412.75366776 104.14903809 413.44044098 104.15576172 414.14802551 C104.08951232 417.45957796 103.78260002 419.16179171 101.75669861 421.82983398 C98.8370473 423.95651068 97.14017105 423.91483045 93.60253906 423.39892578 C91.21210509 422.10679931 89.92519102 421.30834893 89.00593567 418.71734619 C88.47038546 415.63940624 88.46954559 412.67915273 88.46069336 409.55419922 C88.45548172 408.53384331 88.45548172 408.53384331 88.45016479 407.49287415 C88.44282809 406.01913006 88.43747162 404.54537508 88.43387413 403.07161713 C88.42668142 400.73346618 88.41099323 398.39552179 88.39253235 396.05743408 C88.34020076 389.41071436 88.29212302 382.76410875 88.27661133 376.1171875 C88.26649158 372.04691927 88.23706739 367.97717335 88.19529152 363.90711212 C88.18303368 362.3619203 88.17785068 360.81665453 88.18008995 359.27141571 C88.37706832 346.39131396 88.37706832 346.39131396 81.96346569 335.7417717 C76.87930107 331.2064177 71.54798584 327.76292964 65.60253906 324.46142578 C64.73242188 323.96835937 63.86230469 323.47529297 62.96582031 322.96728516 C60.8492578 321.76945033 58.72834592 320.58025052 56.60253906 319.39892578 C56.59889343 320.62810226 56.5952478 321.85727875 56.5914917 323.123703 C56.55456078 334.7039105 56.49680877 346.28385161 56.41863632 357.86385632 C56.37911642 363.81737056 56.34694996 369.77073588 56.33154297 375.72436523 C56.31640631 381.46928088 56.28201349 387.21378725 56.23423004 392.95852089 C56.21938544 395.15093747 56.21149629 397.34341246 56.21065521 399.53587914 C56.20829313 402.60550011 56.1812737 405.67398304 56.1484375 408.7434082 C56.15346786 409.65115494 56.15849823 410.55890167 56.16368103 411.49415588 C56.09567031 415.59975872 55.91645889 417.86834238 53.78717041 421.46723938 C51.60253906 423.39892578 51.60253906 423.39892578 48.10253906 423.96142578 C44.60253906 423.39892578 44.60253906 423.39892578 42.39212036 422.00837708 C39.5705646 417.8941676 40.24428235 413.94268284 40.46923828 409.08520508 C40.53438244 406.90989547 40.59921769 404.7345766 40.66378784 402.55924988 C40.70514736 401.4054653 40.74650688 400.25168072 40.78911972 399.06293297 C40.9906942 392.93619452 41.0671677 386.80733706 41.16503906 380.67822266 C41.29625219 372.88438376 41.46379373 365.09693174 41.77148438 357.30786133 C44.54250522 330.25057391 44.54250522 330.25057391 36.95812988 305.52789307 C30.60993068 299.21386809 22.23001718 296.20439255 13.60253906 294.39892578 C13.60698029 295.35248459 13.61142151 296.3060434 13.61599731 297.28849792 C13.65655516 306.27848952 13.68652913 315.26846254 13.70616341 324.25852489 C13.71659694 328.88031518 13.73074833 333.50203155 13.75341797 338.1237793 C13.77516163 342.58470193 13.78711093 347.0455535 13.79229355 351.50652504 C13.79598656 353.20775788 13.80319808 354.90898687 13.81399918 356.61018944 C13.82853435 358.99452469 13.83051616 361.37856696 13.82958984 363.76293945 C13.8367804 364.46496994 13.84397095 365.16700043 13.85137939 365.89030457 C13.82993637 370.9970429 13.27868445 374.72278039 9.60253906 378.39892578 C6.82198524 378.65619469 6.82198524 378.65619469 3.20083618 378.66635132 C2.20407775 378.67314799 2.20407775 378.67314799 1.18718278 378.68008196 C-1.04992316 378.69278969 -3.28678764 378.69110154 -5.52392578 378.68945312 C-7.12362483 378.69543444 -8.72332098 378.70223907 -10.32301331 378.70980835 C-14.67634575 378.72751671 -19.02959964 378.73216578 -23.38296461 378.73343992 C-27.013761 378.73533611 -30.64453896 378.74269046 -34.27532828 378.74978411 C-42.84013715 378.76608431 -51.40490396 378.77095161 -59.96972656 378.76953125 C-68.81185818 378.76832961 -77.65374578 378.78943206 -86.49581563 378.82101858 C-94.08058078 378.8471505 -101.6652661 378.85789983 -109.25007594 378.85662043 C-113.7830497 378.85610985 -118.31580677 378.86184544 -122.84873581 378.88297653 C-127.11202103 378.90230697 -131.3748817 378.90251929 -135.63818169 378.88794327 C-137.20391521 378.88584753 -138.76967493 378.89060147 -140.33536339 378.90266418 C-142.47134175 378.91805607 -144.60584516 378.90885106 -146.74179077 378.8934021 C-147.93752401 378.89449163 -149.13325726 378.89558117 -150.36522484 378.89670372 C-154.0290536 378.29524227 -155.21455264 377.35932806 -157.39746094 374.39892578 C-157.77173027 371.66154997 -157.90511326 369.3330632 -157.8515625 366.60107422 C-157.85214661 365.82020447 -157.85273071 365.03933472 -157.85333252 364.23480225 C-157.85055016 361.65884643 -157.81945229 359.08405394 -157.78808594 356.50830078 C-157.78062406 354.72040438 -157.77493087 352.93249979 -157.77093506 351.14459229 C-157.75567451 346.44260004 -157.71638917 341.74110332 -157.67211914 337.03930664 C-157.63117546 332.23997704 -157.61292598 327.44056725 -157.59277344 322.64111328 C-157.54989525 313.22683326 -157.48163888 303.81292075 -157.39746094 294.39892578 C-158.14431152 294.82302734 -158.89116211 295.24712891 -159.66064453 295.68408203 C-162.42809931 297.25292417 -165.19767216 298.81793871 -167.96875 300.38037109 C-169.16850997 301.05787497 -170.3674091 301.73690559 -171.56542969 302.41748047 C-173.28582262 303.39445858 -175.00956503 304.3655311 -176.73339844 305.33642578 C-177.77028809 305.92294922 -178.80717773 306.50947266 -179.87548828 307.11376953 C-182.39746094 308.39892578 -182.39746094 308.39892578 -184.39746094 308.39892578 C-184.39469556 308.95607364 -184.39193018 309.51322149 -184.389081 310.08725262 C-184.32280014 323.64992565 -184.27336172 337.21257026 -184.24202442 350.7753706 C-184.22636092 357.33427651 -184.20510981 363.89306561 -184.17114258 370.4519043 C-184.13857405 376.7801815 -184.12061308 383.10834628 -184.11282921 389.43670082 C-184.10728123 391.85245852 -184.09644758 394.26821 -184.08027077 396.68391991 C-184.0585303 400.06456227 -184.05549266 403.44473856 -184.05688477 406.82543945 C-184.04609894 407.82669357 -184.03531311 408.82794769 -184.02420044 409.85954285 C-184.06251569 418.44440373 -184.06251569 418.44440373 -187.39746094 422.39892578 C-190.23829735 423.81934399 -192.25223371 423.7134485 -195.39746094 423.39892578 C-197.56439209 421.98724365 -197.56439209 421.98724365 -199.39746094 419.39892578 C-199.98095893 416.15837253 -199.90234833 412.95772144 -199.8515625 409.67333984 C-199.85214661 408.68764511 -199.85273071 407.70195038 -199.85333252 406.68638611 C-199.85054609 403.42874928 -199.81942684 400.17202774 -199.78808594 396.91455078 C-199.78062556 394.65582784 -199.77493167 392.39709843 -199.77093506 390.1383667 C-199.75566287 384.19356413 -199.71636691 378.24915251 -199.67211914 372.30450439 C-199.6312009 366.23837574 -199.61293138 360.17218391 -199.59277344 354.10595703 C-199.54987459 342.20344152 -199.48160371 330.30121616 -199.39746094 318.39892578 C-202.86081775 320.36700424 -206.31024515 322.35743398 -209.74902344 324.36816406 C-211.48708662 325.37836543 -213.2351694 326.37126479 -214.98339844 327.36376953 C-223.82454831 332.55537498 -229.65321604 337.28611555 -232.39746094 347.39892578 C-232.69478148 350.88553998 -232.69478148 350.88553998 -232.65283203 354.62597656 C-232.65826271 355.67103867 -232.65826271 355.67103867 -232.6638031 356.73721313 C-232.67066165 358.23984601 -232.67320922 359.7425036 -232.67185593 361.24515152 C-232.67088612 363.62445034 -232.68388391 366.00330308 -232.70083618 368.38253784 C-232.74698676 375.14333734 -232.77173069 381.90408727 -232.77832031 388.66503906 C-232.78333188 392.80888447 -232.80755471 396.95225787 -232.843647 401.09594345 C-232.85344539 402.67236372 -232.8557767 404.24884887 -232.85047531 405.82529068 C-232.84341222 408.02759699 -232.86066575 410.22849128 -232.88330078 412.43066406 C-232.88757584 414.30880295 -232.88757584 414.30880295 -232.89193726 416.22488403 C-233.49058465 419.98362352 -234.35544613 421.17350966 -237.39746094 423.39892578 C-240.89746094 423.96142578 -240.89746094 423.96142578 -244.39746094 423.39892578 C-247.21693924 420.69531214 -248.30131597 419.02440811 -248.89866638 415.13827515 C-248.89883255 413.90348419 -248.89899872 412.66869324 -248.89916992 411.39648438 C-248.90457291 410.71116638 -248.90997589 410.02584839 -248.9155426 409.31976318 C-248.92801237 407.0618521 -248.91154188 404.80522162 -248.89355469 402.54736328 C-248.89370983 400.96660292 -248.89520125 399.38584218 -248.89796448 397.80508423 C-248.89934805 394.49130436 -248.88680637 391.17795746 -248.86401367 387.86425781 C-248.83576845 383.64468485 -248.83832872 379.42583851 -248.85110378 375.206213 C-248.85810994 371.93907627 -248.85021357 368.67210316 -248.83784676 365.40498734 C-248.8333701 363.85107682 -248.83296186 362.29714848 -248.83691216 360.74323654 C-248.8554697 347.00858048 -247.452944 335.4078525 -238.08496094 324.77392578 C-230.99589232 318.50916747 -223.17296918 313.72566171 -215.02246094 308.96142578 C-213.82861626 308.25946764 -212.63493448 307.55723239 -211.44140625 306.85473633 C-193.23896745 296.15665999 -174.92544122 285.65325985 -156.52636719 275.29736328 C-153.31474857 273.48781636 -150.11317688 271.66318297 -146.92480469 269.81298828 C-146.26577148 269.43134521 -145.60673828 269.04970215 -144.92773438 268.65649414 C-143.23200275 267.67181055 -141.53919883 266.68208969 -139.84667969 265.69189453 C-137.39746094 264.39892578 -137.39746094 264.39892578 -135.39746094 264.39892578 C-135.15319862 256.36880197 -136.76581535 252.31809093 -142.01464844 246.36376953 C-150.2074556 236.16976849 -161.39746094 217.77636409 -161.39746094 204.39892578 C-162.27660156 204.14111328 -163.15574219 203.88330078 -164.06152344 203.61767578 C-174.56654738 199.77977476 -183.01661055 191.15219552 -187.96386719 181.27001953 C-192.76053654 170.13245393 -194.54122435 158.39562298 -190.42480469 146.67236328 C-186.74827688 138.53647284 -180.81388509 134.0891545 -173.39746094 129.39892578 C-173.79578125 128.27357422 -174.19410156 127.14822266 -174.60449219 125.98876953 C-179.23024279 112.68299401 -182.69623958 99.55483198 -183.39746094 85.39892578 C-183.43871094 84.62806641 -183.47996094 83.85720703 -183.52246094 83.06298828 C-184.2746759 54.76090025 -172.69207306 29.25251266 -153.66308594 8.73486328 C-114.10586576 -32.04999477 -43.89547861 -36.93225448 0 0 Z M-118.39746094 1.39892578 C-119.99847656 2.20136719 -119.99847656 2.20136719 -121.63183594 3.02001953 C-129.68492189 7.36993772 -135.90130964 13.06375783 -142.39746094 19.39892578 C-143.38359375 20.27484375 -143.38359375 20.27484375 -144.38964844 21.16845703 C-159.75991859 35.15752779 -167.54113917 57.73728931 -168.52246094 77.97705078 C-168.68208623 84.96065742 -167.73518222 91.55504814 -166.39746094 98.39892578 C-165.90568359 98.15770996 -165.41390625 97.91649414 -164.90722656 97.66796875 C-135.02889882 83.08251767 -105.61308006 74.71613218 -72.14746094 74.96142578 C-71.25837036 74.96446716 -70.36927979 74.96750854 -69.45324707 74.97064209 C-55.12545438 75.04280382 -41.35821307 75.95558591 -27.39746094 79.39892578 C-26.48673828 79.6185498 -25.57601562 79.83817383 -24.63769531 80.06445312 C-12.69230876 83.02150134 -1.46052754 87.02492191 9.60253906 92.39892578 C10.21081543 92.69395996 10.8190918 92.98899414 11.44580078 93.29296875 C14.85174526 94.95595217 18.23575203 96.65814385 21.60253906 98.39892578 C23.57482351 92.62351118 23.95365376 87.418792 23.91503906 81.33642578 C23.90657959 79.94206299 23.90657959 79.94206299 23.89794922 78.51953125 C23.48241697 54.76013774 12.92392581 33.26324076 -3.91748047 16.78955078 C-23.81591161 -1.90749042 -49.82507378 -10.4994936 -76.87792969 -9.90966797 C-91.72732248 -9.27994711 -105.23377922 -5.36149216 -118.39746094 1.39892578 Z M-162.39746094 113.39892578 C-157.2088307 132.4942917 -147.08669055 154.69523554 -132.39746094 168.39892578 C-131.41648437 167.87943359 -130.43550781 167.35994141 -129.42480469 166.82470703 C-100.24126481 151.62722721 -68.23798921 147.64901353 -36.52124023 157.40185547 C-27.70030117 160.25303045 -19.53916393 163.97465631 -11.39746094 168.39892578 C-1.97543693 157.48786255 4.78154344 145.43335269 11.04003906 132.52392578 C11.46526855 131.65662842 11.89049805 130.78933105 12.32861328 129.89575195 C14.91128146 124.43852084 16.50460831 119.33855115 17.60253906 113.39892578 C-33.70005249 80.1215691 -111.19208889 78.53569375 -162.39746094 113.39892578 Z M23.60253906 144.39892578 C23.27253906 157.26892578 22.94253906 170.13892578 22.60253906 183.39892578 C29.17927284 176.822192 33.24076831 170.30873483 33.73144531 160.85205078 C33.47320852 155.93772634 32.4500616 151.45279499 29.09863281 147.72705078 C26.66737689 145.36876616 26.66737689 145.36876616 23.60253906 144.39892578 Z M-175.39746094 150.39892578 C-178.60006273 155.4116938 -178.01164344 162.06558983 -176.96777344 167.73095703 C-175.21428163 173.91147444 -171.72542075 178.70475399 -167.39746094 183.39892578 C-167.06746094 183.39892578 -166.73746094 183.39892578 -166.39746094 183.39892578 C-166.72746094 170.52892578 -167.05746094 157.65892578 -167.39746094 144.39892578 C-170.25495137 144.39892578 -173.47042061 148.5036998 -175.39746094 150.39892578 Z M-98.39746094 169.39892578 C-99.63625 169.73923828 -100.87503906 170.07955078 -102.15136719 170.43017578 C-112.54877035 173.58672074 -121.36404208 178.37664654 -130.39746094 184.39892578 C-135.28556399 185.31026703 -135.28556399 185.31026703 -138.39746094 184.39892578 C-143.69741418 179.99528816 -147.4648373 173.9999352 -151.39746094 168.39892578 C-151.72746094 168.39892578 -152.05746094 168.39892578 -152.39746094 168.39892578 C-152.57238871 174.86477466 -152.03413306 180.70119024 -150.70996094 187.02392578 C-150.52916992 187.8956543 -150.34837891 188.76738281 -150.16210938 189.66552734 C-144.00457773 218.27130043 -128.80104864 246.38915069 -104.24902344 263.22216797 C-90.78000175 271.78238481 -76.37237008 275.75544746 -60.52246094 272.33642578 C-49.07901153 269.13106168 -39.15651312 263.36038215 -30.39746094 255.39892578 C-29.57761719 254.66029297 -28.75777344 253.92166016 -27.91308594 253.16064453 C-4.73128594 231.1667318 7.586228 199.00619994 8.60253906 167.39892578 C5.83050697 170.07369359 3.41939505 172.82382601 1.10253906 175.89892578 C-0.04096018 177.41666113 -1.2078142 178.91708511 -2.39746094 180.39892578 C-2.98527344 181.15173828 -3.57308594 181.90455078 -4.17871094 182.68017578 C-6.39746094 184.39892578 -6.39746094 184.39892578 -9.66699219 184.91064453 C-14.27500989 184.27854996 -17.18848083 182.63534065 -21.08496094 180.21142578 C-22.50688587 179.37633218 -23.93138617 178.54560856 -25.35839844 177.71923828 C-26.05030273 177.31737305 -26.74220703 176.91550781 -27.45507812 176.50146484 C-48.36864284 164.63046707 -75.5097045 163.01403985 -98.39746094 169.39892578 Z M-120.39746094 269.39892578 C-121.28759123 280.97061962 -116.44180042 291.41503584 -109.39746094 300.39892578 C-99.88102204 310.6830774 -88.56477875 316.25556786 -74.61230469 317.68408203 C-61.15357874 318.12947872 -47.94350816 313.30986891 -38.01464844 304.14111328 C-28.89734648 294.31909233 -23.68791015 282.8123985 -23.39746094 269.39892578 C-24.34492188 270.03507812 -24.34492188 270.03507812 -25.31152344 270.68408203 C-43.30116476 282.47844342 -61.38901283 290.22908229 -83.29980469 286.78564453 C-96.84891881 283.95845401 -109.27602618 277.5546446 -120.39746094 269.39892578 Z M-142.39746094 284.39892578 C-142.39746094 310.46892578 -142.39746094 336.53892578 -142.39746094 363.39892578 C-95.86746094 363.39892578 -49.33746094 363.39892578 -1.39746094 363.39892578 C-1.27371094 350.61142578 -1.14996094 337.82392578 -1.02246094 324.64892578 C-0.96783691 320.61319336 -0.91321289 316.57746094 -0.85693359 312.41943359 C-0.83686541 308.79771432 -0.83686541 308.79771432 -0.82479858 305.17596436 C-0.81559251 303.56437237 -0.79450425 301.95282141 -0.76400757 300.3414917 C-0.720078 297.89799394 -0.71402404 295.45701707 -0.71630859 293.01318359 C-0.68392562 291.93867384 -0.68392562 291.93867384 -0.65088844 290.84245682 C-0.61483333 288.58148949 -0.61483333 288.58148949 -1.39746094 285.39892578 C-4.10708308 282.74483961 -4.10708308 282.74483961 -7.39746094 281.39892578 C-8.38746094 281.72892578 -9.37746094 282.05892578 -10.39746094 282.39892578 C-11.43997916 284.8167865 -11.43997916 284.8167865 -12.20996094 287.77392578 C-16.9404371 302.70669756 -25.93336041 314.97845108 -39.58105469 322.93798828 C-56.87010168 331.9062318 -73.54595092 333.72951053 -92.39746094 328.39892578 C-99.83683119 325.81581111 -107.99857033 321.82843702 -113.56542969 316.21142578 C-115.20490464 314.16449003 -115.20490464 314.16449003 -117.39746094 314.39892578 C-117.78998047 313.53460938 -117.78998047 313.53460938 -118.19042969 312.65283203 C-119.47244163 310.25891329 -120.96142806 308.41062775 -122.70996094 306.33642578 C-128.57420523 298.91163415 -131.6096576 290.34924176 -134.39746094 281.39892578 C-137.21735253 281.24985458 -137.21735253 281.24985458 -142.39746094 284.39892578 Z " fill="#000000" transform="translate(266.3974609375,84.60107421875)"/>
<path d="M0 0 C1.72070312 1.03808594 1.72070312 1.03808594 3 3 C3.29531821 5.64212361 3.41721473 8.0605525 3.40625 10.703125 C3.41708618 11.45914001 3.42792236 12.21515503 3.43908691 12.99407959 C3.47335797 15.41280617 3.48893265 17.83106263 3.5 20.25 C3.51464247 23.42232248 3.54851354 26.59360732 3.59375 29.765625 C3.59072876 30.48566711 3.58770752 31.20570923 3.58459473 31.9475708 C3.67910253 38.40177599 5.18342095 42.90394725 9.4375 47.8125 C14.24295773 51.91472002 17.93643527 52.52155571 24.17578125 52.36328125 C28.80946225 51.76724759 31.68366936 50.24613656 35 47 C40.28084933 38.74974452 39.56942096 28.9641235 39.5625 19.5625 C39.56611293 17.23504843 39.57561354 14.90833568 39.60325623 12.58103943 C39.62000393 11.14319766 39.62295173 9.70511033 39.61024475 8.26722717 C39.64039781 5.42774392 39.6844725 3.46493505 41.30444336 1.07788086 C43.67438936 -0.42871548 45.86561935 -0.65399363 48.63671875 -0.52734375 C59.47453201 1.89101128 69.32390424 12.38896672 75.328125 21.328125 C85.32855729 37.29765001 88.17764045 55.66826432 84 74 C80.59591957 85.47055894 75.62198385 95.05481848 66.33763123 102.69018555 C61.56706445 107.13725447 59.96885194 110.89642503 59.66615295 117.38598633 C59.58926597 120.70561045 59.6498602 124.01282037 59.72290039 127.33203125 C59.72268881 129.16800602 59.71756902 131.00398573 59.70794678 132.8399353 C59.69783114 136.77538496 59.72219849 140.70852918 59.7740345 144.64364624 C59.85601571 150.87316028 59.86096635 157.10133405 59.85630798 163.33129883 C59.85812819 173.18872786 59.91238001 183.04506849 59.9885754 192.90217686 C60.12349999 210.5459261 60.17402918 228.18998808 60.19801325 245.83420467 C60.20855837 252.01919081 60.24353026 258.20341325 60.29917634 264.38815308 C60.33060116 268.24327214 60.34589665 272.09834713 60.35760498 275.95357132 C60.36660508 277.73249943 60.38253729 279.51140902 60.40615654 281.29020309 C60.59647727 295.98887932 58.5769077 306.97945914 48.1875 317.90625 C39.80672756 325.88150119 29.82266118 328.39151678 18.51953125 328.27734375 C7.24887426 327.38920097 -1.00499157 322.32128554 -8.6875 314.375 C-17.39569352 303.58697639 -17.68423905 292.66402411 -17.46899414 279.47851562 C-17.45778073 277.63418324 -17.44896716 275.78983496 -17.44235229 273.94548035 C-17.42413249 269.99541508 -17.3911653 266.0458528 -17.34706306 262.09599304 C-17.27939779 255.84120625 -17.25790587 249.58677354 -17.24473572 243.33166504 C-17.2009015 225.55251853 -17.10559054 207.77406122 -16.94213867 189.99560547 C-16.85210743 180.15971251 -16.80533661 170.32456125 -16.80525678 160.48824644 C-16.8027506 154.27820357 -16.74742137 148.07165159 -16.65224946 141.86237335 C-16.60567206 137.99044385 -16.60976002 134.11976145 -16.62777328 130.24764442 C-16.62611724 128.46259161 -16.60411674 126.6774142 -16.55945015 124.89291954 C-16.36155616 116.57576768 -16.2464485 110.00224134 -22.21810764 103.71080637 C-23.79465294 102.23453289 -25.40948618 100.84693119 -27.08153439 99.48044586 C-31.26517194 95.92471219 -33.57934635 91.85749896 -36 87 C-36.37511719 86.3090625 -36.75023437 85.618125 -37.13671875 84.90625 C-44.48769983 70.25894198 -44.90611207 52.44280417 -40 37 C-33.97214041 21.36074595 -24.46708497 9.28595875 -9.89453125 0.76953125 C-6.47931253 -0.6176813 -3.66575137 -0.29093265 0 0 Z M-13 22 C-21.13226393 30.13226393 -26.93557272 41.48841612 -28 53 C-28.06960938 53.7115625 -28.13921875 54.423125 -28.2109375 55.15625 C-28.86295214 68.99902237 -23.35775696 81.29097852 -14.375 91.5 C-11.76778759 94.31761903 -9.21526202 96.883625 -6 99 C-5.34 99 -4.68 99 -4 99 C-2.95549091 103.27262876 -2.86069446 107.41346551 -2.87542725 111.78507996 C-2.8740171 112.56225492 -2.87260695 113.33942989 -2.87115407 114.14015561 C-2.86750812 116.74083492 -2.8708346 119.34145946 -2.87402344 121.94213867 C-2.87262826 123.8084009 -2.87072869 125.67466282 -2.86836243 127.54092407 C-2.86386816 131.55909161 -2.8620094 135.57724894 -2.86190033 139.59541893 C-2.86075898 145.95412656 -2.84791294 152.31277626 -2.83233643 158.67146301 C-2.82847715 160.28210492 -2.82847715 160.28210492 -2.8245399 161.92528504 C-2.81927338 164.12094566 -2.81398789 166.31660623 -2.80868387 168.51226676 C-2.77359414 183.31360676 -2.74702113 198.11487469 -2.74951172 212.91625977 C-2.75110187 222.90331764 -2.73502832 232.89017778 -2.69880509 242.87717229 C-2.68036987 248.15925131 -2.6709811 253.44100029 -2.68328094 258.72310448 C-2.69474599 263.69486394 -2.68294751 268.66603323 -2.65364647 273.63771439 C-2.64702483 275.45730969 -2.64884011 277.27695935 -2.65994453 279.09653282 C-2.85564035 292.83744829 -2.85564035 292.83744829 3 305 C8.40852914 310.16633138 13.82713262 312.98994157 21.375 313.3125 C27.87995724 313.13757678 33.79857009 311.10538752 38.62818432 306.59078407 C46.31493047 297.67708414 45.70482846 287.39198606 45.62768555 276.30322266 C45.63286995 274.41662898 45.64027428 272.5300403 45.64971924 270.64346313 C45.66523083 266.59795493 45.66514945 262.5528613 45.65271568 258.50734329 C45.63312438 252.11197556 45.64840017 245.71697453 45.66816711 239.32162476 C45.69527046 229.21188237 45.69881557 219.10229032 45.69239408 208.99251878 C45.68143362 190.86964162 45.7060167 172.74680893 45.74614173 154.62397802 C45.75922635 148.26422721 45.76046431 141.90461381 45.7520088 135.54485631 C45.74839036 131.59608233 45.75267619 127.64734365 45.7588501 123.69857407 C45.75993764 121.86515423 45.75756205 120.03172864 45.7515049 118.19831848 C45.74364472 115.69970587 45.74792228 113.20139694 45.75517273 110.70278931 C45.74715473 109.60990504 45.74715473 109.60990504 45.73897475 108.49494231 C45.76284586 104.84177291 45.90855748 102.06309989 48 99 C49.8828125 97.46484375 49.8828125 97.46484375 52.125 95.9375 C62.24075245 88.27750096 68.37694149 77.09767007 70.59375 64.671875 C72.06206957 50.58935548 68.54697976 37.42752446 59.75 26.25 C58.53781396 24.80084526 57.29901736 23.37185945 56 22 C55.67 22 55.34 22 55 22 C54.97083496 22.60360352 54.94166992 23.20720703 54.91162109 23.82910156 C53.49631316 50.06480971 53.49631316 50.06480971 43.25 60 C34.69545951 66.576705 25.55378219 68.32539225 14.94238281 67.30908203 C6.68899391 65.99575997 -0.24417491 61.00558914 -5.37890625 54.58984375 C-11.56324576 44.70980256 -11.72942902 33.29633835 -12 22 C-12.33 22 -12.66 22 -13 22 Z " fill="#000000" transform="translate(405,184)"/>
<path d="M0 0 C4.99017735 3.03619224 7.6511148 7.69901276 10.60546875 12.57421875 C12.30393449 15.202371 13.4133187 16.80192432 16.4296875 17.8203125 C20.49268993 16.5236096 22.21361082 13.51021943 24.625 10.125 C25.57158253 8.83304276 26.52196905 7.54386201 27.4765625 6.2578125 C27.88986816 5.6817627 28.30317383 5.10571289 28.72900391 4.51220703 C30.84085075 1.99957174 32.54082654 1.04655308 35.78613281 0.7175293 C39.45720888 1.04018465 42.05798559 2.02283483 45.421875 3.51953125 C46.61167969 4.04740234 47.80148437 4.57527344 49.02734375 5.11914062 C49.63819824 5.39733643 50.24905273 5.67553223 50.87841797 5.9621582 C52.75237069 6.81357711 54.63493344 7.64315725 56.51953125 8.47070312 C65.73940945 12.60911418 65.73940945 12.60911418 68 16 C68.89479107 22.81620257 67.51837956 29.63218598 66.2421875 36.3125 C66.16226563 37.199375 66.08234375 38.08625 66 39 C67.7844051 41.23994726 67.7844051 41.23994726 70.16723633 41.07177734 C71.04661865 40.9939502 71.92600098 40.91612305 72.83203125 40.8359375 C73.79560547 40.76632813 74.75917969 40.69671875 75.75195312 40.625 C77.78132926 40.45923092 79.81002103 40.28484316 81.83789062 40.1015625 C82.80533203 40.03453125 83.77277344 39.9675 84.76953125 39.8984375 C85.65229736 39.82286621 86.53506348 39.74729492 87.44458008 39.66943359 C91.01097007 40.13077801 92.48699873 41.46550216 95 44 C96.4855957 46.74560547 96.4855957 46.74560547 97.67578125 49.8671875 C98.11083984 51.00027344 98.54589844 52.13335937 98.99414062 53.30078125 C99.42919922 54.48027344 99.86425781 55.65976562 100.3125 56.875 C100.76689453 58.04675781 101.22128906 59.21851563 101.68945312 60.42578125 C105.47842456 70.46513114 105.47842456 70.46513114 105 76 C100.89386297 81.38045542 94.631376 85.34549995 89 89 C88.34 89 87.68 89 87 89 C87.99891668 94.64422851 89.46547872 96.87965469 94.10351562 100.18359375 C95.41219752 101.06300711 96.72210083 101.94060551 98.03320312 102.81640625 C98.65259766 103.25855469 99.27199219 103.70070313 99.91015625 104.15625 C100.47871338 104.53587891 101.04727051 104.91550781 101.63305664 105.30664062 C103.85345047 108.05724817 103.85308428 110.52769478 104 114 C103.07543945 117.22558594 103.07543945 117.22558594 101.61328125 120.484375 C101.08669922 121.66644531 100.56011719 122.84851563 100.01757812 124.06640625 C99.7372876 124.6711377 99.45699707 125.27586914 99.16821289 125.89892578 C98.31231499 127.75040021 97.48760465 129.6135555 96.66601562 131.48046875 C92.03780349 141.69947161 92.03780349 141.69947161 88 144 C85.08203125 144.109375 85.08203125 144.109375 81.8125 143.75 C80.6678125 143.63527344 79.523125 143.52054688 78.34375 143.40234375 C76.30060779 143.15649837 74.25855304 142.90107098 72.21875 142.62890625 C70.15304208 142.35727907 68.07652596 142.17020705 66 142 C63.56557582 143.98635379 63.56557582 143.98635379 63.8125 147.875 C63.89041556 152.69018131 64.44932101 157.43117863 65.07421875 162.203125 C64.98046228 165.73626349 64.10060337 167.17232861 62 170 C59.3996582 171.4855957 59.3996582 171.4855957 56.30078125 172.67578125 C55.17349609 173.11083984 54.04621094 173.54589844 52.88476562 173.99414062 C51.11649414 174.64672852 51.11649414 174.64672852 49.3125 175.3125 C48.15298828 175.76689453 46.99347656 176.22128906 45.79882812 176.68945312 C34.4524949 180.97899923 34.4524949 180.97899923 28 180 C25.86328125 178.49609375 25.86328125 178.49609375 24.3125 176.4375 C23.75046875 175.71175781 23.1884375 174.98601562 22.609375 174.23828125 C22.07828125 173.49964844 21.5471875 172.76101562 21 172 C20.23429687 171.00033203 20.23429687 171.00033203 19.453125 169.98046875 C16 165.37306882 16 165.37306882 16 163 C14.02 162.67 12.04 162.34 10 162 C9.7628125 162.54398438 9.525625 163.08796875 9.28125 163.6484375 C7.66614779 166.61274095 5.6554611 169.02864913 3.5 171.625 C2.7059375 172.58664063 1.911875 173.54828125 1.09375 174.5390625 C-2.66243981 178.9539871 -2.66243981 178.9539871 -6.32421875 179.453125 C-12.63898108 179.28766025 -18.16087602 176.32517475 -23.8125 173.75 C-24.94365234 173.25886719 -26.07480469 172.76773438 -27.24023438 172.26171875 C-36.65538527 168.056023 -36.65538527 168.056023 -39 164 C-39.59796871 157.5419379 -38.31817573 151.42288043 -37.14453125 145.07421875 C-36.72285605 142.06843801 -36.72285605 142.06843801 -38.13671875 140.0625 C-40.67262177 138.61645048 -42.12655716 138.89902494 -45 139.3125 C-48.98550921 139.77827 -52.92496139 140.18323701 -56.9375 140.3125 C-58.25041016 140.36857422 -58.25041016 140.36857422 -59.58984375 140.42578125 C-62.88643651 139.84340101 -63.83709841 138.52941948 -66 136 C-68.11314027 131.68004991 -69.66431735 127.14030901 -71.3125 122.625 C-71.77978516 121.40554687 -72.24707031 120.18609375 -72.72851562 118.9296875 C-73.16486328 117.74890625 -73.60121094 116.568125 -74.05078125 115.3515625 C-74.44950439 114.27729004 -74.84822754 113.20301758 -75.2590332 112.09619141 C-76.09395737 108.6073913 -75.99042882 106.43578639 -75 103 C-72.88414401 100.98323369 -70.99003994 99.4014503 -68.625 97.75 C-68.03460938 97.316875 -67.44421875 96.88375 -66.8359375 96.4375 C-64.2646405 94.56114813 -61.64843145 92.76562096 -59 91 C-58.17491291 88.15723973 -58.17491291 88.15723973 -59 85 C-61.0116272 82.73596909 -63.39400322 81.09373358 -65.875 79.375 C-74.16324742 73.46654639 -74.16324742 73.46654639 -75 70 C-74.50397565 65.69846777 -73.3968861 62.19717441 -71.6015625 58.26953125 C-71.12203125 57.21958984 -70.6425 56.16964844 -70.1484375 55.08789062 C-69.39433594 53.46657227 -69.39433594 53.46657227 -68.625 51.8125 C-68.13 50.72001953 -67.635 49.62753906 -67.125 48.50195312 C-62.25685913 37.93912874 -62.25685913 37.93912874 -58.20703125 36.25390625 C-55.21970466 35.91023151 -52.64355079 36.40603611 -49.6875 36.9375 C-45.02142894 37.72043309 -40.71945238 38.21950941 -36 38 C-33.67798601 34.7218626 -34.10223247 32.32550968 -34.6953125 28.4921875 C-35.07540242 25.38324686 -35.18723313 22.31886945 -35.25 19.1875 C-35.27578125 18.08792969 -35.3015625 16.98835938 -35.328125 15.85546875 C-34.94356627 12.5088922 -34.5586054 12.05313062 -32 10 C-27.83829883 8.01005755 -23.49773083 6.45193126 -19.1875 4.8125 C-18.01123047 4.34908203 -16.83496094 3.88566406 -15.62304688 3.40820312 C-14.48287109 2.97056641 -13.34269531 2.53292969 -12.16796875 2.08203125 C-11.12922607 1.68218018 -10.0904834 1.2823291 -9.02026367 0.87036133 C-5.82129593 -0.05149786 -3.31110659 -0.27279582 0 0 Z M-14.1875 19.5 C-15.27417969 19.9640625 -16.36085938 20.428125 -17.48046875 20.90625 C-18.72763672 21.44765625 -18.72763672 21.44765625 -20 22 C-19.94875977 22.57967529 -19.89751953 23.15935059 -19.84472656 23.7565918 C-19.62393998 26.39890013 -19.43670068 29.04257372 -19.25 31.6875 C-19.16878906 32.59951172 -19.08757812 33.51152344 -19.00390625 34.45117188 C-18.55732536 41.27393542 -18.55732536 41.27393542 -20.76953125 44.90234375 C-21.87361328 45.94068359 -21.87361328 45.94068359 -23 47 C-23.55558594 47.67804687 -24.11117187 48.35609375 -24.68359375 49.0546875 C-27.69094759 52.17590552 -29.70976248 53.89368829 -34.12890625 54.2578125 C-37.46549812 54.00263861 -40.70196396 53.56128067 -44 53 C-45.60337772 52.80586906 -47.20743057 52.61710812 -48.8125 52.4375 C-49.864375 52.293125 -50.91625 52.14875 -52 52 C-53.98 56.62 -55.96 61.24 -58 66 C-54.59673157 69.40326843 -52.05687641 71.75617562 -48.25 74.375 C-44.16047703 77.55423049 -44.16047703 77.55423049 -42.875 81.125 C-42.91625 82.40375 -42.9575 83.6825 -43 85 C-43.00515625 86.0415625 -43.0103125 87.083125 -43.015625 88.15625 C-43.29293064 96.9508003 -43.29293064 96.9508003 -45.9375 100.875 C-47.4534375 101.926875 -47.4534375 101.926875 -49 103 C-50.26457031 103.91072266 -50.26457031 103.91072266 -51.5546875 104.83984375 C-54.01271666 106.59806574 -56.49385064 108.31139062 -59 110 C-58.80664062 110.58007812 -58.61328125 111.16015625 -58.4140625 111.7578125 C-56.20703125 118.37890625 -56.20703125 118.37890625 -54 125 C-52.98292969 124.89171875 -52.98292969 124.89171875 -51.9453125 124.78125 C-49.98915387 124.58617601 -48.03041273 124.41601632 -46.0703125 124.265625 C-43.07245752 124.0516809 -43.07245752 124.0516809 -40.4296875 123.546875 C-35.95152307 122.99970378 -33.72868945 123.50957161 -29.9296875 126.06640625 C-26.05506379 129.3535949 -22.58533383 132.7499264 -21.2734375 137.79296875 C-21.24893841 140.62261367 -21.54704113 143.20805523 -22 146 C-22.17460193 148.0618434 -22.34149985 150.12435635 -22.5 152.1875 C-22.7475 154.5696875 -22.7475 154.5696875 -23 157 C-18.38 158.98 -13.76 160.96 -9 163 C-8.31035156 162.00097656 -7.62070312 161.00195312 -6.91015625 159.97265625 C0.34309546 149.85084287 0.34309546 149.85084287 4.3125 147.8125 C6.65799548 147.53655936 8.65750003 147.70814754 11 148 C11.97195313 147.95359375 12.94390625 147.9071875 13.9453125 147.859375 C18.68358923 147.78812272 21.77806668 147.93668303 25.4375 151.12109375 C28.71328185 155.17366946 31.35028119 159.52205575 34 164 C34.58007812 163.80664062 35.16015625 163.61328125 35.7578125 163.4140625 C42.37890625 161.20703125 42.37890625 161.20703125 49 159 C48.93304932 158.43603516 48.86609863 157.87207031 48.79711914 157.29101562 C47.02349538 141.14492345 47.02349538 141.14492345 49.3515625 136.03125 C51.1166441 134.07839377 52.87639786 132.54648733 55 131 C55.70125 130.195625 56.4025 129.39125 57.125 128.5625 C59.88928222 126.25893148 62.41696993 125.9120324 65.99902344 126.11108398 C68.276948 126.34708745 70.54298057 126.63121951 72.8125 126.9375 C73.99489258 127.08735352 73.99489258 127.08735352 75.20117188 127.24023438 C77.13503503 127.48636241 79.06765656 127.74221218 81 128 C82.98 123.71 84.96 119.42 87 115 C82.64937715 110.29100313 82.64937715 110.29100313 79.54296875 108.4296875 C76.05635463 106.12840654 73.4742655 104.09431443 72.51513672 99.85888672 C72.23418296 97.32622367 72.13390571 94.8604951 72.125 92.3125 C72.11750732 91.48024902 72.11001465 90.64799805 72.10229492 89.79052734 C72.26370005 85.57874322 72.57045137 83.54958067 75.22265625 80.15625 C77.88065056 78.09265948 80.52969503 76.07980738 83.3125 74.1875 C84.19550781 73.58292969 85.07851563 72.97835937 85.98828125 72.35546875 C86.65214844 71.90816406 87.31601562 71.46085937 88 71 C87.37321829 67.33827525 86.35548154 64.1181005 84.9375 60.6875 C84.57527344 59.80449219 84.21304688 58.92148437 83.83984375 58.01171875 C83.56269531 57.34785156 83.28554688 56.68398438 83 56 C81.68644531 56.10699219 80.37289062 56.21398438 79.01953125 56.32421875 C77.28391498 56.44618097 75.54823413 56.56722667 73.8125 56.6875 C72.94818359 56.76033203 72.08386719 56.83316406 71.19335938 56.90820312 C66.22556812 57.23177574 62.99628176 57.34863388 59 54 C57.015625 51.9921875 57.015625 51.9921875 55.25 49.875 C54.65703125 49.17117187 54.0640625 48.46734375 53.453125 47.7421875 C52.97359375 47.16726562 52.4940625 46.59234375 52 46 C51.67 45.67 51.34 45.34 51 45 C50.7687895 37.94807986 51.33502977 31.01781079 52 24 C50.09392715 22.93907266 48.17467254 21.90179899 46.25 20.875 C45.18265625 20.29492188 44.1153125 19.71484375 43.015625 19.1171875 C40.17876231 17.74891523 40.17876231 17.74891523 37.8671875 18.5078125 C35.46508929 20.42748095 33.74219635 22.55773558 31.875 25 C28.10126582 29.89873418 28.10126582 29.89873418 26 32 C24.07641602 32.24291992 24.07641602 32.24291992 21.75390625 32.23046875 C20.91666016 32.22853516 20.07941406 32.22660156 19.21679688 32.22460938 C18.34087891 32.21236328 17.46496094 32.20011719 16.5625 32.1875 C15.69044922 32.18685547 14.81839844 32.18621094 13.91992188 32.18554688 C7.42178302 32.14059434 7.42178302 32.14059434 4 31 C3.29083138 29.35096935 2.6305486 27.68066376 2 26 C0.40548551 23.51767632 0.40548551 23.51767632 -1.4375 21.1875 C-2.03433594 20.39730469 -2.63117188 19.60710938 -3.24609375 18.79296875 C-3.82488281 18.20128906 -4.40367187 17.60960938 -5 17 C-8.62850626 17 -10.86167278 18.06953668 -14.1875 19.5 Z " fill="#000000" transform="translate(389,0)"/>
<path d="M0 0 C9.50697227 7.18672864 14.98898027 15.90230062 16.6875 27.75 C17.57437873 38.56992056 14.53149145 48.35276226 7.6875 56.75 C7.17316406 57.38808594 6.65882813 58.02617188 6.12890625 58.68359375 C0.40447705 65.06695006 -8.34398889 69.37154975 -16.90234375 70.0234375 C-29.0640144 70.43028121 -38.04519438 68.60533318 -47.6875 60.625 C-55.28729776 53.31891423 -59.35355601 44.98879728 -59.60522461 34.50561523 C-59.70936795 21.96855693 -57.31842177 12.98593549 -48.3125 3.75 C-34.23773583 -7.65927786 -15.5417639 -10.35342057 0 0 Z M-40.8984375 18.484375 C-44.34440145 24.0055327 -45.84002528 29.32873643 -44.875 35.8125 C-43.21010006 42.15307702 -40.3885576 47.40737962 -35.1171875 51.421875 C-28.75216473 55.06487839 -22.52963748 55.93824666 -15.3125 54.75 C-8.37679083 52.43455651 -3.88919242 48.03337857 -0.3125 41.75 C2.12341841 36.03088721 2.12368716 30.72941973 0.6875 24.75 C-2.25502765 17.85154307 -7.48255316 12.54274107 -14.25 9.375 C-24.78344275 7.22531781 -34.1414888 9.83804254 -40.8984375 18.484375 Z " fill="#000000" transform="translate(425.3125,58.25)"/>
<path d="M0 0 C2.32634734 3.48952102 2.26639011 4.91796475 2.30639648 9.04443359 C2.32238388 10.28937592 2.33837128 11.53431824 2.35484314 12.81698608 C2.3612199 14.17746573 2.36661262 15.53795029 2.37109375 16.8984375 C2.3800617 18.2946482 2.38918358 19.69085792 2.39845276 21.08706665 C2.4149409 24.01412286 2.42264246 26.94106473 2.42553711 29.86816406 C2.43091968 33.61331724 2.46859287 37.35739111 2.51428127 41.10223961 C2.54407082 43.98652031 2.55126105 46.87054176 2.55226326 49.75496292 C2.55646223 51.13525967 2.56888393 52.51555742 2.58978081 53.89570236 C2.61672474 55.82920894 2.60875773 57.76310586 2.59936523 59.69677734 C2.60443588 60.7958139 2.60950653 61.89485046 2.61473083 63.02719116 C1.79243791 67.00376031 0.15715834 68.52737961 -3 71 C-6.46617356 71 -8.80672846 70.83339446 -11.68667603 68.82200623 C-13.60327138 66.16306697 -13.38123509 64.10333286 -13.38818359 60.84790039 C-13.39764008 59.57970963 -13.40709656 58.31151886 -13.4168396 57.00489807 C-13.41146933 55.61914763 -13.40531624 54.23340003 -13.3984375 52.84765625 C-13.40045859 51.42662914 -13.40337033 50.00560303 -13.40713501 48.58457947 C-13.41155818 45.60617194 -13.40512881 42.62803435 -13.39111328 39.6496582 C-13.37403656 35.83514651 -13.38385241 32.02126877 -13.40183067 28.20678043 C-13.4126822 25.27191918 -13.4092157 22.33720766 -13.4014473 19.40234184 C-13.39944825 17.9961483 -13.40189422 16.58994109 -13.40888596 15.1837635 C-13.41652027 13.21634309 -13.40281733 11.24887494 -13.38818359 9.28149414 C-13.38579681 8.16247208 -13.38341003 7.04345001 -13.38095093 5.89051819 C-12.95749389 2.67747899 -12.21762555 1.31960762 -10 -1 C-6.36647238 -2.75411678 -3.55908674 -1.54742902 0 0 Z " fill="#000000" transform="translate(432,355)"/>
</svg>
